%TF.GenerationSoftware,KiCad,Pcbnew,5.1.9*%
%TF.CreationDate,2021-04-30T20:41:33+02:00*%
%TF.ProjectId,AnalogThermometer,416e616c-6f67-4546-9865-726d6f6d6574,rev?*%
%TF.SameCoordinates,Original*%
%TF.FileFunction,Copper,L1,Top*%
%TF.FilePolarity,Positive*%
%FSLAX46Y46*%
G04 Gerber Fmt 4.6, Leading zero omitted, Abs format (unit mm)*
G04 Created by KiCad (PCBNEW 5.1.9) date 2021-04-30 20:41:33*
%MOMM*%
%LPD*%
G01*
G04 APERTURE LIST*
%TA.AperFunction,ComponentPad*%
%ADD10C,1.450000*%
%TD*%
%TA.AperFunction,ComponentPad*%
%ADD11O,1.200000X1.900000*%
%TD*%
%TA.AperFunction,ComponentPad*%
%ADD12R,1.700000X1.700000*%
%TD*%
%TA.AperFunction,ViaPad*%
%ADD13C,0.800000*%
%TD*%
%TA.AperFunction,Conductor*%
%ADD14C,0.500000*%
%TD*%
%TA.AperFunction,Conductor*%
%ADD15C,0.254000*%
%TD*%
%TA.AperFunction,Conductor*%
%ADD16C,0.100000*%
%TD*%
G04 APERTURE END LIST*
%TO.P,R54,1*%
%TO.N,Net-(D21-Pad2)*%
%TA.AperFunction,SMDPad,CuDef*%
G36*
G01*
X27949997Y-81160000D02*
X29200003Y-81160000D01*
G75*
G02*
X29450000Y-81409997I0J-249997D01*
G01*
X29450000Y-82035003D01*
G75*
G02*
X29200003Y-82285000I-249997J0D01*
G01*
X27949997Y-82285000D01*
G75*
G02*
X27700000Y-82035003I0J249997D01*
G01*
X27700000Y-81409997D01*
G75*
G02*
X27949997Y-81160000I249997J0D01*
G01*
G37*
%TD.AperFunction*%
%TO.P,R54,2*%
%TO.N,Net-(R54-Pad2)*%
%TA.AperFunction,SMDPad,CuDef*%
G36*
G01*
X27949997Y-84085000D02*
X29200003Y-84085000D01*
G75*
G02*
X29450000Y-84334997I0J-249997D01*
G01*
X29450000Y-84960003D01*
G75*
G02*
X29200003Y-85210000I-249997J0D01*
G01*
X27949997Y-85210000D01*
G75*
G02*
X27700000Y-84960003I0J249997D01*
G01*
X27700000Y-84334997D01*
G75*
G02*
X27949997Y-84085000I249997J0D01*
G01*
G37*
%TD.AperFunction*%
%TD*%
%TO.P,D1,1*%
%TO.N,GND*%
%TA.AperFunction,SMDPad,CuDef*%
G36*
G01*
X34217500Y-25282997D02*
X34217500Y-26533003D01*
G75*
G02*
X33967503Y-26783000I-249997J0D01*
G01*
X33342497Y-26783000D01*
G75*
G02*
X33092500Y-26533003I0J249997D01*
G01*
X33092500Y-25282997D01*
G75*
G02*
X33342497Y-25033000I249997J0D01*
G01*
X33967503Y-25033000D01*
G75*
G02*
X34217500Y-25282997I0J-249997D01*
G01*
G37*
%TD.AperFunction*%
%TO.P,D1,2*%
%TO.N,Net-(D1-Pad2)*%
%TA.AperFunction,SMDPad,CuDef*%
G36*
G01*
X31292500Y-25282997D02*
X31292500Y-26533003D01*
G75*
G02*
X31042503Y-26783000I-249997J0D01*
G01*
X30417497Y-26783000D01*
G75*
G02*
X30167500Y-26533003I0J249997D01*
G01*
X30167500Y-25282997D01*
G75*
G02*
X30417497Y-25033000I249997J0D01*
G01*
X31042503Y-25033000D01*
G75*
G02*
X31292500Y-25282997I0J-249997D01*
G01*
G37*
%TD.AperFunction*%
%TD*%
%TO.P,D2,2*%
%TO.N,Net-(D2-Pad2)*%
%TA.AperFunction,SMDPad,CuDef*%
G36*
G01*
X33094500Y-29327003D02*
X33094500Y-28076997D01*
G75*
G02*
X33344497Y-27827000I249997J0D01*
G01*
X33969503Y-27827000D01*
G75*
G02*
X34219500Y-28076997I0J-249997D01*
G01*
X34219500Y-29327003D01*
G75*
G02*
X33969503Y-29577000I-249997J0D01*
G01*
X33344497Y-29577000D01*
G75*
G02*
X33094500Y-29327003I0J249997D01*
G01*
G37*
%TD.AperFunction*%
%TO.P,D2,1*%
%TO.N,GND*%
%TA.AperFunction,SMDPad,CuDef*%
G36*
G01*
X30169500Y-29327003D02*
X30169500Y-28076997D01*
G75*
G02*
X30419497Y-27827000I249997J0D01*
G01*
X31044503Y-27827000D01*
G75*
G02*
X31294500Y-28076997I0J-249997D01*
G01*
X31294500Y-29327003D01*
G75*
G02*
X31044503Y-29577000I-249997J0D01*
G01*
X30419497Y-29577000D01*
G75*
G02*
X30169500Y-29327003I0J249997D01*
G01*
G37*
%TD.AperFunction*%
%TD*%
%TO.P,D3,1*%
%TO.N,GND*%
%TA.AperFunction,SMDPad,CuDef*%
G36*
G01*
X30169500Y-32121003D02*
X30169500Y-30870997D01*
G75*
G02*
X30419497Y-30621000I249997J0D01*
G01*
X31044503Y-30621000D01*
G75*
G02*
X31294500Y-30870997I0J-249997D01*
G01*
X31294500Y-32121003D01*
G75*
G02*
X31044503Y-32371000I-249997J0D01*
G01*
X30419497Y-32371000D01*
G75*
G02*
X30169500Y-32121003I0J249997D01*
G01*
G37*
%TD.AperFunction*%
%TO.P,D3,2*%
%TO.N,Net-(D3-Pad2)*%
%TA.AperFunction,SMDPad,CuDef*%
G36*
G01*
X33094500Y-32121003D02*
X33094500Y-30870997D01*
G75*
G02*
X33344497Y-30621000I249997J0D01*
G01*
X33969503Y-30621000D01*
G75*
G02*
X34219500Y-30870997I0J-249997D01*
G01*
X34219500Y-32121003D01*
G75*
G02*
X33969503Y-32371000I-249997J0D01*
G01*
X33344497Y-32371000D01*
G75*
G02*
X33094500Y-32121003I0J249997D01*
G01*
G37*
%TD.AperFunction*%
%TD*%
%TO.P,D4,2*%
%TO.N,Net-(D4-Pad2)*%
%TA.AperFunction,SMDPad,CuDef*%
G36*
G01*
X31294500Y-33664997D02*
X31294500Y-34915003D01*
G75*
G02*
X31044503Y-35165000I-249997J0D01*
G01*
X30419497Y-35165000D01*
G75*
G02*
X30169500Y-34915003I0J249997D01*
G01*
X30169500Y-33664997D01*
G75*
G02*
X30419497Y-33415000I249997J0D01*
G01*
X31044503Y-33415000D01*
G75*
G02*
X31294500Y-33664997I0J-249997D01*
G01*
G37*
%TD.AperFunction*%
%TO.P,D4,1*%
%TO.N,GND*%
%TA.AperFunction,SMDPad,CuDef*%
G36*
G01*
X34219500Y-33664997D02*
X34219500Y-34915003D01*
G75*
G02*
X33969503Y-35165000I-249997J0D01*
G01*
X33344497Y-35165000D01*
G75*
G02*
X33094500Y-34915003I0J249997D01*
G01*
X33094500Y-33664997D01*
G75*
G02*
X33344497Y-33415000I249997J0D01*
G01*
X33969503Y-33415000D01*
G75*
G02*
X34219500Y-33664997I0J-249997D01*
G01*
G37*
%TD.AperFunction*%
%TD*%
%TO.P,D5,2*%
%TO.N,Net-(D5-Pad2)*%
%TA.AperFunction,SMDPad,CuDef*%
G36*
G01*
X31292500Y-36458997D02*
X31292500Y-37709003D01*
G75*
G02*
X31042503Y-37959000I-249997J0D01*
G01*
X30417497Y-37959000D01*
G75*
G02*
X30167500Y-37709003I0J249997D01*
G01*
X30167500Y-36458997D01*
G75*
G02*
X30417497Y-36209000I249997J0D01*
G01*
X31042503Y-36209000D01*
G75*
G02*
X31292500Y-36458997I0J-249997D01*
G01*
G37*
%TD.AperFunction*%
%TO.P,D5,1*%
%TO.N,GND*%
%TA.AperFunction,SMDPad,CuDef*%
G36*
G01*
X34217500Y-36458997D02*
X34217500Y-37709003D01*
G75*
G02*
X33967503Y-37959000I-249997J0D01*
G01*
X33342497Y-37959000D01*
G75*
G02*
X33092500Y-37709003I0J249997D01*
G01*
X33092500Y-36458997D01*
G75*
G02*
X33342497Y-36209000I249997J0D01*
G01*
X33967503Y-36209000D01*
G75*
G02*
X34217500Y-36458997I0J-249997D01*
G01*
G37*
%TD.AperFunction*%
%TD*%
%TO.P,D6,1*%
%TO.N,GND*%
%TA.AperFunction,SMDPad,CuDef*%
G36*
G01*
X30167500Y-40503003D02*
X30167500Y-39252997D01*
G75*
G02*
X30417497Y-39003000I249997J0D01*
G01*
X31042503Y-39003000D01*
G75*
G02*
X31292500Y-39252997I0J-249997D01*
G01*
X31292500Y-40503003D01*
G75*
G02*
X31042503Y-40753000I-249997J0D01*
G01*
X30417497Y-40753000D01*
G75*
G02*
X30167500Y-40503003I0J249997D01*
G01*
G37*
%TD.AperFunction*%
%TO.P,D6,2*%
%TO.N,Net-(D6-Pad2)*%
%TA.AperFunction,SMDPad,CuDef*%
G36*
G01*
X33092500Y-40503003D02*
X33092500Y-39252997D01*
G75*
G02*
X33342497Y-39003000I249997J0D01*
G01*
X33967503Y-39003000D01*
G75*
G02*
X34217500Y-39252997I0J-249997D01*
G01*
X34217500Y-40503003D01*
G75*
G02*
X33967503Y-40753000I-249997J0D01*
G01*
X33342497Y-40753000D01*
G75*
G02*
X33092500Y-40503003I0J249997D01*
G01*
G37*
%TD.AperFunction*%
%TD*%
%TO.P,D7,2*%
%TO.N,Net-(D7-Pad2)*%
%TA.AperFunction,SMDPad,CuDef*%
G36*
G01*
X33092500Y-43297003D02*
X33092500Y-42046997D01*
G75*
G02*
X33342497Y-41797000I249997J0D01*
G01*
X33967503Y-41797000D01*
G75*
G02*
X34217500Y-42046997I0J-249997D01*
G01*
X34217500Y-43297003D01*
G75*
G02*
X33967503Y-43547000I-249997J0D01*
G01*
X33342497Y-43547000D01*
G75*
G02*
X33092500Y-43297003I0J249997D01*
G01*
G37*
%TD.AperFunction*%
%TO.P,D7,1*%
%TO.N,GND*%
%TA.AperFunction,SMDPad,CuDef*%
G36*
G01*
X30167500Y-43297003D02*
X30167500Y-42046997D01*
G75*
G02*
X30417497Y-41797000I249997J0D01*
G01*
X31042503Y-41797000D01*
G75*
G02*
X31292500Y-42046997I0J-249997D01*
G01*
X31292500Y-43297003D01*
G75*
G02*
X31042503Y-43547000I-249997J0D01*
G01*
X30417497Y-43547000D01*
G75*
G02*
X30167500Y-43297003I0J249997D01*
G01*
G37*
%TD.AperFunction*%
%TD*%
%TO.P,D8,1*%
%TO.N,GND*%
%TA.AperFunction,SMDPad,CuDef*%
G36*
G01*
X34217500Y-44840997D02*
X34217500Y-46091003D01*
G75*
G02*
X33967503Y-46341000I-249997J0D01*
G01*
X33342497Y-46341000D01*
G75*
G02*
X33092500Y-46091003I0J249997D01*
G01*
X33092500Y-44840997D01*
G75*
G02*
X33342497Y-44591000I249997J0D01*
G01*
X33967503Y-44591000D01*
G75*
G02*
X34217500Y-44840997I0J-249997D01*
G01*
G37*
%TD.AperFunction*%
%TO.P,D8,2*%
%TO.N,Net-(D8-Pad2)*%
%TA.AperFunction,SMDPad,CuDef*%
G36*
G01*
X31292500Y-44840997D02*
X31292500Y-46091003D01*
G75*
G02*
X31042503Y-46341000I-249997J0D01*
G01*
X30417497Y-46341000D01*
G75*
G02*
X30167500Y-46091003I0J249997D01*
G01*
X30167500Y-44840997D01*
G75*
G02*
X30417497Y-44591000I249997J0D01*
G01*
X31042503Y-44591000D01*
G75*
G02*
X31292500Y-44840997I0J-249997D01*
G01*
G37*
%TD.AperFunction*%
%TD*%
%TO.P,D9,1*%
%TO.N,GND*%
%TA.AperFunction,SMDPad,CuDef*%
G36*
G01*
X34217500Y-47634997D02*
X34217500Y-48885003D01*
G75*
G02*
X33967503Y-49135000I-249997J0D01*
G01*
X33342497Y-49135000D01*
G75*
G02*
X33092500Y-48885003I0J249997D01*
G01*
X33092500Y-47634997D01*
G75*
G02*
X33342497Y-47385000I249997J0D01*
G01*
X33967503Y-47385000D01*
G75*
G02*
X34217500Y-47634997I0J-249997D01*
G01*
G37*
%TD.AperFunction*%
%TO.P,D9,2*%
%TO.N,Net-(D9-Pad2)*%
%TA.AperFunction,SMDPad,CuDef*%
G36*
G01*
X31292500Y-47634997D02*
X31292500Y-48885003D01*
G75*
G02*
X31042503Y-49135000I-249997J0D01*
G01*
X30417497Y-49135000D01*
G75*
G02*
X30167500Y-48885003I0J249997D01*
G01*
X30167500Y-47634997D01*
G75*
G02*
X30417497Y-47385000I249997J0D01*
G01*
X31042503Y-47385000D01*
G75*
G02*
X31292500Y-47634997I0J-249997D01*
G01*
G37*
%TD.AperFunction*%
%TD*%
%TO.P,D10,2*%
%TO.N,Net-(D10-Pad2)*%
%TA.AperFunction,SMDPad,CuDef*%
G36*
G01*
X33092500Y-51679003D02*
X33092500Y-50428997D01*
G75*
G02*
X33342497Y-50179000I249997J0D01*
G01*
X33967503Y-50179000D01*
G75*
G02*
X34217500Y-50428997I0J-249997D01*
G01*
X34217500Y-51679003D01*
G75*
G02*
X33967503Y-51929000I-249997J0D01*
G01*
X33342497Y-51929000D01*
G75*
G02*
X33092500Y-51679003I0J249997D01*
G01*
G37*
%TD.AperFunction*%
%TO.P,D10,1*%
%TO.N,GND*%
%TA.AperFunction,SMDPad,CuDef*%
G36*
G01*
X30167500Y-51679003D02*
X30167500Y-50428997D01*
G75*
G02*
X30417497Y-50179000I249997J0D01*
G01*
X31042503Y-50179000D01*
G75*
G02*
X31292500Y-50428997I0J-249997D01*
G01*
X31292500Y-51679003D01*
G75*
G02*
X31042503Y-51929000I-249997J0D01*
G01*
X30417497Y-51929000D01*
G75*
G02*
X30167500Y-51679003I0J249997D01*
G01*
G37*
%TD.AperFunction*%
%TD*%
%TO.P,D11,1*%
%TO.N,GND*%
%TA.AperFunction,SMDPad,CuDef*%
G36*
G01*
X30167500Y-54473003D02*
X30167500Y-53222997D01*
G75*
G02*
X30417497Y-52973000I249997J0D01*
G01*
X31042503Y-52973000D01*
G75*
G02*
X31292500Y-53222997I0J-249997D01*
G01*
X31292500Y-54473003D01*
G75*
G02*
X31042503Y-54723000I-249997J0D01*
G01*
X30417497Y-54723000D01*
G75*
G02*
X30167500Y-54473003I0J249997D01*
G01*
G37*
%TD.AperFunction*%
%TO.P,D11,2*%
%TO.N,Net-(D11-Pad2)*%
%TA.AperFunction,SMDPad,CuDef*%
G36*
G01*
X33092500Y-54473003D02*
X33092500Y-53222997D01*
G75*
G02*
X33342497Y-52973000I249997J0D01*
G01*
X33967503Y-52973000D01*
G75*
G02*
X34217500Y-53222997I0J-249997D01*
G01*
X34217500Y-54473003D01*
G75*
G02*
X33967503Y-54723000I-249997J0D01*
G01*
X33342497Y-54723000D01*
G75*
G02*
X33092500Y-54473003I0J249997D01*
G01*
G37*
%TD.AperFunction*%
%TD*%
%TO.P,D12,2*%
%TO.N,Net-(D12-Pad2)*%
%TA.AperFunction,SMDPad,CuDef*%
G36*
G01*
X31296500Y-56016997D02*
X31296500Y-57267003D01*
G75*
G02*
X31046503Y-57517000I-249997J0D01*
G01*
X30421497Y-57517000D01*
G75*
G02*
X30171500Y-57267003I0J249997D01*
G01*
X30171500Y-56016997D01*
G75*
G02*
X30421497Y-55767000I249997J0D01*
G01*
X31046503Y-55767000D01*
G75*
G02*
X31296500Y-56016997I0J-249997D01*
G01*
G37*
%TD.AperFunction*%
%TO.P,D12,1*%
%TO.N,GND*%
%TA.AperFunction,SMDPad,CuDef*%
G36*
G01*
X34221500Y-56016997D02*
X34221500Y-57267003D01*
G75*
G02*
X33971503Y-57517000I-249997J0D01*
G01*
X33346497Y-57517000D01*
G75*
G02*
X33096500Y-57267003I0J249997D01*
G01*
X33096500Y-56016997D01*
G75*
G02*
X33346497Y-55767000I249997J0D01*
G01*
X33971503Y-55767000D01*
G75*
G02*
X34221500Y-56016997I0J-249997D01*
G01*
G37*
%TD.AperFunction*%
%TD*%
%TO.P,D13,2*%
%TO.N,Net-(D13-Pad2)*%
%TA.AperFunction,SMDPad,CuDef*%
G36*
G01*
X31292500Y-58810997D02*
X31292500Y-60061003D01*
G75*
G02*
X31042503Y-60311000I-249997J0D01*
G01*
X30417497Y-60311000D01*
G75*
G02*
X30167500Y-60061003I0J249997D01*
G01*
X30167500Y-58810997D01*
G75*
G02*
X30417497Y-58561000I249997J0D01*
G01*
X31042503Y-58561000D01*
G75*
G02*
X31292500Y-58810997I0J-249997D01*
G01*
G37*
%TD.AperFunction*%
%TO.P,D13,1*%
%TO.N,GND*%
%TA.AperFunction,SMDPad,CuDef*%
G36*
G01*
X34217500Y-58810997D02*
X34217500Y-60061003D01*
G75*
G02*
X33967503Y-60311000I-249997J0D01*
G01*
X33342497Y-60311000D01*
G75*
G02*
X33092500Y-60061003I0J249997D01*
G01*
X33092500Y-58810997D01*
G75*
G02*
X33342497Y-58561000I249997J0D01*
G01*
X33967503Y-58561000D01*
G75*
G02*
X34217500Y-58810997I0J-249997D01*
G01*
G37*
%TD.AperFunction*%
%TD*%
%TO.P,D14,2*%
%TO.N,Net-(D14-Pad2)*%
%TA.AperFunction,SMDPad,CuDef*%
G36*
G01*
X33092500Y-62855003D02*
X33092500Y-61604997D01*
G75*
G02*
X33342497Y-61355000I249997J0D01*
G01*
X33967503Y-61355000D01*
G75*
G02*
X34217500Y-61604997I0J-249997D01*
G01*
X34217500Y-62855003D01*
G75*
G02*
X33967503Y-63105000I-249997J0D01*
G01*
X33342497Y-63105000D01*
G75*
G02*
X33092500Y-62855003I0J249997D01*
G01*
G37*
%TD.AperFunction*%
%TO.P,D14,1*%
%TO.N,GND*%
%TA.AperFunction,SMDPad,CuDef*%
G36*
G01*
X30167500Y-62855003D02*
X30167500Y-61604997D01*
G75*
G02*
X30417497Y-61355000I249997J0D01*
G01*
X31042503Y-61355000D01*
G75*
G02*
X31292500Y-61604997I0J-249997D01*
G01*
X31292500Y-62855003D01*
G75*
G02*
X31042503Y-63105000I-249997J0D01*
G01*
X30417497Y-63105000D01*
G75*
G02*
X30167500Y-62855003I0J249997D01*
G01*
G37*
%TD.AperFunction*%
%TD*%
%TO.P,D15,1*%
%TO.N,GND*%
%TA.AperFunction,SMDPad,CuDef*%
G36*
G01*
X30167500Y-65649003D02*
X30167500Y-64398997D01*
G75*
G02*
X30417497Y-64149000I249997J0D01*
G01*
X31042503Y-64149000D01*
G75*
G02*
X31292500Y-64398997I0J-249997D01*
G01*
X31292500Y-65649003D01*
G75*
G02*
X31042503Y-65899000I-249997J0D01*
G01*
X30417497Y-65899000D01*
G75*
G02*
X30167500Y-65649003I0J249997D01*
G01*
G37*
%TD.AperFunction*%
%TO.P,D15,2*%
%TO.N,Net-(D15-Pad2)*%
%TA.AperFunction,SMDPad,CuDef*%
G36*
G01*
X33092500Y-65649003D02*
X33092500Y-64398997D01*
G75*
G02*
X33342497Y-64149000I249997J0D01*
G01*
X33967503Y-64149000D01*
G75*
G02*
X34217500Y-64398997I0J-249997D01*
G01*
X34217500Y-65649003D01*
G75*
G02*
X33967503Y-65899000I-249997J0D01*
G01*
X33342497Y-65899000D01*
G75*
G02*
X33092500Y-65649003I0J249997D01*
G01*
G37*
%TD.AperFunction*%
%TD*%
%TO.P,D16,2*%
%TO.N,Net-(D16-Pad2)*%
%TA.AperFunction,SMDPad,CuDef*%
G36*
G01*
X31294500Y-67192997D02*
X31294500Y-68443003D01*
G75*
G02*
X31044503Y-68693000I-249997J0D01*
G01*
X30419497Y-68693000D01*
G75*
G02*
X30169500Y-68443003I0J249997D01*
G01*
X30169500Y-67192997D01*
G75*
G02*
X30419497Y-66943000I249997J0D01*
G01*
X31044503Y-66943000D01*
G75*
G02*
X31294500Y-67192997I0J-249997D01*
G01*
G37*
%TD.AperFunction*%
%TO.P,D16,1*%
%TO.N,GND*%
%TA.AperFunction,SMDPad,CuDef*%
G36*
G01*
X34219500Y-67192997D02*
X34219500Y-68443003D01*
G75*
G02*
X33969503Y-68693000I-249997J0D01*
G01*
X33344497Y-68693000D01*
G75*
G02*
X33094500Y-68443003I0J249997D01*
G01*
X33094500Y-67192997D01*
G75*
G02*
X33344497Y-66943000I249997J0D01*
G01*
X33969503Y-66943000D01*
G75*
G02*
X34219500Y-67192997I0J-249997D01*
G01*
G37*
%TD.AperFunction*%
%TD*%
%TO.P,D17,1*%
%TO.N,GND*%
%TA.AperFunction,SMDPad,CuDef*%
G36*
G01*
X34217500Y-69986997D02*
X34217500Y-71237003D01*
G75*
G02*
X33967503Y-71487000I-249997J0D01*
G01*
X33342497Y-71487000D01*
G75*
G02*
X33092500Y-71237003I0J249997D01*
G01*
X33092500Y-69986997D01*
G75*
G02*
X33342497Y-69737000I249997J0D01*
G01*
X33967503Y-69737000D01*
G75*
G02*
X34217500Y-69986997I0J-249997D01*
G01*
G37*
%TD.AperFunction*%
%TO.P,D17,2*%
%TO.N,Net-(D17-Pad2)*%
%TA.AperFunction,SMDPad,CuDef*%
G36*
G01*
X31292500Y-69986997D02*
X31292500Y-71237003D01*
G75*
G02*
X31042503Y-71487000I-249997J0D01*
G01*
X30417497Y-71487000D01*
G75*
G02*
X30167500Y-71237003I0J249997D01*
G01*
X30167500Y-69986997D01*
G75*
G02*
X30417497Y-69737000I249997J0D01*
G01*
X31042503Y-69737000D01*
G75*
G02*
X31292500Y-69986997I0J-249997D01*
G01*
G37*
%TD.AperFunction*%
%TD*%
%TO.P,D18,1*%
%TO.N,GND*%
%TA.AperFunction,SMDPad,CuDef*%
G36*
G01*
X30167500Y-74031003D02*
X30167500Y-72780997D01*
G75*
G02*
X30417497Y-72531000I249997J0D01*
G01*
X31042503Y-72531000D01*
G75*
G02*
X31292500Y-72780997I0J-249997D01*
G01*
X31292500Y-74031003D01*
G75*
G02*
X31042503Y-74281000I-249997J0D01*
G01*
X30417497Y-74281000D01*
G75*
G02*
X30167500Y-74031003I0J249997D01*
G01*
G37*
%TD.AperFunction*%
%TO.P,D18,2*%
%TO.N,Net-(D18-Pad2)*%
%TA.AperFunction,SMDPad,CuDef*%
G36*
G01*
X33092500Y-74031003D02*
X33092500Y-72780997D01*
G75*
G02*
X33342497Y-72531000I249997J0D01*
G01*
X33967503Y-72531000D01*
G75*
G02*
X34217500Y-72780997I0J-249997D01*
G01*
X34217500Y-74031003D01*
G75*
G02*
X33967503Y-74281000I-249997J0D01*
G01*
X33342497Y-74281000D01*
G75*
G02*
X33092500Y-74031003I0J249997D01*
G01*
G37*
%TD.AperFunction*%
%TD*%
%TO.P,D19,2*%
%TO.N,Net-(D19-Pad2)*%
%TA.AperFunction,SMDPad,CuDef*%
G36*
G01*
X33092500Y-76825003D02*
X33092500Y-75574997D01*
G75*
G02*
X33342497Y-75325000I249997J0D01*
G01*
X33967503Y-75325000D01*
G75*
G02*
X34217500Y-75574997I0J-249997D01*
G01*
X34217500Y-76825003D01*
G75*
G02*
X33967503Y-77075000I-249997J0D01*
G01*
X33342497Y-77075000D01*
G75*
G02*
X33092500Y-76825003I0J249997D01*
G01*
G37*
%TD.AperFunction*%
%TO.P,D19,1*%
%TO.N,GND*%
%TA.AperFunction,SMDPad,CuDef*%
G36*
G01*
X30167500Y-76825003D02*
X30167500Y-75574997D01*
G75*
G02*
X30417497Y-75325000I249997J0D01*
G01*
X31042503Y-75325000D01*
G75*
G02*
X31292500Y-75574997I0J-249997D01*
G01*
X31292500Y-76825003D01*
G75*
G02*
X31042503Y-77075000I-249997J0D01*
G01*
X30417497Y-77075000D01*
G75*
G02*
X30167500Y-76825003I0J249997D01*
G01*
G37*
%TD.AperFunction*%
%TD*%
%TO.P,D20,1*%
%TO.N,GND*%
%TA.AperFunction,SMDPad,CuDef*%
G36*
G01*
X34217500Y-78368997D02*
X34217500Y-79619003D01*
G75*
G02*
X33967503Y-79869000I-249997J0D01*
G01*
X33342497Y-79869000D01*
G75*
G02*
X33092500Y-79619003I0J249997D01*
G01*
X33092500Y-78368997D01*
G75*
G02*
X33342497Y-78119000I249997J0D01*
G01*
X33967503Y-78119000D01*
G75*
G02*
X34217500Y-78368997I0J-249997D01*
G01*
G37*
%TD.AperFunction*%
%TO.P,D20,2*%
%TO.N,Net-(D20-Pad2)*%
%TA.AperFunction,SMDPad,CuDef*%
G36*
G01*
X31292500Y-78368997D02*
X31292500Y-79619003D01*
G75*
G02*
X31042503Y-79869000I-249997J0D01*
G01*
X30417497Y-79869000D01*
G75*
G02*
X30167500Y-79619003I0J249997D01*
G01*
X30167500Y-78368997D01*
G75*
G02*
X30417497Y-78119000I249997J0D01*
G01*
X31042503Y-78119000D01*
G75*
G02*
X31292500Y-78368997I0J-249997D01*
G01*
G37*
%TD.AperFunction*%
%TD*%
%TO.P,D21,1*%
%TO.N,GND*%
%TA.AperFunction,SMDPad,CuDef*%
G36*
G01*
X34217500Y-81162997D02*
X34217500Y-82413003D01*
G75*
G02*
X33967503Y-82663000I-249997J0D01*
G01*
X33342497Y-82663000D01*
G75*
G02*
X33092500Y-82413003I0J249997D01*
G01*
X33092500Y-81162997D01*
G75*
G02*
X33342497Y-80913000I249997J0D01*
G01*
X33967503Y-80913000D01*
G75*
G02*
X34217500Y-81162997I0J-249997D01*
G01*
G37*
%TD.AperFunction*%
%TO.P,D21,2*%
%TO.N,Net-(D21-Pad2)*%
%TA.AperFunction,SMDPad,CuDef*%
G36*
G01*
X31292500Y-81162997D02*
X31292500Y-82413003D01*
G75*
G02*
X31042503Y-82663000I-249997J0D01*
G01*
X30417497Y-82663000D01*
G75*
G02*
X30167500Y-82413003I0J249997D01*
G01*
X30167500Y-81162997D01*
G75*
G02*
X30417497Y-80913000I249997J0D01*
G01*
X31042503Y-80913000D01*
G75*
G02*
X31292500Y-81162997I0J-249997D01*
G01*
G37*
%TD.AperFunction*%
%TD*%
%TO.P,D22,2*%
%TO.N,Net-(D22-Pad2)*%
%TA.AperFunction,SMDPad,CuDef*%
G36*
G01*
X33092500Y-85207003D02*
X33092500Y-83956997D01*
G75*
G02*
X33342497Y-83707000I249997J0D01*
G01*
X33967503Y-83707000D01*
G75*
G02*
X34217500Y-83956997I0J-249997D01*
G01*
X34217500Y-85207003D01*
G75*
G02*
X33967503Y-85457000I-249997J0D01*
G01*
X33342497Y-85457000D01*
G75*
G02*
X33092500Y-85207003I0J249997D01*
G01*
G37*
%TD.AperFunction*%
%TO.P,D22,1*%
%TO.N,GND*%
%TA.AperFunction,SMDPad,CuDef*%
G36*
G01*
X30167500Y-85207003D02*
X30167500Y-83956997D01*
G75*
G02*
X30417497Y-83707000I249997J0D01*
G01*
X31042503Y-83707000D01*
G75*
G02*
X31292500Y-83956997I0J-249997D01*
G01*
X31292500Y-85207003D01*
G75*
G02*
X31042503Y-85457000I-249997J0D01*
G01*
X30417497Y-85457000D01*
G75*
G02*
X30167500Y-85207003I0J249997D01*
G01*
G37*
%TD.AperFunction*%
%TD*%
%TO.P,D23,2*%
%TO.N,Net-(D23-Pad2)*%
%TA.AperFunction,SMDPad,CuDef*%
G36*
G01*
X33092500Y-88001003D02*
X33092500Y-86750997D01*
G75*
G02*
X33342497Y-86501000I249997J0D01*
G01*
X33967503Y-86501000D01*
G75*
G02*
X34217500Y-86750997I0J-249997D01*
G01*
X34217500Y-88001003D01*
G75*
G02*
X33967503Y-88251000I-249997J0D01*
G01*
X33342497Y-88251000D01*
G75*
G02*
X33092500Y-88001003I0J249997D01*
G01*
G37*
%TD.AperFunction*%
%TO.P,D23,1*%
%TO.N,GND*%
%TA.AperFunction,SMDPad,CuDef*%
G36*
G01*
X30167500Y-88001003D02*
X30167500Y-86750997D01*
G75*
G02*
X30417497Y-86501000I249997J0D01*
G01*
X31042503Y-86501000D01*
G75*
G02*
X31292500Y-86750997I0J-249997D01*
G01*
X31292500Y-88001003D01*
G75*
G02*
X31042503Y-88251000I-249997J0D01*
G01*
X30417497Y-88251000D01*
G75*
G02*
X30167500Y-88001003I0J249997D01*
G01*
G37*
%TD.AperFunction*%
%TD*%
%TO.P,D24,1*%
%TO.N,GND*%
%TA.AperFunction,SMDPad,CuDef*%
G36*
G01*
X34219500Y-89544997D02*
X34219500Y-90795003D01*
G75*
G02*
X33969503Y-91045000I-249997J0D01*
G01*
X33344497Y-91045000D01*
G75*
G02*
X33094500Y-90795003I0J249997D01*
G01*
X33094500Y-89544997D01*
G75*
G02*
X33344497Y-89295000I249997J0D01*
G01*
X33969503Y-89295000D01*
G75*
G02*
X34219500Y-89544997I0J-249997D01*
G01*
G37*
%TD.AperFunction*%
%TO.P,D24,2*%
%TO.N,Net-(D24-Pad2)*%
%TA.AperFunction,SMDPad,CuDef*%
G36*
G01*
X31294500Y-89544997D02*
X31294500Y-90795003D01*
G75*
G02*
X31044503Y-91045000I-249997J0D01*
G01*
X30419497Y-91045000D01*
G75*
G02*
X30169500Y-90795003I0J249997D01*
G01*
X30169500Y-89544997D01*
G75*
G02*
X30419497Y-89295000I249997J0D01*
G01*
X31044503Y-89295000D01*
G75*
G02*
X31294500Y-89544997I0J-249997D01*
G01*
G37*
%TD.AperFunction*%
%TD*%
%TO.P,D25,1*%
%TO.N,GND*%
%TA.AperFunction,SMDPad,CuDef*%
G36*
G01*
X34217500Y-92338997D02*
X34217500Y-93589003D01*
G75*
G02*
X33967503Y-93839000I-249997J0D01*
G01*
X33342497Y-93839000D01*
G75*
G02*
X33092500Y-93589003I0J249997D01*
G01*
X33092500Y-92338997D01*
G75*
G02*
X33342497Y-92089000I249997J0D01*
G01*
X33967503Y-92089000D01*
G75*
G02*
X34217500Y-92338997I0J-249997D01*
G01*
G37*
%TD.AperFunction*%
%TO.P,D25,2*%
%TO.N,Net-(D25-Pad2)*%
%TA.AperFunction,SMDPad,CuDef*%
G36*
G01*
X31292500Y-92338997D02*
X31292500Y-93589003D01*
G75*
G02*
X31042503Y-93839000I-249997J0D01*
G01*
X30417497Y-93839000D01*
G75*
G02*
X30167500Y-93589003I0J249997D01*
G01*
X30167500Y-92338997D01*
G75*
G02*
X30417497Y-92089000I249997J0D01*
G01*
X31042503Y-92089000D01*
G75*
G02*
X31292500Y-92338997I0J-249997D01*
G01*
G37*
%TD.AperFunction*%
%TD*%
%TO.P,D26,2*%
%TO.N,Net-(D26-Pad2)*%
%TA.AperFunction,SMDPad,CuDef*%
G36*
G01*
X33092500Y-96383003D02*
X33092500Y-95132997D01*
G75*
G02*
X33342497Y-94883000I249997J0D01*
G01*
X33967503Y-94883000D01*
G75*
G02*
X34217500Y-95132997I0J-249997D01*
G01*
X34217500Y-96383003D01*
G75*
G02*
X33967503Y-96633000I-249997J0D01*
G01*
X33342497Y-96633000D01*
G75*
G02*
X33092500Y-96383003I0J249997D01*
G01*
G37*
%TD.AperFunction*%
%TO.P,D26,1*%
%TO.N,GND*%
%TA.AperFunction,SMDPad,CuDef*%
G36*
G01*
X30167500Y-96383003D02*
X30167500Y-95132997D01*
G75*
G02*
X30417497Y-94883000I249997J0D01*
G01*
X31042503Y-94883000D01*
G75*
G02*
X31292500Y-95132997I0J-249997D01*
G01*
X31292500Y-96383003D01*
G75*
G02*
X31042503Y-96633000I-249997J0D01*
G01*
X30417497Y-96633000D01*
G75*
G02*
X30167500Y-96383003I0J249997D01*
G01*
G37*
%TD.AperFunction*%
%TD*%
%TO.P,D27,1*%
%TO.N,GND*%
%TA.AperFunction,SMDPad,CuDef*%
G36*
G01*
X30167500Y-99177003D02*
X30167500Y-97926997D01*
G75*
G02*
X30417497Y-97677000I249997J0D01*
G01*
X31042503Y-97677000D01*
G75*
G02*
X31292500Y-97926997I0J-249997D01*
G01*
X31292500Y-99177003D01*
G75*
G02*
X31042503Y-99427000I-249997J0D01*
G01*
X30417497Y-99427000D01*
G75*
G02*
X30167500Y-99177003I0J249997D01*
G01*
G37*
%TD.AperFunction*%
%TO.P,D27,2*%
%TO.N,Net-(D27-Pad2)*%
%TA.AperFunction,SMDPad,CuDef*%
G36*
G01*
X33092500Y-99177003D02*
X33092500Y-97926997D01*
G75*
G02*
X33342497Y-97677000I249997J0D01*
G01*
X33967503Y-97677000D01*
G75*
G02*
X34217500Y-97926997I0J-249997D01*
G01*
X34217500Y-99177003D01*
G75*
G02*
X33967503Y-99427000I-249997J0D01*
G01*
X33342497Y-99427000D01*
G75*
G02*
X33092500Y-99177003I0J249997D01*
G01*
G37*
%TD.AperFunction*%
%TD*%
%TO.P,D28,2*%
%TO.N,Net-(D28-Pad2)*%
%TA.AperFunction,SMDPad,CuDef*%
G36*
G01*
X31294500Y-100720997D02*
X31294500Y-101971003D01*
G75*
G02*
X31044503Y-102221000I-249997J0D01*
G01*
X30419497Y-102221000D01*
G75*
G02*
X30169500Y-101971003I0J249997D01*
G01*
X30169500Y-100720997D01*
G75*
G02*
X30419497Y-100471000I249997J0D01*
G01*
X31044503Y-100471000D01*
G75*
G02*
X31294500Y-100720997I0J-249997D01*
G01*
G37*
%TD.AperFunction*%
%TO.P,D28,1*%
%TO.N,GND*%
%TA.AperFunction,SMDPad,CuDef*%
G36*
G01*
X34219500Y-100720997D02*
X34219500Y-101971003D01*
G75*
G02*
X33969503Y-102221000I-249997J0D01*
G01*
X33344497Y-102221000D01*
G75*
G02*
X33094500Y-101971003I0J249997D01*
G01*
X33094500Y-100720997D01*
G75*
G02*
X33344497Y-100471000I249997J0D01*
G01*
X33969503Y-100471000D01*
G75*
G02*
X34219500Y-100720997I0J-249997D01*
G01*
G37*
%TD.AperFunction*%
%TD*%
%TO.P,D29,1*%
%TO.N,GND*%
%TA.AperFunction,SMDPad,CuDef*%
G36*
G01*
X34217500Y-103514997D02*
X34217500Y-104765003D01*
G75*
G02*
X33967503Y-105015000I-249997J0D01*
G01*
X33342497Y-105015000D01*
G75*
G02*
X33092500Y-104765003I0J249997D01*
G01*
X33092500Y-103514997D01*
G75*
G02*
X33342497Y-103265000I249997J0D01*
G01*
X33967503Y-103265000D01*
G75*
G02*
X34217500Y-103514997I0J-249997D01*
G01*
G37*
%TD.AperFunction*%
%TO.P,D29,2*%
%TO.N,Net-(D29-Pad2)*%
%TA.AperFunction,SMDPad,CuDef*%
G36*
G01*
X31292500Y-103514997D02*
X31292500Y-104765003D01*
G75*
G02*
X31042503Y-105015000I-249997J0D01*
G01*
X30417497Y-105015000D01*
G75*
G02*
X30167500Y-104765003I0J249997D01*
G01*
X30167500Y-103514997D01*
G75*
G02*
X30417497Y-103265000I249997J0D01*
G01*
X31042503Y-103265000D01*
G75*
G02*
X31292500Y-103514997I0J-249997D01*
G01*
G37*
%TD.AperFunction*%
%TD*%
%TO.P,D30,1*%
%TO.N,GND*%
%TA.AperFunction,SMDPad,CuDef*%
G36*
G01*
X30167500Y-107559003D02*
X30167500Y-106308997D01*
G75*
G02*
X30417497Y-106059000I249997J0D01*
G01*
X31042503Y-106059000D01*
G75*
G02*
X31292500Y-106308997I0J-249997D01*
G01*
X31292500Y-107559003D01*
G75*
G02*
X31042503Y-107809000I-249997J0D01*
G01*
X30417497Y-107809000D01*
G75*
G02*
X30167500Y-107559003I0J249997D01*
G01*
G37*
%TD.AperFunction*%
%TO.P,D30,2*%
%TO.N,Net-(D30-Pad2)*%
%TA.AperFunction,SMDPad,CuDef*%
G36*
G01*
X33092500Y-107559003D02*
X33092500Y-106308997D01*
G75*
G02*
X33342497Y-106059000I249997J0D01*
G01*
X33967503Y-106059000D01*
G75*
G02*
X34217500Y-106308997I0J-249997D01*
G01*
X34217500Y-107559003D01*
G75*
G02*
X33967503Y-107809000I-249997J0D01*
G01*
X33342497Y-107809000D01*
G75*
G02*
X33092500Y-107559003I0J249997D01*
G01*
G37*
%TD.AperFunction*%
%TD*%
%TO.P,R1,1*%
%TO.N,GND*%
%TA.AperFunction,SMDPad,CuDef*%
G36*
G01*
X27612503Y-113150000D02*
X26362497Y-113150000D01*
G75*
G02*
X26112500Y-112900003I0J249997D01*
G01*
X26112500Y-112274997D01*
G75*
G02*
X26362497Y-112025000I249997J0D01*
G01*
X27612503Y-112025000D01*
G75*
G02*
X27862500Y-112274997I0J-249997D01*
G01*
X27862500Y-112900003D01*
G75*
G02*
X27612503Y-113150000I-249997J0D01*
G01*
G37*
%TD.AperFunction*%
%TO.P,R1,2*%
%TO.N,Net-(R1-Pad2)*%
%TA.AperFunction,SMDPad,CuDef*%
G36*
G01*
X27612503Y-110225000D02*
X26362497Y-110225000D01*
G75*
G02*
X26112500Y-109975003I0J249997D01*
G01*
X26112500Y-109349997D01*
G75*
G02*
X26362497Y-109100000I249997J0D01*
G01*
X27612503Y-109100000D01*
G75*
G02*
X27862500Y-109349997I0J-249997D01*
G01*
X27862500Y-109975003D01*
G75*
G02*
X27612503Y-110225000I-249997J0D01*
G01*
G37*
%TD.AperFunction*%
%TD*%
%TO.P,R3,1*%
%TO.N,+5V*%
%TA.AperFunction,SMDPad,CuDef*%
G36*
G01*
X25282997Y-25282000D02*
X26533003Y-25282000D01*
G75*
G02*
X26783000Y-25531997I0J-249997D01*
G01*
X26783000Y-26157003D01*
G75*
G02*
X26533003Y-26407000I-249997J0D01*
G01*
X25282997Y-26407000D01*
G75*
G02*
X25033000Y-26157003I0J249997D01*
G01*
X25033000Y-25531997D01*
G75*
G02*
X25282997Y-25282000I249997J0D01*
G01*
G37*
%TD.AperFunction*%
%TO.P,R3,2*%
%TO.N,Net-(R3-Pad2)*%
%TA.AperFunction,SMDPad,CuDef*%
G36*
G01*
X25282997Y-28207000D02*
X26533003Y-28207000D01*
G75*
G02*
X26783000Y-28456997I0J-249997D01*
G01*
X26783000Y-29082003D01*
G75*
G02*
X26533003Y-29332000I-249997J0D01*
G01*
X25282997Y-29332000D01*
G75*
G02*
X25033000Y-29082003I0J249997D01*
G01*
X25033000Y-28456997D01*
G75*
G02*
X25282997Y-28207000I249997J0D01*
G01*
G37*
%TD.AperFunction*%
%TD*%
%TO.P,R4,1*%
%TO.N,Net-(R3-Pad2)*%
%TA.AperFunction,SMDPad,CuDef*%
G36*
G01*
X37855997Y-25280000D02*
X39106003Y-25280000D01*
G75*
G02*
X39356000Y-25529997I0J-249997D01*
G01*
X39356000Y-26155003D01*
G75*
G02*
X39106003Y-26405000I-249997J0D01*
G01*
X37855997Y-26405000D01*
G75*
G02*
X37606000Y-26155003I0J249997D01*
G01*
X37606000Y-25529997D01*
G75*
G02*
X37855997Y-25280000I249997J0D01*
G01*
G37*
%TD.AperFunction*%
%TO.P,R4,2*%
%TO.N,Net-(R4-Pad2)*%
%TA.AperFunction,SMDPad,CuDef*%
G36*
G01*
X37855997Y-28205000D02*
X39106003Y-28205000D01*
G75*
G02*
X39356000Y-28454997I0J-249997D01*
G01*
X39356000Y-29080003D01*
G75*
G02*
X39106003Y-29330000I-249997J0D01*
G01*
X37855997Y-29330000D01*
G75*
G02*
X37606000Y-29080003I0J249997D01*
G01*
X37606000Y-28454997D01*
G75*
G02*
X37855997Y-28205000I249997J0D01*
G01*
G37*
%TD.AperFunction*%
%TD*%
%TO.P,R5,1*%
%TO.N,Net-(R4-Pad2)*%
%TA.AperFunction,SMDPad,CuDef*%
G36*
G01*
X37855997Y-30866000D02*
X39106003Y-30866000D01*
G75*
G02*
X39356000Y-31115997I0J-249997D01*
G01*
X39356000Y-31741003D01*
G75*
G02*
X39106003Y-31991000I-249997J0D01*
G01*
X37855997Y-31991000D01*
G75*
G02*
X37606000Y-31741003I0J249997D01*
G01*
X37606000Y-31115997D01*
G75*
G02*
X37855997Y-30866000I249997J0D01*
G01*
G37*
%TD.AperFunction*%
%TO.P,R5,2*%
%TO.N,Net-(R5-Pad2)*%
%TA.AperFunction,SMDPad,CuDef*%
G36*
G01*
X37855997Y-33791000D02*
X39106003Y-33791000D01*
G75*
G02*
X39356000Y-34040997I0J-249997D01*
G01*
X39356000Y-34666003D01*
G75*
G02*
X39106003Y-34916000I-249997J0D01*
G01*
X37855997Y-34916000D01*
G75*
G02*
X37606000Y-34666003I0J249997D01*
G01*
X37606000Y-34040997D01*
G75*
G02*
X37855997Y-33791000I249997J0D01*
G01*
G37*
%TD.AperFunction*%
%TD*%
%TO.P,R6,2*%
%TO.N,Net-(R6-Pad2)*%
%TA.AperFunction,SMDPad,CuDef*%
G36*
G01*
X25282997Y-33793000D02*
X26533003Y-33793000D01*
G75*
G02*
X26783000Y-34042997I0J-249997D01*
G01*
X26783000Y-34668003D01*
G75*
G02*
X26533003Y-34918000I-249997J0D01*
G01*
X25282997Y-34918000D01*
G75*
G02*
X25033000Y-34668003I0J249997D01*
G01*
X25033000Y-34042997D01*
G75*
G02*
X25282997Y-33793000I249997J0D01*
G01*
G37*
%TD.AperFunction*%
%TO.P,R6,1*%
%TO.N,Net-(R5-Pad2)*%
%TA.AperFunction,SMDPad,CuDef*%
G36*
G01*
X25282997Y-30868000D02*
X26533003Y-30868000D01*
G75*
G02*
X26783000Y-31117997I0J-249997D01*
G01*
X26783000Y-31743003D01*
G75*
G02*
X26533003Y-31993000I-249997J0D01*
G01*
X25282997Y-31993000D01*
G75*
G02*
X25033000Y-31743003I0J249997D01*
G01*
X25033000Y-31117997D01*
G75*
G02*
X25282997Y-30868000I249997J0D01*
G01*
G37*
%TD.AperFunction*%
%TD*%
%TO.P,R7,1*%
%TO.N,Net-(R6-Pad2)*%
%TA.AperFunction,SMDPad,CuDef*%
G36*
G01*
X25282997Y-36456000D02*
X26533003Y-36456000D01*
G75*
G02*
X26783000Y-36705997I0J-249997D01*
G01*
X26783000Y-37331003D01*
G75*
G02*
X26533003Y-37581000I-249997J0D01*
G01*
X25282997Y-37581000D01*
G75*
G02*
X25033000Y-37331003I0J249997D01*
G01*
X25033000Y-36705997D01*
G75*
G02*
X25282997Y-36456000I249997J0D01*
G01*
G37*
%TD.AperFunction*%
%TO.P,R7,2*%
%TO.N,Net-(R7-Pad2)*%
%TA.AperFunction,SMDPad,CuDef*%
G36*
G01*
X25282997Y-39381000D02*
X26533003Y-39381000D01*
G75*
G02*
X26783000Y-39630997I0J-249997D01*
G01*
X26783000Y-40256003D01*
G75*
G02*
X26533003Y-40506000I-249997J0D01*
G01*
X25282997Y-40506000D01*
G75*
G02*
X25033000Y-40256003I0J249997D01*
G01*
X25033000Y-39630997D01*
G75*
G02*
X25282997Y-39381000I249997J0D01*
G01*
G37*
%TD.AperFunction*%
%TD*%
%TO.P,R8,1*%
%TO.N,Net-(R7-Pad2)*%
%TA.AperFunction,SMDPad,CuDef*%
G36*
G01*
X37855997Y-36456000D02*
X39106003Y-36456000D01*
G75*
G02*
X39356000Y-36705997I0J-249997D01*
G01*
X39356000Y-37331003D01*
G75*
G02*
X39106003Y-37581000I-249997J0D01*
G01*
X37855997Y-37581000D01*
G75*
G02*
X37606000Y-37331003I0J249997D01*
G01*
X37606000Y-36705997D01*
G75*
G02*
X37855997Y-36456000I249997J0D01*
G01*
G37*
%TD.AperFunction*%
%TO.P,R8,2*%
%TO.N,Net-(R8-Pad2)*%
%TA.AperFunction,SMDPad,CuDef*%
G36*
G01*
X37855997Y-39381000D02*
X39106003Y-39381000D01*
G75*
G02*
X39356000Y-39630997I0J-249997D01*
G01*
X39356000Y-40256003D01*
G75*
G02*
X39106003Y-40506000I-249997J0D01*
G01*
X37855997Y-40506000D01*
G75*
G02*
X37606000Y-40256003I0J249997D01*
G01*
X37606000Y-39630997D01*
G75*
G02*
X37855997Y-39381000I249997J0D01*
G01*
G37*
%TD.AperFunction*%
%TD*%
%TO.P,R9,1*%
%TO.N,Net-(R8-Pad2)*%
%TA.AperFunction,SMDPad,CuDef*%
G36*
G01*
X37855997Y-42042000D02*
X39106003Y-42042000D01*
G75*
G02*
X39356000Y-42291997I0J-249997D01*
G01*
X39356000Y-42917003D01*
G75*
G02*
X39106003Y-43167000I-249997J0D01*
G01*
X37855997Y-43167000D01*
G75*
G02*
X37606000Y-42917003I0J249997D01*
G01*
X37606000Y-42291997D01*
G75*
G02*
X37855997Y-42042000I249997J0D01*
G01*
G37*
%TD.AperFunction*%
%TO.P,R9,2*%
%TO.N,Net-(R10-Pad1)*%
%TA.AperFunction,SMDPad,CuDef*%
G36*
G01*
X37855997Y-44967000D02*
X39106003Y-44967000D01*
G75*
G02*
X39356000Y-45216997I0J-249997D01*
G01*
X39356000Y-45842003D01*
G75*
G02*
X39106003Y-46092000I-249997J0D01*
G01*
X37855997Y-46092000D01*
G75*
G02*
X37606000Y-45842003I0J249997D01*
G01*
X37606000Y-45216997D01*
G75*
G02*
X37855997Y-44967000I249997J0D01*
G01*
G37*
%TD.AperFunction*%
%TD*%
%TO.P,R10,1*%
%TO.N,Net-(R10-Pad1)*%
%TA.AperFunction,SMDPad,CuDef*%
G36*
G01*
X25282997Y-42044000D02*
X26533003Y-42044000D01*
G75*
G02*
X26783000Y-42293997I0J-249997D01*
G01*
X26783000Y-42919003D01*
G75*
G02*
X26533003Y-43169000I-249997J0D01*
G01*
X25282997Y-43169000D01*
G75*
G02*
X25033000Y-42919003I0J249997D01*
G01*
X25033000Y-42293997D01*
G75*
G02*
X25282997Y-42044000I249997J0D01*
G01*
G37*
%TD.AperFunction*%
%TO.P,R10,2*%
%TO.N,Net-(R10-Pad2)*%
%TA.AperFunction,SMDPad,CuDef*%
G36*
G01*
X25282997Y-44969000D02*
X26533003Y-44969000D01*
G75*
G02*
X26783000Y-45218997I0J-249997D01*
G01*
X26783000Y-45844003D01*
G75*
G02*
X26533003Y-46094000I-249997J0D01*
G01*
X25282997Y-46094000D01*
G75*
G02*
X25033000Y-45844003I0J249997D01*
G01*
X25033000Y-45218997D01*
G75*
G02*
X25282997Y-44969000I249997J0D01*
G01*
G37*
%TD.AperFunction*%
%TD*%
%TO.P,R11,1*%
%TO.N,Net-(R10-Pad2)*%
%TA.AperFunction,SMDPad,CuDef*%
G36*
G01*
X25282997Y-47632000D02*
X26533003Y-47632000D01*
G75*
G02*
X26783000Y-47881997I0J-249997D01*
G01*
X26783000Y-48507003D01*
G75*
G02*
X26533003Y-48757000I-249997J0D01*
G01*
X25282997Y-48757000D01*
G75*
G02*
X25033000Y-48507003I0J249997D01*
G01*
X25033000Y-47881997D01*
G75*
G02*
X25282997Y-47632000I249997J0D01*
G01*
G37*
%TD.AperFunction*%
%TO.P,R11,2*%
%TO.N,Net-(R11-Pad2)*%
%TA.AperFunction,SMDPad,CuDef*%
G36*
G01*
X25282997Y-50557000D02*
X26533003Y-50557000D01*
G75*
G02*
X26783000Y-50806997I0J-249997D01*
G01*
X26783000Y-51432003D01*
G75*
G02*
X26533003Y-51682000I-249997J0D01*
G01*
X25282997Y-51682000D01*
G75*
G02*
X25033000Y-51432003I0J249997D01*
G01*
X25033000Y-50806997D01*
G75*
G02*
X25282997Y-50557000I249997J0D01*
G01*
G37*
%TD.AperFunction*%
%TD*%
%TO.P,R12,2*%
%TO.N,Net-(R12-Pad2)*%
%TA.AperFunction,SMDPad,CuDef*%
G36*
G01*
X37855997Y-50557000D02*
X39106003Y-50557000D01*
G75*
G02*
X39356000Y-50806997I0J-249997D01*
G01*
X39356000Y-51432003D01*
G75*
G02*
X39106003Y-51682000I-249997J0D01*
G01*
X37855997Y-51682000D01*
G75*
G02*
X37606000Y-51432003I0J249997D01*
G01*
X37606000Y-50806997D01*
G75*
G02*
X37855997Y-50557000I249997J0D01*
G01*
G37*
%TD.AperFunction*%
%TO.P,R12,1*%
%TO.N,Net-(R11-Pad2)*%
%TA.AperFunction,SMDPad,CuDef*%
G36*
G01*
X37855997Y-47632000D02*
X39106003Y-47632000D01*
G75*
G02*
X39356000Y-47881997I0J-249997D01*
G01*
X39356000Y-48507003D01*
G75*
G02*
X39106003Y-48757000I-249997J0D01*
G01*
X37855997Y-48757000D01*
G75*
G02*
X37606000Y-48507003I0J249997D01*
G01*
X37606000Y-47881997D01*
G75*
G02*
X37855997Y-47632000I249997J0D01*
G01*
G37*
%TD.AperFunction*%
%TD*%
%TO.P,R13,2*%
%TO.N,Net-(R13-Pad2)*%
%TA.AperFunction,SMDPad,CuDef*%
G36*
G01*
X27949997Y-28203000D02*
X29200003Y-28203000D01*
G75*
G02*
X29450000Y-28452997I0J-249997D01*
G01*
X29450000Y-29078003D01*
G75*
G02*
X29200003Y-29328000I-249997J0D01*
G01*
X27949997Y-29328000D01*
G75*
G02*
X27700000Y-29078003I0J249997D01*
G01*
X27700000Y-28452997D01*
G75*
G02*
X27949997Y-28203000I249997J0D01*
G01*
G37*
%TD.AperFunction*%
%TO.P,R13,1*%
%TO.N,Net-(D1-Pad2)*%
%TA.AperFunction,SMDPad,CuDef*%
G36*
G01*
X27949997Y-25278000D02*
X29200003Y-25278000D01*
G75*
G02*
X29450000Y-25527997I0J-249997D01*
G01*
X29450000Y-26153003D01*
G75*
G02*
X29200003Y-26403000I-249997J0D01*
G01*
X27949997Y-26403000D01*
G75*
G02*
X27700000Y-26153003I0J249997D01*
G01*
X27700000Y-25527997D01*
G75*
G02*
X27949997Y-25278000I249997J0D01*
G01*
G37*
%TD.AperFunction*%
%TD*%
%TO.P,R14,1*%
%TO.N,Net-(D2-Pad2)*%
%TA.AperFunction,SMDPad,CuDef*%
G36*
G01*
X36439003Y-29330000D02*
X35188997Y-29330000D01*
G75*
G02*
X34939000Y-29080003I0J249997D01*
G01*
X34939000Y-28454997D01*
G75*
G02*
X35188997Y-28205000I249997J0D01*
G01*
X36439003Y-28205000D01*
G75*
G02*
X36689000Y-28454997I0J-249997D01*
G01*
X36689000Y-29080003D01*
G75*
G02*
X36439003Y-29330000I-249997J0D01*
G01*
G37*
%TD.AperFunction*%
%TO.P,R14,2*%
%TO.N,Net-(R14-Pad2)*%
%TA.AperFunction,SMDPad,CuDef*%
G36*
G01*
X36439003Y-26405000D02*
X35188997Y-26405000D01*
G75*
G02*
X34939000Y-26155003I0J249997D01*
G01*
X34939000Y-25529997D01*
G75*
G02*
X35188997Y-25280000I249997J0D01*
G01*
X36439003Y-25280000D01*
G75*
G02*
X36689000Y-25529997I0J-249997D01*
G01*
X36689000Y-26155003D01*
G75*
G02*
X36439003Y-26405000I-249997J0D01*
G01*
G37*
%TD.AperFunction*%
%TD*%
%TO.P,R15,2*%
%TO.N,Net-(R15-Pad2)*%
%TA.AperFunction,SMDPad,CuDef*%
G36*
G01*
X35188997Y-33791000D02*
X36439003Y-33791000D01*
G75*
G02*
X36689000Y-34040997I0J-249997D01*
G01*
X36689000Y-34666003D01*
G75*
G02*
X36439003Y-34916000I-249997J0D01*
G01*
X35188997Y-34916000D01*
G75*
G02*
X34939000Y-34666003I0J249997D01*
G01*
X34939000Y-34040997D01*
G75*
G02*
X35188997Y-33791000I249997J0D01*
G01*
G37*
%TD.AperFunction*%
%TO.P,R15,1*%
%TO.N,Net-(D3-Pad2)*%
%TA.AperFunction,SMDPad,CuDef*%
G36*
G01*
X35188997Y-30866000D02*
X36439003Y-30866000D01*
G75*
G02*
X36689000Y-31115997I0J-249997D01*
G01*
X36689000Y-31741003D01*
G75*
G02*
X36439003Y-31991000I-249997J0D01*
G01*
X35188997Y-31991000D01*
G75*
G02*
X34939000Y-31741003I0J249997D01*
G01*
X34939000Y-31115997D01*
G75*
G02*
X35188997Y-30866000I249997J0D01*
G01*
G37*
%TD.AperFunction*%
%TD*%
%TO.P,R16,1*%
%TO.N,Net-(D4-Pad2)*%
%TA.AperFunction,SMDPad,CuDef*%
G36*
G01*
X29200003Y-34918000D02*
X27949997Y-34918000D01*
G75*
G02*
X27700000Y-34668003I0J249997D01*
G01*
X27700000Y-34042997D01*
G75*
G02*
X27949997Y-33793000I249997J0D01*
G01*
X29200003Y-33793000D01*
G75*
G02*
X29450000Y-34042997I0J-249997D01*
G01*
X29450000Y-34668003D01*
G75*
G02*
X29200003Y-34918000I-249997J0D01*
G01*
G37*
%TD.AperFunction*%
%TO.P,R16,2*%
%TO.N,Net-(R16-Pad2)*%
%TA.AperFunction,SMDPad,CuDef*%
G36*
G01*
X29200003Y-31993000D02*
X27949997Y-31993000D01*
G75*
G02*
X27700000Y-31743003I0J249997D01*
G01*
X27700000Y-31117997D01*
G75*
G02*
X27949997Y-30868000I249997J0D01*
G01*
X29200003Y-30868000D01*
G75*
G02*
X29450000Y-31117997I0J-249997D01*
G01*
X29450000Y-31743003D01*
G75*
G02*
X29200003Y-31993000I-249997J0D01*
G01*
G37*
%TD.AperFunction*%
%TD*%
%TO.P,R17,1*%
%TO.N,Net-(D5-Pad2)*%
%TA.AperFunction,SMDPad,CuDef*%
G36*
G01*
X27949997Y-36456000D02*
X29200003Y-36456000D01*
G75*
G02*
X29450000Y-36705997I0J-249997D01*
G01*
X29450000Y-37331003D01*
G75*
G02*
X29200003Y-37581000I-249997J0D01*
G01*
X27949997Y-37581000D01*
G75*
G02*
X27700000Y-37331003I0J249997D01*
G01*
X27700000Y-36705997D01*
G75*
G02*
X27949997Y-36456000I249997J0D01*
G01*
G37*
%TD.AperFunction*%
%TO.P,R17,2*%
%TO.N,Net-(R17-Pad2)*%
%TA.AperFunction,SMDPad,CuDef*%
G36*
G01*
X27949997Y-39381000D02*
X29200003Y-39381000D01*
G75*
G02*
X29450000Y-39630997I0J-249997D01*
G01*
X29450000Y-40256003D01*
G75*
G02*
X29200003Y-40506000I-249997J0D01*
G01*
X27949997Y-40506000D01*
G75*
G02*
X27700000Y-40256003I0J249997D01*
G01*
X27700000Y-39630997D01*
G75*
G02*
X27949997Y-39381000I249997J0D01*
G01*
G37*
%TD.AperFunction*%
%TD*%
%TO.P,R18,1*%
%TO.N,Net-(D6-Pad2)*%
%TA.AperFunction,SMDPad,CuDef*%
G36*
G01*
X36439003Y-40506000D02*
X35188997Y-40506000D01*
G75*
G02*
X34939000Y-40256003I0J249997D01*
G01*
X34939000Y-39630997D01*
G75*
G02*
X35188997Y-39381000I249997J0D01*
G01*
X36439003Y-39381000D01*
G75*
G02*
X36689000Y-39630997I0J-249997D01*
G01*
X36689000Y-40256003D01*
G75*
G02*
X36439003Y-40506000I-249997J0D01*
G01*
G37*
%TD.AperFunction*%
%TO.P,R18,2*%
%TO.N,Net-(R18-Pad2)*%
%TA.AperFunction,SMDPad,CuDef*%
G36*
G01*
X36439003Y-37581000D02*
X35188997Y-37581000D01*
G75*
G02*
X34939000Y-37331003I0J249997D01*
G01*
X34939000Y-36705997D01*
G75*
G02*
X35188997Y-36456000I249997J0D01*
G01*
X36439003Y-36456000D01*
G75*
G02*
X36689000Y-36705997I0J-249997D01*
G01*
X36689000Y-37331003D01*
G75*
G02*
X36439003Y-37581000I-249997J0D01*
G01*
G37*
%TD.AperFunction*%
%TD*%
%TO.P,R19,1*%
%TO.N,Net-(D7-Pad2)*%
%TA.AperFunction,SMDPad,CuDef*%
G36*
G01*
X35188997Y-42042000D02*
X36439003Y-42042000D01*
G75*
G02*
X36689000Y-42291997I0J-249997D01*
G01*
X36689000Y-42917003D01*
G75*
G02*
X36439003Y-43167000I-249997J0D01*
G01*
X35188997Y-43167000D01*
G75*
G02*
X34939000Y-42917003I0J249997D01*
G01*
X34939000Y-42291997D01*
G75*
G02*
X35188997Y-42042000I249997J0D01*
G01*
G37*
%TD.AperFunction*%
%TO.P,R19,2*%
%TO.N,Net-(R19-Pad2)*%
%TA.AperFunction,SMDPad,CuDef*%
G36*
G01*
X35188997Y-44967000D02*
X36439003Y-44967000D01*
G75*
G02*
X36689000Y-45216997I0J-249997D01*
G01*
X36689000Y-45842003D01*
G75*
G02*
X36439003Y-46092000I-249997J0D01*
G01*
X35188997Y-46092000D01*
G75*
G02*
X34939000Y-45842003I0J249997D01*
G01*
X34939000Y-45216997D01*
G75*
G02*
X35188997Y-44967000I249997J0D01*
G01*
G37*
%TD.AperFunction*%
%TD*%
%TO.P,R20,2*%
%TO.N,Net-(R20-Pad2)*%
%TA.AperFunction,SMDPad,CuDef*%
G36*
G01*
X29200003Y-43169000D02*
X27949997Y-43169000D01*
G75*
G02*
X27700000Y-42919003I0J249997D01*
G01*
X27700000Y-42293997D01*
G75*
G02*
X27949997Y-42044000I249997J0D01*
G01*
X29200003Y-42044000D01*
G75*
G02*
X29450000Y-42293997I0J-249997D01*
G01*
X29450000Y-42919003D01*
G75*
G02*
X29200003Y-43169000I-249997J0D01*
G01*
G37*
%TD.AperFunction*%
%TO.P,R20,1*%
%TO.N,Net-(D8-Pad2)*%
%TA.AperFunction,SMDPad,CuDef*%
G36*
G01*
X29200003Y-46094000D02*
X27949997Y-46094000D01*
G75*
G02*
X27700000Y-45844003I0J249997D01*
G01*
X27700000Y-45218997D01*
G75*
G02*
X27949997Y-44969000I249997J0D01*
G01*
X29200003Y-44969000D01*
G75*
G02*
X29450000Y-45218997I0J-249997D01*
G01*
X29450000Y-45844003D01*
G75*
G02*
X29200003Y-46094000I-249997J0D01*
G01*
G37*
%TD.AperFunction*%
%TD*%
%TO.P,R21,1*%
%TO.N,Net-(D9-Pad2)*%
%TA.AperFunction,SMDPad,CuDef*%
G36*
G01*
X27949997Y-47632000D02*
X29200003Y-47632000D01*
G75*
G02*
X29450000Y-47881997I0J-249997D01*
G01*
X29450000Y-48507003D01*
G75*
G02*
X29200003Y-48757000I-249997J0D01*
G01*
X27949997Y-48757000D01*
G75*
G02*
X27700000Y-48507003I0J249997D01*
G01*
X27700000Y-47881997D01*
G75*
G02*
X27949997Y-47632000I249997J0D01*
G01*
G37*
%TD.AperFunction*%
%TO.P,R21,2*%
%TO.N,Net-(R21-Pad2)*%
%TA.AperFunction,SMDPad,CuDef*%
G36*
G01*
X27949997Y-50557000D02*
X29200003Y-50557000D01*
G75*
G02*
X29450000Y-50806997I0J-249997D01*
G01*
X29450000Y-51432003D01*
G75*
G02*
X29200003Y-51682000I-249997J0D01*
G01*
X27949997Y-51682000D01*
G75*
G02*
X27700000Y-51432003I0J249997D01*
G01*
X27700000Y-50806997D01*
G75*
G02*
X27949997Y-50557000I249997J0D01*
G01*
G37*
%TD.AperFunction*%
%TD*%
%TO.P,R22,2*%
%TO.N,Net-(R22-Pad2)*%
%TA.AperFunction,SMDPad,CuDef*%
G36*
G01*
X36439003Y-48757000D02*
X35188997Y-48757000D01*
G75*
G02*
X34939000Y-48507003I0J249997D01*
G01*
X34939000Y-47881997D01*
G75*
G02*
X35188997Y-47632000I249997J0D01*
G01*
X36439003Y-47632000D01*
G75*
G02*
X36689000Y-47881997I0J-249997D01*
G01*
X36689000Y-48507003D01*
G75*
G02*
X36439003Y-48757000I-249997J0D01*
G01*
G37*
%TD.AperFunction*%
%TO.P,R22,1*%
%TO.N,Net-(D10-Pad2)*%
%TA.AperFunction,SMDPad,CuDef*%
G36*
G01*
X36439003Y-51682000D02*
X35188997Y-51682000D01*
G75*
G02*
X34939000Y-51432003I0J249997D01*
G01*
X34939000Y-50806997D01*
G75*
G02*
X35188997Y-50557000I249997J0D01*
G01*
X36439003Y-50557000D01*
G75*
G02*
X36689000Y-50806997I0J-249997D01*
G01*
X36689000Y-51432003D01*
G75*
G02*
X36439003Y-51682000I-249997J0D01*
G01*
G37*
%TD.AperFunction*%
%TD*%
%TO.P,R23,1*%
%TO.N,Net-(R12-Pad2)*%
%TA.AperFunction,SMDPad,CuDef*%
G36*
G01*
X37855997Y-53220000D02*
X39106003Y-53220000D01*
G75*
G02*
X39356000Y-53469997I0J-249997D01*
G01*
X39356000Y-54095003D01*
G75*
G02*
X39106003Y-54345000I-249997J0D01*
G01*
X37855997Y-54345000D01*
G75*
G02*
X37606000Y-54095003I0J249997D01*
G01*
X37606000Y-53469997D01*
G75*
G02*
X37855997Y-53220000I249997J0D01*
G01*
G37*
%TD.AperFunction*%
%TO.P,R23,2*%
%TO.N,Net-(R23-Pad2)*%
%TA.AperFunction,SMDPad,CuDef*%
G36*
G01*
X37855997Y-56145000D02*
X39106003Y-56145000D01*
G75*
G02*
X39356000Y-56394997I0J-249997D01*
G01*
X39356000Y-57020003D01*
G75*
G02*
X39106003Y-57270000I-249997J0D01*
G01*
X37855997Y-57270000D01*
G75*
G02*
X37606000Y-57020003I0J249997D01*
G01*
X37606000Y-56394997D01*
G75*
G02*
X37855997Y-56145000I249997J0D01*
G01*
G37*
%TD.AperFunction*%
%TD*%
%TO.P,R24,2*%
%TO.N,Net-(R24-Pad2)*%
%TA.AperFunction,SMDPad,CuDef*%
G36*
G01*
X25282997Y-56145000D02*
X26533003Y-56145000D01*
G75*
G02*
X26783000Y-56394997I0J-249997D01*
G01*
X26783000Y-57020003D01*
G75*
G02*
X26533003Y-57270000I-249997J0D01*
G01*
X25282997Y-57270000D01*
G75*
G02*
X25033000Y-57020003I0J249997D01*
G01*
X25033000Y-56394997D01*
G75*
G02*
X25282997Y-56145000I249997J0D01*
G01*
G37*
%TD.AperFunction*%
%TO.P,R24,1*%
%TO.N,Net-(R23-Pad2)*%
%TA.AperFunction,SMDPad,CuDef*%
G36*
G01*
X25282997Y-53220000D02*
X26533003Y-53220000D01*
G75*
G02*
X26783000Y-53469997I0J-249997D01*
G01*
X26783000Y-54095003D01*
G75*
G02*
X26533003Y-54345000I-249997J0D01*
G01*
X25282997Y-54345000D01*
G75*
G02*
X25033000Y-54095003I0J249997D01*
G01*
X25033000Y-53469997D01*
G75*
G02*
X25282997Y-53220000I249997J0D01*
G01*
G37*
%TD.AperFunction*%
%TD*%
%TO.P,R25,1*%
%TO.N,Net-(R24-Pad2)*%
%TA.AperFunction,SMDPad,CuDef*%
G36*
G01*
X25282997Y-58808000D02*
X26533003Y-58808000D01*
G75*
G02*
X26783000Y-59057997I0J-249997D01*
G01*
X26783000Y-59683003D01*
G75*
G02*
X26533003Y-59933000I-249997J0D01*
G01*
X25282997Y-59933000D01*
G75*
G02*
X25033000Y-59683003I0J249997D01*
G01*
X25033000Y-59057997D01*
G75*
G02*
X25282997Y-58808000I249997J0D01*
G01*
G37*
%TD.AperFunction*%
%TO.P,R25,2*%
%TO.N,Net-(R25-Pad2)*%
%TA.AperFunction,SMDPad,CuDef*%
G36*
G01*
X25282997Y-61733000D02*
X26533003Y-61733000D01*
G75*
G02*
X26783000Y-61982997I0J-249997D01*
G01*
X26783000Y-62608003D01*
G75*
G02*
X26533003Y-62858000I-249997J0D01*
G01*
X25282997Y-62858000D01*
G75*
G02*
X25033000Y-62608003I0J249997D01*
G01*
X25033000Y-61982997D01*
G75*
G02*
X25282997Y-61733000I249997J0D01*
G01*
G37*
%TD.AperFunction*%
%TD*%
%TO.P,R26,1*%
%TO.N,Net-(R25-Pad2)*%
%TA.AperFunction,SMDPad,CuDef*%
G36*
G01*
X37855997Y-58808000D02*
X39106003Y-58808000D01*
G75*
G02*
X39356000Y-59057997I0J-249997D01*
G01*
X39356000Y-59683003D01*
G75*
G02*
X39106003Y-59933000I-249997J0D01*
G01*
X37855997Y-59933000D01*
G75*
G02*
X37606000Y-59683003I0J249997D01*
G01*
X37606000Y-59057997D01*
G75*
G02*
X37855997Y-58808000I249997J0D01*
G01*
G37*
%TD.AperFunction*%
%TO.P,R26,2*%
%TO.N,Net-(R26-Pad2)*%
%TA.AperFunction,SMDPad,CuDef*%
G36*
G01*
X37855997Y-61733000D02*
X39106003Y-61733000D01*
G75*
G02*
X39356000Y-61982997I0J-249997D01*
G01*
X39356000Y-62608003D01*
G75*
G02*
X39106003Y-62858000I-249997J0D01*
G01*
X37855997Y-62858000D01*
G75*
G02*
X37606000Y-62608003I0J249997D01*
G01*
X37606000Y-61982997D01*
G75*
G02*
X37855997Y-61733000I249997J0D01*
G01*
G37*
%TD.AperFunction*%
%TD*%
%TO.P,R27,2*%
%TO.N,Net-(R27-Pad2)*%
%TA.AperFunction,SMDPad,CuDef*%
G36*
G01*
X37855997Y-67323000D02*
X39106003Y-67323000D01*
G75*
G02*
X39356000Y-67572997I0J-249997D01*
G01*
X39356000Y-68198003D01*
G75*
G02*
X39106003Y-68448000I-249997J0D01*
G01*
X37855997Y-68448000D01*
G75*
G02*
X37606000Y-68198003I0J249997D01*
G01*
X37606000Y-67572997D01*
G75*
G02*
X37855997Y-67323000I249997J0D01*
G01*
G37*
%TD.AperFunction*%
%TO.P,R27,1*%
%TO.N,Net-(R26-Pad2)*%
%TA.AperFunction,SMDPad,CuDef*%
G36*
G01*
X37855997Y-64398000D02*
X39106003Y-64398000D01*
G75*
G02*
X39356000Y-64647997I0J-249997D01*
G01*
X39356000Y-65273003D01*
G75*
G02*
X39106003Y-65523000I-249997J0D01*
G01*
X37855997Y-65523000D01*
G75*
G02*
X37606000Y-65273003I0J249997D01*
G01*
X37606000Y-64647997D01*
G75*
G02*
X37855997Y-64398000I249997J0D01*
G01*
G37*
%TD.AperFunction*%
%TD*%
%TO.P,R28,2*%
%TO.N,Net-(R28-Pad2)*%
%TA.AperFunction,SMDPad,CuDef*%
G36*
G01*
X25282997Y-67321000D02*
X26533003Y-67321000D01*
G75*
G02*
X26783000Y-67570997I0J-249997D01*
G01*
X26783000Y-68196003D01*
G75*
G02*
X26533003Y-68446000I-249997J0D01*
G01*
X25282997Y-68446000D01*
G75*
G02*
X25033000Y-68196003I0J249997D01*
G01*
X25033000Y-67570997D01*
G75*
G02*
X25282997Y-67321000I249997J0D01*
G01*
G37*
%TD.AperFunction*%
%TO.P,R28,1*%
%TO.N,Net-(R27-Pad2)*%
%TA.AperFunction,SMDPad,CuDef*%
G36*
G01*
X25282997Y-64396000D02*
X26533003Y-64396000D01*
G75*
G02*
X26783000Y-64645997I0J-249997D01*
G01*
X26783000Y-65271003D01*
G75*
G02*
X26533003Y-65521000I-249997J0D01*
G01*
X25282997Y-65521000D01*
G75*
G02*
X25033000Y-65271003I0J249997D01*
G01*
X25033000Y-64645997D01*
G75*
G02*
X25282997Y-64396000I249997J0D01*
G01*
G37*
%TD.AperFunction*%
%TD*%
%TO.P,R29,1*%
%TO.N,Net-(R28-Pad2)*%
%TA.AperFunction,SMDPad,CuDef*%
G36*
G01*
X25282997Y-69984000D02*
X26533003Y-69984000D01*
G75*
G02*
X26783000Y-70233997I0J-249997D01*
G01*
X26783000Y-70859003D01*
G75*
G02*
X26533003Y-71109000I-249997J0D01*
G01*
X25282997Y-71109000D01*
G75*
G02*
X25033000Y-70859003I0J249997D01*
G01*
X25033000Y-70233997D01*
G75*
G02*
X25282997Y-69984000I249997J0D01*
G01*
G37*
%TD.AperFunction*%
%TO.P,R29,2*%
%TO.N,Net-(R29-Pad2)*%
%TA.AperFunction,SMDPad,CuDef*%
G36*
G01*
X25282997Y-72909000D02*
X26533003Y-72909000D01*
G75*
G02*
X26783000Y-73158997I0J-249997D01*
G01*
X26783000Y-73784003D01*
G75*
G02*
X26533003Y-74034000I-249997J0D01*
G01*
X25282997Y-74034000D01*
G75*
G02*
X25033000Y-73784003I0J249997D01*
G01*
X25033000Y-73158997D01*
G75*
G02*
X25282997Y-72909000I249997J0D01*
G01*
G37*
%TD.AperFunction*%
%TD*%
%TO.P,R30,2*%
%TO.N,Net-(R30-Pad2)*%
%TA.AperFunction,SMDPad,CuDef*%
G36*
G01*
X37855997Y-72911000D02*
X39106003Y-72911000D01*
G75*
G02*
X39356000Y-73160997I0J-249997D01*
G01*
X39356000Y-73786003D01*
G75*
G02*
X39106003Y-74036000I-249997J0D01*
G01*
X37855997Y-74036000D01*
G75*
G02*
X37606000Y-73786003I0J249997D01*
G01*
X37606000Y-73160997D01*
G75*
G02*
X37855997Y-72911000I249997J0D01*
G01*
G37*
%TD.AperFunction*%
%TO.P,R30,1*%
%TO.N,Net-(R29-Pad2)*%
%TA.AperFunction,SMDPad,CuDef*%
G36*
G01*
X37855997Y-69986000D02*
X39106003Y-69986000D01*
G75*
G02*
X39356000Y-70235997I0J-249997D01*
G01*
X39356000Y-70861003D01*
G75*
G02*
X39106003Y-71111000I-249997J0D01*
G01*
X37855997Y-71111000D01*
G75*
G02*
X37606000Y-70861003I0J249997D01*
G01*
X37606000Y-70235997D01*
G75*
G02*
X37855997Y-69986000I249997J0D01*
G01*
G37*
%TD.AperFunction*%
%TD*%
%TO.P,R31,2*%
%TO.N,Net-(R31-Pad2)*%
%TA.AperFunction,SMDPad,CuDef*%
G36*
G01*
X37855997Y-78497000D02*
X39106003Y-78497000D01*
G75*
G02*
X39356000Y-78746997I0J-249997D01*
G01*
X39356000Y-79372003D01*
G75*
G02*
X39106003Y-79622000I-249997J0D01*
G01*
X37855997Y-79622000D01*
G75*
G02*
X37606000Y-79372003I0J249997D01*
G01*
X37606000Y-78746997D01*
G75*
G02*
X37855997Y-78497000I249997J0D01*
G01*
G37*
%TD.AperFunction*%
%TO.P,R31,1*%
%TO.N,Net-(R30-Pad2)*%
%TA.AperFunction,SMDPad,CuDef*%
G36*
G01*
X37855997Y-75572000D02*
X39106003Y-75572000D01*
G75*
G02*
X39356000Y-75821997I0J-249997D01*
G01*
X39356000Y-76447003D01*
G75*
G02*
X39106003Y-76697000I-249997J0D01*
G01*
X37855997Y-76697000D01*
G75*
G02*
X37606000Y-76447003I0J249997D01*
G01*
X37606000Y-75821997D01*
G75*
G02*
X37855997Y-75572000I249997J0D01*
G01*
G37*
%TD.AperFunction*%
%TD*%
%TO.P,R32,1*%
%TO.N,Net-(R31-Pad2)*%
%TA.AperFunction,SMDPad,CuDef*%
G36*
G01*
X25282997Y-75572000D02*
X26533003Y-75572000D01*
G75*
G02*
X26783000Y-75821997I0J-249997D01*
G01*
X26783000Y-76447003D01*
G75*
G02*
X26533003Y-76697000I-249997J0D01*
G01*
X25282997Y-76697000D01*
G75*
G02*
X25033000Y-76447003I0J249997D01*
G01*
X25033000Y-75821997D01*
G75*
G02*
X25282997Y-75572000I249997J0D01*
G01*
G37*
%TD.AperFunction*%
%TO.P,R32,2*%
%TO.N,Net-(R32-Pad2)*%
%TA.AperFunction,SMDPad,CuDef*%
G36*
G01*
X25282997Y-78497000D02*
X26533003Y-78497000D01*
G75*
G02*
X26783000Y-78746997I0J-249997D01*
G01*
X26783000Y-79372003D01*
G75*
G02*
X26533003Y-79622000I-249997J0D01*
G01*
X25282997Y-79622000D01*
G75*
G02*
X25033000Y-79372003I0J249997D01*
G01*
X25033000Y-78746997D01*
G75*
G02*
X25282997Y-78497000I249997J0D01*
G01*
G37*
%TD.AperFunction*%
%TD*%
%TO.P,R33,1*%
%TO.N,Net-(D11-Pad2)*%
%TA.AperFunction,SMDPad,CuDef*%
G36*
G01*
X35188997Y-53220000D02*
X36439003Y-53220000D01*
G75*
G02*
X36689000Y-53469997I0J-249997D01*
G01*
X36689000Y-54095003D01*
G75*
G02*
X36439003Y-54345000I-249997J0D01*
G01*
X35188997Y-54345000D01*
G75*
G02*
X34939000Y-54095003I0J249997D01*
G01*
X34939000Y-53469997D01*
G75*
G02*
X35188997Y-53220000I249997J0D01*
G01*
G37*
%TD.AperFunction*%
%TO.P,R33,2*%
%TO.N,Net-(R33-Pad2)*%
%TA.AperFunction,SMDPad,CuDef*%
G36*
G01*
X35188997Y-56145000D02*
X36439003Y-56145000D01*
G75*
G02*
X36689000Y-56394997I0J-249997D01*
G01*
X36689000Y-57020003D01*
G75*
G02*
X36439003Y-57270000I-249997J0D01*
G01*
X35188997Y-57270000D01*
G75*
G02*
X34939000Y-57020003I0J249997D01*
G01*
X34939000Y-56394997D01*
G75*
G02*
X35188997Y-56145000I249997J0D01*
G01*
G37*
%TD.AperFunction*%
%TD*%
%TO.P,R34,2*%
%TO.N,Net-(R34-Pad2)*%
%TA.AperFunction,SMDPad,CuDef*%
G36*
G01*
X29200003Y-54345000D02*
X27949997Y-54345000D01*
G75*
G02*
X27700000Y-54095003I0J249997D01*
G01*
X27700000Y-53469997D01*
G75*
G02*
X27949997Y-53220000I249997J0D01*
G01*
X29200003Y-53220000D01*
G75*
G02*
X29450000Y-53469997I0J-249997D01*
G01*
X29450000Y-54095003D01*
G75*
G02*
X29200003Y-54345000I-249997J0D01*
G01*
G37*
%TD.AperFunction*%
%TO.P,R34,1*%
%TO.N,Net-(D12-Pad2)*%
%TA.AperFunction,SMDPad,CuDef*%
G36*
G01*
X29200003Y-57270000D02*
X27949997Y-57270000D01*
G75*
G02*
X27700000Y-57020003I0J249997D01*
G01*
X27700000Y-56394997D01*
G75*
G02*
X27949997Y-56145000I249997J0D01*
G01*
X29200003Y-56145000D01*
G75*
G02*
X29450000Y-56394997I0J-249997D01*
G01*
X29450000Y-57020003D01*
G75*
G02*
X29200003Y-57270000I-249997J0D01*
G01*
G37*
%TD.AperFunction*%
%TD*%
%TO.P,R35,1*%
%TO.N,Net-(D13-Pad2)*%
%TA.AperFunction,SMDPad,CuDef*%
G36*
G01*
X27949997Y-58808000D02*
X29200003Y-58808000D01*
G75*
G02*
X29450000Y-59057997I0J-249997D01*
G01*
X29450000Y-59683003D01*
G75*
G02*
X29200003Y-59933000I-249997J0D01*
G01*
X27949997Y-59933000D01*
G75*
G02*
X27700000Y-59683003I0J249997D01*
G01*
X27700000Y-59057997D01*
G75*
G02*
X27949997Y-58808000I249997J0D01*
G01*
G37*
%TD.AperFunction*%
%TO.P,R35,2*%
%TO.N,Net-(R35-Pad2)*%
%TA.AperFunction,SMDPad,CuDef*%
G36*
G01*
X27949997Y-61733000D02*
X29200003Y-61733000D01*
G75*
G02*
X29450000Y-61982997I0J-249997D01*
G01*
X29450000Y-62608003D01*
G75*
G02*
X29200003Y-62858000I-249997J0D01*
G01*
X27949997Y-62858000D01*
G75*
G02*
X27700000Y-62608003I0J249997D01*
G01*
X27700000Y-61982997D01*
G75*
G02*
X27949997Y-61733000I249997J0D01*
G01*
G37*
%TD.AperFunction*%
%TD*%
%TO.P,R36,2*%
%TO.N,Net-(R36-Pad2)*%
%TA.AperFunction,SMDPad,CuDef*%
G36*
G01*
X36439003Y-59933000D02*
X35188997Y-59933000D01*
G75*
G02*
X34939000Y-59683003I0J249997D01*
G01*
X34939000Y-59057997D01*
G75*
G02*
X35188997Y-58808000I249997J0D01*
G01*
X36439003Y-58808000D01*
G75*
G02*
X36689000Y-59057997I0J-249997D01*
G01*
X36689000Y-59683003D01*
G75*
G02*
X36439003Y-59933000I-249997J0D01*
G01*
G37*
%TD.AperFunction*%
%TO.P,R36,1*%
%TO.N,Net-(D14-Pad2)*%
%TA.AperFunction,SMDPad,CuDef*%
G36*
G01*
X36439003Y-62858000D02*
X35188997Y-62858000D01*
G75*
G02*
X34939000Y-62608003I0J249997D01*
G01*
X34939000Y-61982997D01*
G75*
G02*
X35188997Y-61733000I249997J0D01*
G01*
X36439003Y-61733000D01*
G75*
G02*
X36689000Y-61982997I0J-249997D01*
G01*
X36689000Y-62608003D01*
G75*
G02*
X36439003Y-62858000I-249997J0D01*
G01*
G37*
%TD.AperFunction*%
%TD*%
%TO.P,R37,1*%
%TO.N,Net-(D15-Pad2)*%
%TA.AperFunction,SMDPad,CuDef*%
G36*
G01*
X35188997Y-64394000D02*
X36439003Y-64394000D01*
G75*
G02*
X36689000Y-64643997I0J-249997D01*
G01*
X36689000Y-65269003D01*
G75*
G02*
X36439003Y-65519000I-249997J0D01*
G01*
X35188997Y-65519000D01*
G75*
G02*
X34939000Y-65269003I0J249997D01*
G01*
X34939000Y-64643997D01*
G75*
G02*
X35188997Y-64394000I249997J0D01*
G01*
G37*
%TD.AperFunction*%
%TO.P,R37,2*%
%TO.N,Net-(R37-Pad2)*%
%TA.AperFunction,SMDPad,CuDef*%
G36*
G01*
X35188997Y-67319000D02*
X36439003Y-67319000D01*
G75*
G02*
X36689000Y-67568997I0J-249997D01*
G01*
X36689000Y-68194003D01*
G75*
G02*
X36439003Y-68444000I-249997J0D01*
G01*
X35188997Y-68444000D01*
G75*
G02*
X34939000Y-68194003I0J249997D01*
G01*
X34939000Y-67568997D01*
G75*
G02*
X35188997Y-67319000I249997J0D01*
G01*
G37*
%TD.AperFunction*%
%TD*%
%TO.P,R38,2*%
%TO.N,Net-(R38-Pad2)*%
%TA.AperFunction,SMDPad,CuDef*%
G36*
G01*
X29200003Y-65521000D02*
X27949997Y-65521000D01*
G75*
G02*
X27700000Y-65271003I0J249997D01*
G01*
X27700000Y-64645997D01*
G75*
G02*
X27949997Y-64396000I249997J0D01*
G01*
X29200003Y-64396000D01*
G75*
G02*
X29450000Y-64645997I0J-249997D01*
G01*
X29450000Y-65271003D01*
G75*
G02*
X29200003Y-65521000I-249997J0D01*
G01*
G37*
%TD.AperFunction*%
%TO.P,R38,1*%
%TO.N,Net-(D16-Pad2)*%
%TA.AperFunction,SMDPad,CuDef*%
G36*
G01*
X29200003Y-68446000D02*
X27949997Y-68446000D01*
G75*
G02*
X27700000Y-68196003I0J249997D01*
G01*
X27700000Y-67570997D01*
G75*
G02*
X27949997Y-67321000I249997J0D01*
G01*
X29200003Y-67321000D01*
G75*
G02*
X29450000Y-67570997I0J-249997D01*
G01*
X29450000Y-68196003D01*
G75*
G02*
X29200003Y-68446000I-249997J0D01*
G01*
G37*
%TD.AperFunction*%
%TD*%
%TO.P,R39,1*%
%TO.N,Net-(D17-Pad2)*%
%TA.AperFunction,SMDPad,CuDef*%
G36*
G01*
X27949997Y-69984000D02*
X29200003Y-69984000D01*
G75*
G02*
X29450000Y-70233997I0J-249997D01*
G01*
X29450000Y-70859003D01*
G75*
G02*
X29200003Y-71109000I-249997J0D01*
G01*
X27949997Y-71109000D01*
G75*
G02*
X27700000Y-70859003I0J249997D01*
G01*
X27700000Y-70233997D01*
G75*
G02*
X27949997Y-69984000I249997J0D01*
G01*
G37*
%TD.AperFunction*%
%TO.P,R39,2*%
%TO.N,Net-(R39-Pad2)*%
%TA.AperFunction,SMDPad,CuDef*%
G36*
G01*
X27949997Y-72909000D02*
X29200003Y-72909000D01*
G75*
G02*
X29450000Y-73158997I0J-249997D01*
G01*
X29450000Y-73784003D01*
G75*
G02*
X29200003Y-74034000I-249997J0D01*
G01*
X27949997Y-74034000D01*
G75*
G02*
X27700000Y-73784003I0J249997D01*
G01*
X27700000Y-73158997D01*
G75*
G02*
X27949997Y-72909000I249997J0D01*
G01*
G37*
%TD.AperFunction*%
%TD*%
%TO.P,R40,1*%
%TO.N,Net-(D18-Pad2)*%
%TA.AperFunction,SMDPad,CuDef*%
G36*
G01*
X36439003Y-74036000D02*
X35188997Y-74036000D01*
G75*
G02*
X34939000Y-73786003I0J249997D01*
G01*
X34939000Y-73160997D01*
G75*
G02*
X35188997Y-72911000I249997J0D01*
G01*
X36439003Y-72911000D01*
G75*
G02*
X36689000Y-73160997I0J-249997D01*
G01*
X36689000Y-73786003D01*
G75*
G02*
X36439003Y-74036000I-249997J0D01*
G01*
G37*
%TD.AperFunction*%
%TO.P,R40,2*%
%TO.N,Net-(R40-Pad2)*%
%TA.AperFunction,SMDPad,CuDef*%
G36*
G01*
X36439003Y-71111000D02*
X35188997Y-71111000D01*
G75*
G02*
X34939000Y-70861003I0J249997D01*
G01*
X34939000Y-70235997D01*
G75*
G02*
X35188997Y-69986000I249997J0D01*
G01*
X36439003Y-69986000D01*
G75*
G02*
X36689000Y-70235997I0J-249997D01*
G01*
X36689000Y-70861003D01*
G75*
G02*
X36439003Y-71111000I-249997J0D01*
G01*
G37*
%TD.AperFunction*%
%TD*%
%TO.P,R41,1*%
%TO.N,Net-(D19-Pad2)*%
%TA.AperFunction,SMDPad,CuDef*%
G36*
G01*
X35188997Y-75572000D02*
X36439003Y-75572000D01*
G75*
G02*
X36689000Y-75821997I0J-249997D01*
G01*
X36689000Y-76447003D01*
G75*
G02*
X36439003Y-76697000I-249997J0D01*
G01*
X35188997Y-76697000D01*
G75*
G02*
X34939000Y-76447003I0J249997D01*
G01*
X34939000Y-75821997D01*
G75*
G02*
X35188997Y-75572000I249997J0D01*
G01*
G37*
%TD.AperFunction*%
%TO.P,R41,2*%
%TO.N,Net-(R41-Pad2)*%
%TA.AperFunction,SMDPad,CuDef*%
G36*
G01*
X35188997Y-78497000D02*
X36439003Y-78497000D01*
G75*
G02*
X36689000Y-78746997I0J-249997D01*
G01*
X36689000Y-79372003D01*
G75*
G02*
X36439003Y-79622000I-249997J0D01*
G01*
X35188997Y-79622000D01*
G75*
G02*
X34939000Y-79372003I0J249997D01*
G01*
X34939000Y-78746997D01*
G75*
G02*
X35188997Y-78497000I249997J0D01*
G01*
G37*
%TD.AperFunction*%
%TD*%
%TO.P,R42,2*%
%TO.N,Net-(R42-Pad2)*%
%TA.AperFunction,SMDPad,CuDef*%
G36*
G01*
X29200003Y-76697000D02*
X27949997Y-76697000D01*
G75*
G02*
X27700000Y-76447003I0J249997D01*
G01*
X27700000Y-75821997D01*
G75*
G02*
X27949997Y-75572000I249997J0D01*
G01*
X29200003Y-75572000D01*
G75*
G02*
X29450000Y-75821997I0J-249997D01*
G01*
X29450000Y-76447003D01*
G75*
G02*
X29200003Y-76697000I-249997J0D01*
G01*
G37*
%TD.AperFunction*%
%TO.P,R42,1*%
%TO.N,Net-(D20-Pad2)*%
%TA.AperFunction,SMDPad,CuDef*%
G36*
G01*
X29200003Y-79622000D02*
X27949997Y-79622000D01*
G75*
G02*
X27700000Y-79372003I0J249997D01*
G01*
X27700000Y-78746997D01*
G75*
G02*
X27949997Y-78497000I249997J0D01*
G01*
X29200003Y-78497000D01*
G75*
G02*
X29450000Y-78746997I0J-249997D01*
G01*
X29450000Y-79372003D01*
G75*
G02*
X29200003Y-79622000I-249997J0D01*
G01*
G37*
%TD.AperFunction*%
%TD*%
%TO.P,R43,1*%
%TO.N,Net-(R32-Pad2)*%
%TA.AperFunction,SMDPad,CuDef*%
G36*
G01*
X25282997Y-81160000D02*
X26533003Y-81160000D01*
G75*
G02*
X26783000Y-81409997I0J-249997D01*
G01*
X26783000Y-82035003D01*
G75*
G02*
X26533003Y-82285000I-249997J0D01*
G01*
X25282997Y-82285000D01*
G75*
G02*
X25033000Y-82035003I0J249997D01*
G01*
X25033000Y-81409997D01*
G75*
G02*
X25282997Y-81160000I249997J0D01*
G01*
G37*
%TD.AperFunction*%
%TO.P,R43,2*%
%TO.N,Net-(R43-Pad2)*%
%TA.AperFunction,SMDPad,CuDef*%
G36*
G01*
X25282997Y-84085000D02*
X26533003Y-84085000D01*
G75*
G02*
X26783000Y-84334997I0J-249997D01*
G01*
X26783000Y-84960003D01*
G75*
G02*
X26533003Y-85210000I-249997J0D01*
G01*
X25282997Y-85210000D01*
G75*
G02*
X25033000Y-84960003I0J249997D01*
G01*
X25033000Y-84334997D01*
G75*
G02*
X25282997Y-84085000I249997J0D01*
G01*
G37*
%TD.AperFunction*%
%TD*%
%TO.P,R44,2*%
%TO.N,Net-(R44-Pad2)*%
%TA.AperFunction,SMDPad,CuDef*%
G36*
G01*
X37855997Y-84085000D02*
X39106003Y-84085000D01*
G75*
G02*
X39356000Y-84334997I0J-249997D01*
G01*
X39356000Y-84960003D01*
G75*
G02*
X39106003Y-85210000I-249997J0D01*
G01*
X37855997Y-85210000D01*
G75*
G02*
X37606000Y-84960003I0J249997D01*
G01*
X37606000Y-84334997D01*
G75*
G02*
X37855997Y-84085000I249997J0D01*
G01*
G37*
%TD.AperFunction*%
%TO.P,R44,1*%
%TO.N,Net-(R43-Pad2)*%
%TA.AperFunction,SMDPad,CuDef*%
G36*
G01*
X37855997Y-81160000D02*
X39106003Y-81160000D01*
G75*
G02*
X39356000Y-81409997I0J-249997D01*
G01*
X39356000Y-82035003D01*
G75*
G02*
X39106003Y-82285000I-249997J0D01*
G01*
X37855997Y-82285000D01*
G75*
G02*
X37606000Y-82035003I0J249997D01*
G01*
X37606000Y-81409997D01*
G75*
G02*
X37855997Y-81160000I249997J0D01*
G01*
G37*
%TD.AperFunction*%
%TD*%
%TO.P,R45,1*%
%TO.N,Net-(R44-Pad2)*%
%TA.AperFunction,SMDPad,CuDef*%
G36*
G01*
X37855997Y-86746000D02*
X39106003Y-86746000D01*
G75*
G02*
X39356000Y-86995997I0J-249997D01*
G01*
X39356000Y-87621003D01*
G75*
G02*
X39106003Y-87871000I-249997J0D01*
G01*
X37855997Y-87871000D01*
G75*
G02*
X37606000Y-87621003I0J249997D01*
G01*
X37606000Y-86995997D01*
G75*
G02*
X37855997Y-86746000I249997J0D01*
G01*
G37*
%TD.AperFunction*%
%TO.P,R45,2*%
%TO.N,Net-(R45-Pad2)*%
%TA.AperFunction,SMDPad,CuDef*%
G36*
G01*
X37855997Y-89671000D02*
X39106003Y-89671000D01*
G75*
G02*
X39356000Y-89920997I0J-249997D01*
G01*
X39356000Y-90546003D01*
G75*
G02*
X39106003Y-90796000I-249997J0D01*
G01*
X37855997Y-90796000D01*
G75*
G02*
X37606000Y-90546003I0J249997D01*
G01*
X37606000Y-89920997D01*
G75*
G02*
X37855997Y-89671000I249997J0D01*
G01*
G37*
%TD.AperFunction*%
%TD*%
%TO.P,R46,2*%
%TO.N,Net-(R46-Pad2)*%
%TA.AperFunction,SMDPad,CuDef*%
G36*
G01*
X25282997Y-89673000D02*
X26533003Y-89673000D01*
G75*
G02*
X26783000Y-89922997I0J-249997D01*
G01*
X26783000Y-90548003D01*
G75*
G02*
X26533003Y-90798000I-249997J0D01*
G01*
X25282997Y-90798000D01*
G75*
G02*
X25033000Y-90548003I0J249997D01*
G01*
X25033000Y-89922997D01*
G75*
G02*
X25282997Y-89673000I249997J0D01*
G01*
G37*
%TD.AperFunction*%
%TO.P,R46,1*%
%TO.N,Net-(R45-Pad2)*%
%TA.AperFunction,SMDPad,CuDef*%
G36*
G01*
X25282997Y-86748000D02*
X26533003Y-86748000D01*
G75*
G02*
X26783000Y-86997997I0J-249997D01*
G01*
X26783000Y-87623003D01*
G75*
G02*
X26533003Y-87873000I-249997J0D01*
G01*
X25282997Y-87873000D01*
G75*
G02*
X25033000Y-87623003I0J249997D01*
G01*
X25033000Y-86997997D01*
G75*
G02*
X25282997Y-86748000I249997J0D01*
G01*
G37*
%TD.AperFunction*%
%TD*%
%TO.P,R47,2*%
%TO.N,Net-(R47-Pad2)*%
%TA.AperFunction,SMDPad,CuDef*%
G36*
G01*
X25282997Y-95261000D02*
X26533003Y-95261000D01*
G75*
G02*
X26783000Y-95510997I0J-249997D01*
G01*
X26783000Y-96136003D01*
G75*
G02*
X26533003Y-96386000I-249997J0D01*
G01*
X25282997Y-96386000D01*
G75*
G02*
X25033000Y-96136003I0J249997D01*
G01*
X25033000Y-95510997D01*
G75*
G02*
X25282997Y-95261000I249997J0D01*
G01*
G37*
%TD.AperFunction*%
%TO.P,R47,1*%
%TO.N,Net-(R46-Pad2)*%
%TA.AperFunction,SMDPad,CuDef*%
G36*
G01*
X25282997Y-92336000D02*
X26533003Y-92336000D01*
G75*
G02*
X26783000Y-92585997I0J-249997D01*
G01*
X26783000Y-93211003D01*
G75*
G02*
X26533003Y-93461000I-249997J0D01*
G01*
X25282997Y-93461000D01*
G75*
G02*
X25033000Y-93211003I0J249997D01*
G01*
X25033000Y-92585997D01*
G75*
G02*
X25282997Y-92336000I249997J0D01*
G01*
G37*
%TD.AperFunction*%
%TD*%
%TO.P,R48,2*%
%TO.N,Net-(R48-Pad2)*%
%TA.AperFunction,SMDPad,CuDef*%
G36*
G01*
X37855997Y-95261000D02*
X39106003Y-95261000D01*
G75*
G02*
X39356000Y-95510997I0J-249997D01*
G01*
X39356000Y-96136003D01*
G75*
G02*
X39106003Y-96386000I-249997J0D01*
G01*
X37855997Y-96386000D01*
G75*
G02*
X37606000Y-96136003I0J249997D01*
G01*
X37606000Y-95510997D01*
G75*
G02*
X37855997Y-95261000I249997J0D01*
G01*
G37*
%TD.AperFunction*%
%TO.P,R48,1*%
%TO.N,Net-(R47-Pad2)*%
%TA.AperFunction,SMDPad,CuDef*%
G36*
G01*
X37855997Y-92336000D02*
X39106003Y-92336000D01*
G75*
G02*
X39356000Y-92585997I0J-249997D01*
G01*
X39356000Y-93211003D01*
G75*
G02*
X39106003Y-93461000I-249997J0D01*
G01*
X37855997Y-93461000D01*
G75*
G02*
X37606000Y-93211003I0J249997D01*
G01*
X37606000Y-92585997D01*
G75*
G02*
X37855997Y-92336000I249997J0D01*
G01*
G37*
%TD.AperFunction*%
%TD*%
%TO.P,R49,1*%
%TO.N,Net-(R48-Pad2)*%
%TA.AperFunction,SMDPad,CuDef*%
G36*
G01*
X37855997Y-97926000D02*
X39106003Y-97926000D01*
G75*
G02*
X39356000Y-98175997I0J-249997D01*
G01*
X39356000Y-98801003D01*
G75*
G02*
X39106003Y-99051000I-249997J0D01*
G01*
X37855997Y-99051000D01*
G75*
G02*
X37606000Y-98801003I0J249997D01*
G01*
X37606000Y-98175997D01*
G75*
G02*
X37855997Y-97926000I249997J0D01*
G01*
G37*
%TD.AperFunction*%
%TO.P,R49,2*%
%TO.N,Net-(R49-Pad2)*%
%TA.AperFunction,SMDPad,CuDef*%
G36*
G01*
X37855997Y-100851000D02*
X39106003Y-100851000D01*
G75*
G02*
X39356000Y-101100997I0J-249997D01*
G01*
X39356000Y-101726003D01*
G75*
G02*
X39106003Y-101976000I-249997J0D01*
G01*
X37855997Y-101976000D01*
G75*
G02*
X37606000Y-101726003I0J249997D01*
G01*
X37606000Y-101100997D01*
G75*
G02*
X37855997Y-100851000I249997J0D01*
G01*
G37*
%TD.AperFunction*%
%TD*%
%TO.P,R50,2*%
%TO.N,Net-(R50-Pad2)*%
%TA.AperFunction,SMDPad,CuDef*%
G36*
G01*
X25282997Y-100849000D02*
X26533003Y-100849000D01*
G75*
G02*
X26783000Y-101098997I0J-249997D01*
G01*
X26783000Y-101724003D01*
G75*
G02*
X26533003Y-101974000I-249997J0D01*
G01*
X25282997Y-101974000D01*
G75*
G02*
X25033000Y-101724003I0J249997D01*
G01*
X25033000Y-101098997D01*
G75*
G02*
X25282997Y-100849000I249997J0D01*
G01*
G37*
%TD.AperFunction*%
%TO.P,R50,1*%
%TO.N,Net-(R49-Pad2)*%
%TA.AperFunction,SMDPad,CuDef*%
G36*
G01*
X25282997Y-97924000D02*
X26533003Y-97924000D01*
G75*
G02*
X26783000Y-98173997I0J-249997D01*
G01*
X26783000Y-98799003D01*
G75*
G02*
X26533003Y-99049000I-249997J0D01*
G01*
X25282997Y-99049000D01*
G75*
G02*
X25033000Y-98799003I0J249997D01*
G01*
X25033000Y-98173997D01*
G75*
G02*
X25282997Y-97924000I249997J0D01*
G01*
G37*
%TD.AperFunction*%
%TD*%
%TO.P,R51,1*%
%TO.N,Net-(R50-Pad2)*%
%TA.AperFunction,SMDPad,CuDef*%
G36*
G01*
X25282997Y-103512000D02*
X26533003Y-103512000D01*
G75*
G02*
X26783000Y-103761997I0J-249997D01*
G01*
X26783000Y-104387003D01*
G75*
G02*
X26533003Y-104637000I-249997J0D01*
G01*
X25282997Y-104637000D01*
G75*
G02*
X25033000Y-104387003I0J249997D01*
G01*
X25033000Y-103761997D01*
G75*
G02*
X25282997Y-103512000I249997J0D01*
G01*
G37*
%TD.AperFunction*%
%TO.P,R51,2*%
%TO.N,Net-(R51-Pad2)*%
%TA.AperFunction,SMDPad,CuDef*%
G36*
G01*
X25282997Y-106437000D02*
X26533003Y-106437000D01*
G75*
G02*
X26783000Y-106686997I0J-249997D01*
G01*
X26783000Y-107312003D01*
G75*
G02*
X26533003Y-107562000I-249997J0D01*
G01*
X25282997Y-107562000D01*
G75*
G02*
X25033000Y-107312003I0J249997D01*
G01*
X25033000Y-106686997D01*
G75*
G02*
X25282997Y-106437000I249997J0D01*
G01*
G37*
%TD.AperFunction*%
%TD*%
%TO.P,R52,2*%
%TO.N,Net-(R52-Pad2)*%
%TA.AperFunction,SMDPad,CuDef*%
G36*
G01*
X37855997Y-106439000D02*
X39106003Y-106439000D01*
G75*
G02*
X39356000Y-106688997I0J-249997D01*
G01*
X39356000Y-107314003D01*
G75*
G02*
X39106003Y-107564000I-249997J0D01*
G01*
X37855997Y-107564000D01*
G75*
G02*
X37606000Y-107314003I0J249997D01*
G01*
X37606000Y-106688997D01*
G75*
G02*
X37855997Y-106439000I249997J0D01*
G01*
G37*
%TD.AperFunction*%
%TO.P,R52,1*%
%TO.N,Net-(R51-Pad2)*%
%TA.AperFunction,SMDPad,CuDef*%
G36*
G01*
X37855997Y-103514000D02*
X39106003Y-103514000D01*
G75*
G02*
X39356000Y-103763997I0J-249997D01*
G01*
X39356000Y-104389003D01*
G75*
G02*
X39106003Y-104639000I-249997J0D01*
G01*
X37855997Y-104639000D01*
G75*
G02*
X37606000Y-104389003I0J249997D01*
G01*
X37606000Y-103763997D01*
G75*
G02*
X37855997Y-103514000I249997J0D01*
G01*
G37*
%TD.AperFunction*%
%TD*%
%TO.P,R53,1*%
%TO.N,Net-(R52-Pad2)*%
%TA.AperFunction,SMDPad,CuDef*%
G36*
G01*
X36776497Y-109100000D02*
X38026503Y-109100000D01*
G75*
G02*
X38276500Y-109349997I0J-249997D01*
G01*
X38276500Y-109975003D01*
G75*
G02*
X38026503Y-110225000I-249997J0D01*
G01*
X36776497Y-110225000D01*
G75*
G02*
X36526500Y-109975003I0J249997D01*
G01*
X36526500Y-109349997D01*
G75*
G02*
X36776497Y-109100000I249997J0D01*
G01*
G37*
%TD.AperFunction*%
%TO.P,R53,2*%
%TO.N,GND*%
%TA.AperFunction,SMDPad,CuDef*%
G36*
G01*
X36776497Y-112025000D02*
X38026503Y-112025000D01*
G75*
G02*
X38276500Y-112274997I0J-249997D01*
G01*
X38276500Y-112900003D01*
G75*
G02*
X38026503Y-113150000I-249997J0D01*
G01*
X36776497Y-113150000D01*
G75*
G02*
X36526500Y-112900003I0J249997D01*
G01*
X36526500Y-112274997D01*
G75*
G02*
X36776497Y-112025000I249997J0D01*
G01*
G37*
%TD.AperFunction*%
%TD*%
%TO.P,R55,2*%
%TO.N,Net-(R55-Pad2)*%
%TA.AperFunction,SMDPad,CuDef*%
G36*
G01*
X36439003Y-82285000D02*
X35188997Y-82285000D01*
G75*
G02*
X34939000Y-82035003I0J249997D01*
G01*
X34939000Y-81409997D01*
G75*
G02*
X35188997Y-81160000I249997J0D01*
G01*
X36439003Y-81160000D01*
G75*
G02*
X36689000Y-81409997I0J-249997D01*
G01*
X36689000Y-82035003D01*
G75*
G02*
X36439003Y-82285000I-249997J0D01*
G01*
G37*
%TD.AperFunction*%
%TO.P,R55,1*%
%TO.N,Net-(D22-Pad2)*%
%TA.AperFunction,SMDPad,CuDef*%
G36*
G01*
X36439003Y-85210000D02*
X35188997Y-85210000D01*
G75*
G02*
X34939000Y-84960003I0J249997D01*
G01*
X34939000Y-84334997D01*
G75*
G02*
X35188997Y-84085000I249997J0D01*
G01*
X36439003Y-84085000D01*
G75*
G02*
X36689000Y-84334997I0J-249997D01*
G01*
X36689000Y-84960003D01*
G75*
G02*
X36439003Y-85210000I-249997J0D01*
G01*
G37*
%TD.AperFunction*%
%TD*%
%TO.P,R56,1*%
%TO.N,Net-(D23-Pad2)*%
%TA.AperFunction,SMDPad,CuDef*%
G36*
G01*
X35188997Y-86746000D02*
X36439003Y-86746000D01*
G75*
G02*
X36689000Y-86995997I0J-249997D01*
G01*
X36689000Y-87621003D01*
G75*
G02*
X36439003Y-87871000I-249997J0D01*
G01*
X35188997Y-87871000D01*
G75*
G02*
X34939000Y-87621003I0J249997D01*
G01*
X34939000Y-86995997D01*
G75*
G02*
X35188997Y-86746000I249997J0D01*
G01*
G37*
%TD.AperFunction*%
%TO.P,R56,2*%
%TO.N,Net-(R56-Pad2)*%
%TA.AperFunction,SMDPad,CuDef*%
G36*
G01*
X35188997Y-89671000D02*
X36439003Y-89671000D01*
G75*
G02*
X36689000Y-89920997I0J-249997D01*
G01*
X36689000Y-90546003D01*
G75*
G02*
X36439003Y-90796000I-249997J0D01*
G01*
X35188997Y-90796000D01*
G75*
G02*
X34939000Y-90546003I0J249997D01*
G01*
X34939000Y-89920997D01*
G75*
G02*
X35188997Y-89671000I249997J0D01*
G01*
G37*
%TD.AperFunction*%
%TD*%
%TO.P,R57,2*%
%TO.N,Net-(R57-Pad2)*%
%TA.AperFunction,SMDPad,CuDef*%
G36*
G01*
X29200003Y-87873000D02*
X27949997Y-87873000D01*
G75*
G02*
X27700000Y-87623003I0J249997D01*
G01*
X27700000Y-86997997D01*
G75*
G02*
X27949997Y-86748000I249997J0D01*
G01*
X29200003Y-86748000D01*
G75*
G02*
X29450000Y-86997997I0J-249997D01*
G01*
X29450000Y-87623003D01*
G75*
G02*
X29200003Y-87873000I-249997J0D01*
G01*
G37*
%TD.AperFunction*%
%TO.P,R57,1*%
%TO.N,Net-(D24-Pad2)*%
%TA.AperFunction,SMDPad,CuDef*%
G36*
G01*
X29200003Y-90798000D02*
X27949997Y-90798000D01*
G75*
G02*
X27700000Y-90548003I0J249997D01*
G01*
X27700000Y-89922997D01*
G75*
G02*
X27949997Y-89673000I249997J0D01*
G01*
X29200003Y-89673000D01*
G75*
G02*
X29450000Y-89922997I0J-249997D01*
G01*
X29450000Y-90548003D01*
G75*
G02*
X29200003Y-90798000I-249997J0D01*
G01*
G37*
%TD.AperFunction*%
%TD*%
%TO.P,R58,1*%
%TO.N,Net-(D25-Pad2)*%
%TA.AperFunction,SMDPad,CuDef*%
G36*
G01*
X27949997Y-92336000D02*
X29200003Y-92336000D01*
G75*
G02*
X29450000Y-92585997I0J-249997D01*
G01*
X29450000Y-93211003D01*
G75*
G02*
X29200003Y-93461000I-249997J0D01*
G01*
X27949997Y-93461000D01*
G75*
G02*
X27700000Y-93211003I0J249997D01*
G01*
X27700000Y-92585997D01*
G75*
G02*
X27949997Y-92336000I249997J0D01*
G01*
G37*
%TD.AperFunction*%
%TO.P,R58,2*%
%TO.N,Net-(R58-Pad2)*%
%TA.AperFunction,SMDPad,CuDef*%
G36*
G01*
X27949997Y-95261000D02*
X29200003Y-95261000D01*
G75*
G02*
X29450000Y-95510997I0J-249997D01*
G01*
X29450000Y-96136003D01*
G75*
G02*
X29200003Y-96386000I-249997J0D01*
G01*
X27949997Y-96386000D01*
G75*
G02*
X27700000Y-96136003I0J249997D01*
G01*
X27700000Y-95510997D01*
G75*
G02*
X27949997Y-95261000I249997J0D01*
G01*
G37*
%TD.AperFunction*%
%TD*%
%TO.P,R59,2*%
%TO.N,Net-(R59-Pad2)*%
%TA.AperFunction,SMDPad,CuDef*%
G36*
G01*
X36439003Y-93461000D02*
X35188997Y-93461000D01*
G75*
G02*
X34939000Y-93211003I0J249997D01*
G01*
X34939000Y-92585997D01*
G75*
G02*
X35188997Y-92336000I249997J0D01*
G01*
X36439003Y-92336000D01*
G75*
G02*
X36689000Y-92585997I0J-249997D01*
G01*
X36689000Y-93211003D01*
G75*
G02*
X36439003Y-93461000I-249997J0D01*
G01*
G37*
%TD.AperFunction*%
%TO.P,R59,1*%
%TO.N,Net-(D26-Pad2)*%
%TA.AperFunction,SMDPad,CuDef*%
G36*
G01*
X36439003Y-96386000D02*
X35188997Y-96386000D01*
G75*
G02*
X34939000Y-96136003I0J249997D01*
G01*
X34939000Y-95510997D01*
G75*
G02*
X35188997Y-95261000I249997J0D01*
G01*
X36439003Y-95261000D01*
G75*
G02*
X36689000Y-95510997I0J-249997D01*
G01*
X36689000Y-96136003D01*
G75*
G02*
X36439003Y-96386000I-249997J0D01*
G01*
G37*
%TD.AperFunction*%
%TD*%
%TO.P,R60,1*%
%TO.N,Net-(D27-Pad2)*%
%TA.AperFunction,SMDPad,CuDef*%
G36*
G01*
X35188997Y-97922000D02*
X36439003Y-97922000D01*
G75*
G02*
X36689000Y-98171997I0J-249997D01*
G01*
X36689000Y-98797003D01*
G75*
G02*
X36439003Y-99047000I-249997J0D01*
G01*
X35188997Y-99047000D01*
G75*
G02*
X34939000Y-98797003I0J249997D01*
G01*
X34939000Y-98171997D01*
G75*
G02*
X35188997Y-97922000I249997J0D01*
G01*
G37*
%TD.AperFunction*%
%TO.P,R60,2*%
%TO.N,Net-(R60-Pad2)*%
%TA.AperFunction,SMDPad,CuDef*%
G36*
G01*
X35188997Y-100847000D02*
X36439003Y-100847000D01*
G75*
G02*
X36689000Y-101096997I0J-249997D01*
G01*
X36689000Y-101722003D01*
G75*
G02*
X36439003Y-101972000I-249997J0D01*
G01*
X35188997Y-101972000D01*
G75*
G02*
X34939000Y-101722003I0J249997D01*
G01*
X34939000Y-101096997D01*
G75*
G02*
X35188997Y-100847000I249997J0D01*
G01*
G37*
%TD.AperFunction*%
%TD*%
%TO.P,R61,2*%
%TO.N,Net-(R61-Pad2)*%
%TA.AperFunction,SMDPad,CuDef*%
G36*
G01*
X29200003Y-99049000D02*
X27949997Y-99049000D01*
G75*
G02*
X27700000Y-98799003I0J249997D01*
G01*
X27700000Y-98173997D01*
G75*
G02*
X27949997Y-97924000I249997J0D01*
G01*
X29200003Y-97924000D01*
G75*
G02*
X29450000Y-98173997I0J-249997D01*
G01*
X29450000Y-98799003D01*
G75*
G02*
X29200003Y-99049000I-249997J0D01*
G01*
G37*
%TD.AperFunction*%
%TO.P,R61,1*%
%TO.N,Net-(D28-Pad2)*%
%TA.AperFunction,SMDPad,CuDef*%
G36*
G01*
X29200003Y-101974000D02*
X27949997Y-101974000D01*
G75*
G02*
X27700000Y-101724003I0J249997D01*
G01*
X27700000Y-101098997D01*
G75*
G02*
X27949997Y-100849000I249997J0D01*
G01*
X29200003Y-100849000D01*
G75*
G02*
X29450000Y-101098997I0J-249997D01*
G01*
X29450000Y-101724003D01*
G75*
G02*
X29200003Y-101974000I-249997J0D01*
G01*
G37*
%TD.AperFunction*%
%TD*%
%TO.P,R62,1*%
%TO.N,Net-(D29-Pad2)*%
%TA.AperFunction,SMDPad,CuDef*%
G36*
G01*
X27949997Y-103512000D02*
X29200003Y-103512000D01*
G75*
G02*
X29450000Y-103761997I0J-249997D01*
G01*
X29450000Y-104387003D01*
G75*
G02*
X29200003Y-104637000I-249997J0D01*
G01*
X27949997Y-104637000D01*
G75*
G02*
X27700000Y-104387003I0J249997D01*
G01*
X27700000Y-103761997D01*
G75*
G02*
X27949997Y-103512000I249997J0D01*
G01*
G37*
%TD.AperFunction*%
%TO.P,R62,2*%
%TO.N,Net-(R62-Pad2)*%
%TA.AperFunction,SMDPad,CuDef*%
G36*
G01*
X27949997Y-106437000D02*
X29200003Y-106437000D01*
G75*
G02*
X29450000Y-106686997I0J-249997D01*
G01*
X29450000Y-107312003D01*
G75*
G02*
X29200003Y-107562000I-249997J0D01*
G01*
X27949997Y-107562000D01*
G75*
G02*
X27700000Y-107312003I0J249997D01*
G01*
X27700000Y-106686997D01*
G75*
G02*
X27949997Y-106437000I249997J0D01*
G01*
G37*
%TD.AperFunction*%
%TD*%
%TO.P,R63,2*%
%TO.N,Net-(R63-Pad2)*%
%TA.AperFunction,SMDPad,CuDef*%
G36*
G01*
X36439003Y-104635000D02*
X35188997Y-104635000D01*
G75*
G02*
X34939000Y-104385003I0J249997D01*
G01*
X34939000Y-103759997D01*
G75*
G02*
X35188997Y-103510000I249997J0D01*
G01*
X36439003Y-103510000D01*
G75*
G02*
X36689000Y-103759997I0J-249997D01*
G01*
X36689000Y-104385003D01*
G75*
G02*
X36439003Y-104635000I-249997J0D01*
G01*
G37*
%TD.AperFunction*%
%TO.P,R63,1*%
%TO.N,Net-(D30-Pad2)*%
%TA.AperFunction,SMDPad,CuDef*%
G36*
G01*
X36439003Y-107560000D02*
X35188997Y-107560000D01*
G75*
G02*
X34939000Y-107310003I0J249997D01*
G01*
X34939000Y-106684997D01*
G75*
G02*
X35188997Y-106435000I249997J0D01*
G01*
X36439003Y-106435000D01*
G75*
G02*
X36689000Y-106684997I0J-249997D01*
G01*
X36689000Y-107310003D01*
G75*
G02*
X36439003Y-107560000I-249997J0D01*
G01*
G37*
%TD.AperFunction*%
%TD*%
%TO.P,U1,1*%
%TO.N,Net-(U1-Pad1)*%
%TA.AperFunction,SMDPad,CuDef*%
G36*
G01*
X28744500Y-109370000D02*
X28744500Y-109070000D01*
G75*
G02*
X28894500Y-108920000I150000J0D01*
G01*
X30544500Y-108920000D01*
G75*
G02*
X30694500Y-109070000I0J-150000D01*
G01*
X30694500Y-109370000D01*
G75*
G02*
X30544500Y-109520000I-150000J0D01*
G01*
X28894500Y-109520000D01*
G75*
G02*
X28744500Y-109370000I0J150000D01*
G01*
G37*
%TD.AperFunction*%
%TO.P,U1,2*%
%TO.N,Net-(U1-Pad2)*%
%TA.AperFunction,SMDPad,CuDef*%
G36*
G01*
X28744500Y-110640000D02*
X28744500Y-110340000D01*
G75*
G02*
X28894500Y-110190000I150000J0D01*
G01*
X30544500Y-110190000D01*
G75*
G02*
X30694500Y-110340000I0J-150000D01*
G01*
X30694500Y-110640000D01*
G75*
G02*
X30544500Y-110790000I-150000J0D01*
G01*
X28894500Y-110790000D01*
G75*
G02*
X28744500Y-110640000I0J150000D01*
G01*
G37*
%TD.AperFunction*%
%TO.P,U1,3*%
%TO.N,Net-(U1-Pad3)*%
%TA.AperFunction,SMDPad,CuDef*%
G36*
G01*
X28744500Y-111910000D02*
X28744500Y-111610000D01*
G75*
G02*
X28894500Y-111460000I150000J0D01*
G01*
X30544500Y-111460000D01*
G75*
G02*
X30694500Y-111610000I0J-150000D01*
G01*
X30694500Y-111910000D01*
G75*
G02*
X30544500Y-112060000I-150000J0D01*
G01*
X28894500Y-112060000D01*
G75*
G02*
X28744500Y-111910000I0J150000D01*
G01*
G37*
%TD.AperFunction*%
%TO.P,U1,4*%
%TO.N,GND*%
%TA.AperFunction,SMDPad,CuDef*%
G36*
G01*
X28744500Y-113180000D02*
X28744500Y-112880000D01*
G75*
G02*
X28894500Y-112730000I150000J0D01*
G01*
X30544500Y-112730000D01*
G75*
G02*
X30694500Y-112880000I0J-150000D01*
G01*
X30694500Y-113180000D01*
G75*
G02*
X30544500Y-113330000I-150000J0D01*
G01*
X28894500Y-113330000D01*
G75*
G02*
X28744500Y-113180000I0J150000D01*
G01*
G37*
%TD.AperFunction*%
%TO.P,U1,5*%
%TO.N,Net-(U1-Pad5)*%
%TA.AperFunction,SMDPad,CuDef*%
G36*
G01*
X33694500Y-113180000D02*
X33694500Y-112880000D01*
G75*
G02*
X33844500Y-112730000I150000J0D01*
G01*
X35494500Y-112730000D01*
G75*
G02*
X35644500Y-112880000I0J-150000D01*
G01*
X35644500Y-113180000D01*
G75*
G02*
X35494500Y-113330000I-150000J0D01*
G01*
X33844500Y-113330000D01*
G75*
G02*
X33694500Y-113180000I0J150000D01*
G01*
G37*
%TD.AperFunction*%
%TO.P,U1,6*%
%TO.N,Net-(U1-Pad6)*%
%TA.AperFunction,SMDPad,CuDef*%
G36*
G01*
X33694500Y-111910000D02*
X33694500Y-111610000D01*
G75*
G02*
X33844500Y-111460000I150000J0D01*
G01*
X35494500Y-111460000D01*
G75*
G02*
X35644500Y-111610000I0J-150000D01*
G01*
X35644500Y-111910000D01*
G75*
G02*
X35494500Y-112060000I-150000J0D01*
G01*
X33844500Y-112060000D01*
G75*
G02*
X33694500Y-111910000I0J150000D01*
G01*
G37*
%TD.AperFunction*%
%TO.P,U1,7*%
%TO.N,Net-(U1-Pad7)*%
%TA.AperFunction,SMDPad,CuDef*%
G36*
G01*
X33694500Y-110640000D02*
X33694500Y-110340000D01*
G75*
G02*
X33844500Y-110190000I150000J0D01*
G01*
X35494500Y-110190000D01*
G75*
G02*
X35644500Y-110340000I0J-150000D01*
G01*
X35644500Y-110640000D01*
G75*
G02*
X35494500Y-110790000I-150000J0D01*
G01*
X33844500Y-110790000D01*
G75*
G02*
X33694500Y-110640000I0J150000D01*
G01*
G37*
%TD.AperFunction*%
%TO.P,U1,8*%
%TO.N,+5V*%
%TA.AperFunction,SMDPad,CuDef*%
G36*
G01*
X33694500Y-109370000D02*
X33694500Y-109070000D01*
G75*
G02*
X33844500Y-108920000I150000J0D01*
G01*
X35494500Y-108920000D01*
G75*
G02*
X35644500Y-109070000I0J-150000D01*
G01*
X35644500Y-109370000D01*
G75*
G02*
X35494500Y-109520000I-150000J0D01*
G01*
X33844500Y-109520000D01*
G75*
G02*
X33694500Y-109370000I0J150000D01*
G01*
G37*
%TD.AperFunction*%
%TD*%
D10*
%TO.P,J1,6*%
%TO.N,GND*%
X34694500Y-114996500D03*
X29694500Y-114996500D03*
D11*
X35694500Y-117696500D03*
X28694500Y-117696500D03*
%TD*%
D12*
%TO.P,J2,1*%
%TO.N,+5V*%
X41656000Y-107950000D03*
%TD*%
%TO.P,J3,1*%
%TO.N,GND*%
X22733000Y-107950000D03*
%TD*%
D13*
%TO.N,GND*%
X31242000Y-95631000D03*
X31242000Y-98298000D03*
X31369000Y-87122000D03*
X31369000Y-84455000D03*
X31242000Y-73279000D03*
X31242000Y-75946000D03*
X31242000Y-64770000D03*
X31242000Y-62103000D03*
X31242000Y-53721000D03*
X31242000Y-50927000D03*
X31242000Y-42545000D03*
X31242000Y-39751000D03*
X31178500Y-28702000D03*
X30829250Y-31273750D03*
X31178500Y-106934000D03*
%TO.N,Net-(R1-Pad2)*%
X26988500Y-109663500D03*
%TO.N,Net-(R3-Pad2)*%
X25908000Y-28765500D03*
%TO.N,+5V*%
X38481000Y-24574500D03*
X32958010Y-112964990D03*
%TO.N,Net-(R4-Pad2)*%
X38481000Y-28767500D03*
%TO.N,Net-(R5-Pad2)*%
X38481000Y-34353500D03*
%TO.N,Net-(R6-Pad2)*%
X25908000Y-34417000D03*
X28067000Y-32893000D03*
%TO.N,Net-(R7-Pad2)*%
X25908000Y-39941500D03*
%TO.N,Net-(R8-Pad2)*%
X38481000Y-39943500D03*
%TO.N,Net-(R10-Pad1)*%
X38481000Y-45529500D03*
%TO.N,Net-(R10-Pad2)*%
X28130500Y-44005500D03*
%TO.N,Net-(R11-Pad2)*%
X25908000Y-51117500D03*
%TO.N,Net-(R12-Pad2)*%
X38481000Y-51119500D03*
%TO.N,Net-(R13-Pad2)*%
X28956000Y-29210000D03*
%TO.N,Net-(R14-Pad2)*%
X36258500Y-27559000D03*
%TO.N,Net-(R15-Pad2)*%
X35052000Y-33528000D03*
%TO.N,Net-(R16-Pad2)*%
X27749500Y-31432500D03*
%TO.N,Net-(R17-Pad2)*%
X29210000Y-40386000D03*
%TO.N,Net-(R18-Pad2)*%
X37147500Y-38735000D03*
%TO.N,Net-(R19-Pad2)*%
X35052000Y-44704000D03*
%TO.N,Net-(R20-Pad2)*%
X27749500Y-42481500D03*
%TO.N,Net-(R21-Pad2)*%
X29083000Y-51562000D03*
%TO.N,Net-(R22-Pad2)*%
X37052250Y-49942750D03*
%TO.N,Net-(R23-Pad2)*%
X38481000Y-57023000D03*
%TO.N,Net-(R24-Pad2)*%
X28130500Y-55245000D03*
%TO.N,Net-(R25-Pad2)*%
X25908000Y-62293500D03*
%TO.N,Net-(R26-Pad2)*%
X38481000Y-62295500D03*
%TO.N,Net-(R27-Pad2)*%
X38481000Y-67881500D03*
%TO.N,Net-(R28-Pad2)*%
X28067000Y-66421000D03*
%TO.N,Net-(R29-Pad2)*%
X25908000Y-73469500D03*
%TO.N,Net-(R30-Pad2)*%
X38481000Y-73473500D03*
%TO.N,Net-(R31-Pad2)*%
X38481000Y-79375000D03*
%TO.N,Net-(R32-Pad2)*%
X28130500Y-77597000D03*
%TO.N,Net-(R33-Pad2)*%
X35052000Y-55880000D03*
%TO.N,Net-(R34-Pad2)*%
X27749500Y-53784500D03*
%TO.N,Net-(R35-Pad2)*%
X28575000Y-62611000D03*
%TO.N,Net-(R36-Pad2)*%
X37115750Y-61118750D03*
%TO.N,Net-(R37-Pad2)*%
X35052000Y-67056000D03*
%TO.N,Net-(R38-Pad2)*%
X27749500Y-64960500D03*
%TO.N,Net-(R39-Pad2)*%
X29210000Y-73914000D03*
%TO.N,Net-(R40-Pad2)*%
X37084000Y-72263000D03*
%TO.N,Net-(R41-Pad2)*%
X34925000Y-78232000D03*
%TO.N,Net-(R42-Pad2)*%
X27749500Y-76136500D03*
%TO.N,Net-(R43-Pad2)*%
X25908000Y-84645500D03*
%TO.N,Net-(R44-Pad2)*%
X38481000Y-84836000D03*
%TO.N,Net-(R45-Pad2)*%
X38481000Y-90233500D03*
%TO.N,Net-(R46-Pad2)*%
X28130500Y-88773000D03*
%TO.N,Net-(R47-Pad2)*%
X25908000Y-95821500D03*
%TO.N,Net-(R48-Pad2)*%
X38481000Y-95823500D03*
%TO.N,Net-(R49-Pad2)*%
X38481000Y-101413500D03*
%TO.N,Net-(R50-Pad2)*%
X28130500Y-99949000D03*
%TO.N,Net-(R51-Pad2)*%
X25908000Y-106997500D03*
%TO.N,Net-(R52-Pad2)*%
X38481000Y-107001500D03*
%TO.N,Net-(R54-Pad2)*%
X29083000Y-85090000D03*
%TO.N,Net-(R55-Pad2)*%
X37084000Y-83439000D03*
%TO.N,Net-(R56-Pad2)*%
X34925000Y-89535000D03*
%TO.N,Net-(R57-Pad2)*%
X27749500Y-87312500D03*
%TO.N,Net-(R58-Pad2)*%
X29210000Y-96266000D03*
%TO.N,Net-(R59-Pad2)*%
X36988750Y-94646750D03*
%TO.N,Net-(R60-Pad2)*%
X35052000Y-100584000D03*
%TO.N,Net-(R61-Pad2)*%
X27749500Y-98488500D03*
%TO.N,Net-(R62-Pad2)*%
X29083000Y-107442000D03*
%TO.N,Net-(R63-Pad2)*%
X37084000Y-105791000D03*
%TO.N,Net-(U1-Pad1)*%
X31369000Y-110490000D03*
%TD*%
D14*
%TO.N,Net-(D1-Pad2)*%
X30730000Y-26035000D02*
X28825000Y-26035000D01*
X30662500Y-25840500D02*
X30730000Y-25908000D01*
X28575000Y-25840500D02*
X30662500Y-25840500D01*
%TO.N,GND*%
X27813000Y-113030000D02*
X27305000Y-112522000D01*
X29910000Y-113030000D02*
X27813000Y-113030000D01*
X30730000Y-106807000D02*
X32258000Y-108335000D01*
X30823000Y-113030000D02*
X29848000Y-113030000D01*
X32258000Y-111595000D02*
X30823000Y-113030000D01*
X32258000Y-108335000D02*
X32258000Y-111722000D01*
X33274000Y-26035000D02*
X30734000Y-28575000D01*
X33655000Y-26035000D02*
X33274000Y-26035000D01*
X33270000Y-37211000D02*
X30730000Y-39751000D01*
X33655000Y-37211000D02*
X33270000Y-37211000D01*
X33270000Y-48387000D02*
X30730000Y-50927000D01*
X33655000Y-48387000D02*
X33270000Y-48387000D01*
X33270000Y-59563000D02*
X30730000Y-62103000D01*
X33655000Y-59563000D02*
X33270000Y-59563000D01*
X33270000Y-70739000D02*
X30730000Y-73279000D01*
X33655000Y-70739000D02*
X33270000Y-70739000D01*
X33270000Y-81915000D02*
X30730000Y-84455000D01*
X33655000Y-81915000D02*
X33270000Y-81915000D01*
X33270000Y-93091000D02*
X30730000Y-95631000D01*
X33655000Y-93091000D02*
X33270000Y-93091000D01*
X33270000Y-104267000D02*
X30730000Y-106807000D01*
X33655000Y-104267000D02*
X33270000Y-104267000D01*
X37465000Y-112522000D02*
X37465000Y-113538000D01*
X31673001Y-113880001D02*
X30823000Y-113030000D01*
X37465000Y-113538000D02*
X37122999Y-113880001D01*
X33274000Y-34163000D02*
X30734000Y-31623000D01*
X33659000Y-34163000D02*
X33274000Y-34163000D01*
X33270000Y-45339000D02*
X30730000Y-42799000D01*
X33655000Y-45339000D02*
X33270000Y-45339000D01*
X33270000Y-56515000D02*
X30730000Y-53975000D01*
X33659000Y-56515000D02*
X33270000Y-56515000D01*
X33270000Y-67691000D02*
X30730000Y-65151000D01*
X33659000Y-67691000D02*
X33270000Y-67691000D01*
X33270000Y-78867000D02*
X30730000Y-76327000D01*
X33655000Y-78867000D02*
X33270000Y-78867000D01*
X33270000Y-90043000D02*
X30730000Y-87503000D01*
X33659000Y-90043000D02*
X33270000Y-90043000D01*
X33270000Y-101219000D02*
X30730000Y-98679000D01*
X33659000Y-101219000D02*
X33270000Y-101219000D01*
X30861000Y-98679000D02*
X31242000Y-98298000D01*
X30730000Y-98679000D02*
X30861000Y-98679000D01*
X31242000Y-95631000D02*
X30730000Y-95631000D01*
X31111000Y-87122000D02*
X30730000Y-87503000D01*
X31369000Y-87122000D02*
X31111000Y-87122000D01*
X31369000Y-84455000D02*
X30730000Y-84455000D01*
X33494500Y-114996500D02*
X33494500Y-113885500D01*
X33489001Y-113880001D02*
X31673001Y-113880001D01*
X33494500Y-113885500D02*
X33489001Y-113880001D01*
X37122999Y-113880001D02*
X33489001Y-113880001D01*
%TO.N,Net-(D2-Pad2)*%
X33722500Y-28767500D02*
X33657000Y-28702000D01*
X35814000Y-28767500D02*
X33722500Y-28767500D01*
%TO.N,Net-(D3-Pad2)*%
X33782000Y-31746000D02*
X33659000Y-31623000D01*
X35814000Y-31746000D02*
X33782000Y-31746000D01*
%TO.N,Net-(D4-Pad2)*%
X30732000Y-34290000D02*
X28640500Y-34290000D01*
%TO.N,Net-(D5-Pad2)*%
X28698000Y-37211000D02*
X28575000Y-37334000D01*
X30730000Y-37211000D02*
X28698000Y-37211000D01*
%TO.N,Net-(D6-Pad2)*%
X35306000Y-39751000D02*
X35814000Y-40259000D01*
X33655000Y-39751000D02*
X35306000Y-39751000D01*
%TO.N,Net-(D7-Pad2)*%
X35691000Y-42799000D02*
X35814000Y-42922000D01*
X33655000Y-42799000D02*
X35691000Y-42799000D01*
%TO.N,Net-(D8-Pad2)*%
X30666500Y-45402500D02*
X30730000Y-45466000D01*
X28575000Y-45402500D02*
X30666500Y-45402500D01*
%TO.N,Net-(D9-Pad2)*%
X28698000Y-48387000D02*
X28575000Y-48510000D01*
X30730000Y-48387000D02*
X28698000Y-48387000D01*
%TO.N,Net-(D10-Pad2)*%
X35302000Y-50927000D02*
X35814000Y-51439000D01*
X33655000Y-50927000D02*
X35302000Y-50927000D01*
%TO.N,Net-(D11-Pad2)*%
X33778000Y-54098000D02*
X33655000Y-53975000D01*
X35814000Y-54098000D02*
X33778000Y-54098000D01*
%TO.N,Net-(D12-Pad2)*%
X28640500Y-56642000D02*
X28575000Y-56707500D01*
X30734000Y-56642000D02*
X28640500Y-56642000D01*
%TO.N,Net-(D13-Pad2)*%
X28698000Y-59563000D02*
X28575000Y-59686000D01*
X28640500Y-59436000D02*
X28575000Y-59370500D01*
X30730000Y-59436000D02*
X28640500Y-59436000D01*
%TO.N,Net-(D14-Pad2)*%
X35306000Y-62103000D02*
X35814000Y-62611000D01*
X33655000Y-62103000D02*
X35306000Y-62103000D01*
%TO.N,Net-(D15-Pad2)*%
X35691000Y-65151000D02*
X35814000Y-65274000D01*
X33655000Y-65151000D02*
X35691000Y-65151000D01*
%TO.N,Net-(D16-Pad2)*%
X28640500Y-67818000D02*
X28575000Y-67883500D01*
X30732000Y-67818000D02*
X28640500Y-67818000D01*
%TO.N,Net-(D17-Pad2)*%
X28698000Y-70739000D02*
X28575000Y-70862000D01*
X30730000Y-70739000D02*
X28698000Y-70739000D01*
%TO.N,Net-(D18-Pad2)*%
X35302000Y-73279000D02*
X35814000Y-73791000D01*
X33655000Y-73279000D02*
X35302000Y-73279000D01*
%TO.N,Net-(D19-Pad2)*%
X33778000Y-76450000D02*
X33655000Y-76327000D01*
X33720500Y-76134500D02*
X33655000Y-76200000D01*
X35814000Y-76134500D02*
X33720500Y-76134500D01*
%TO.N,Net-(D20-Pad2)*%
X28640500Y-78994000D02*
X28575000Y-79059500D01*
X30730000Y-78994000D02*
X28640500Y-78994000D01*
%TO.N,Net-(D21-Pad2)*%
X28698000Y-81915000D02*
X28575000Y-82038000D01*
X30730000Y-81915000D02*
X28698000Y-81915000D01*
%TO.N,Net-(D22-Pad2)*%
X35302000Y-84455000D02*
X35814000Y-84967000D01*
X33655000Y-84455000D02*
X35302000Y-84455000D01*
%TO.N,Net-(D23-Pad2)*%
X35810000Y-87503000D02*
X35814000Y-87499000D01*
X33655000Y-87503000D02*
X35810000Y-87503000D01*
%TO.N,Net-(D24-Pad2)*%
X28640500Y-90170000D02*
X28575000Y-90235500D01*
X30732000Y-90170000D02*
X28640500Y-90170000D01*
%TO.N,Net-(D25-Pad2)*%
X28698000Y-93091000D02*
X28575000Y-93214000D01*
X30730000Y-93091000D02*
X28698000Y-93091000D01*
%TO.N,Net-(D26-Pad2)*%
X35302000Y-95631000D02*
X35814000Y-96143000D01*
X33655000Y-95631000D02*
X35302000Y-95631000D01*
%TO.N,Net-(D27-Pad2)*%
X35691000Y-98679000D02*
X35814000Y-98802000D01*
X33655000Y-98679000D02*
X35691000Y-98679000D01*
%TO.N,Net-(D28-Pad2)*%
X28640500Y-101346000D02*
X28575000Y-101411500D01*
X30732000Y-101346000D02*
X28640500Y-101346000D01*
%TO.N,Net-(D29-Pad2)*%
X28698000Y-104267000D02*
X28575000Y-104390000D01*
X30730000Y-104267000D02*
X28698000Y-104267000D01*
%TO.N,Net-(D30-Pad2)*%
X35306000Y-106807000D02*
X35814000Y-107315000D01*
X33655000Y-106807000D02*
X35306000Y-106807000D01*
%TO.N,Net-(R3-Pad2)*%
X37040988Y-24582990D02*
X38300498Y-25842500D01*
X38300498Y-25842500D02*
X38481000Y-25842500D01*
X27905044Y-24582990D02*
X37040988Y-24582990D01*
X27249990Y-25238044D02*
X27905044Y-24582990D01*
X27249990Y-27427510D02*
X27249990Y-25238044D01*
X27245990Y-27427510D02*
X25908000Y-28765500D01*
X27249990Y-27427510D02*
X27245990Y-27427510D01*
%TO.N,+5V*%
X27307020Y-23882980D02*
X37598980Y-23882980D01*
X25908000Y-25282000D02*
X27307020Y-23882980D01*
X25908000Y-25844500D02*
X25908000Y-25282000D01*
X37598980Y-23882980D02*
X37789480Y-23882980D01*
X37789480Y-23882980D02*
X38481000Y-24574500D01*
X38481000Y-24574500D02*
X38481000Y-24574500D01*
X34082000Y-108920000D02*
X32958010Y-110043990D01*
X34369500Y-108920000D02*
X34082000Y-108920000D01*
X34669500Y-109220000D02*
X34369500Y-108920000D01*
X32958010Y-110043990D02*
X32958010Y-112964990D01*
X32958010Y-112964990D02*
X32958010Y-112964990D01*
%TO.N,Net-(R4-Pad2)*%
X38481000Y-28767500D02*
X38481000Y-28767500D01*
X38481000Y-28767500D02*
X38481000Y-31428500D01*
%TO.N,Net-(R5-Pad2)*%
X36372967Y-30060001D02*
X37155990Y-30843024D01*
X27278499Y-30060001D02*
X36372967Y-30060001D01*
X25908000Y-31430500D02*
X27278499Y-30060001D01*
X37155990Y-33028490D02*
X38481000Y-34353500D01*
X37155990Y-30843024D02*
X37155990Y-33028490D01*
X38481000Y-34353500D02*
X38481000Y-34353500D01*
%TO.N,Net-(R6-Pad2)*%
X25908000Y-37018500D02*
X25908000Y-34417000D01*
X25908000Y-34417000D02*
X25908000Y-34355500D01*
X27432000Y-32893000D02*
X25908000Y-34417000D01*
X28067000Y-32893000D02*
X27432000Y-32893000D01*
%TO.N,Net-(R7-Pad2)*%
X27233010Y-36416044D02*
X27233010Y-38618490D01*
X27890064Y-35758990D02*
X27233010Y-36416044D01*
X37221490Y-35758990D02*
X27890064Y-35758990D01*
X38481000Y-37018500D02*
X37221490Y-35758990D01*
X27231010Y-38618490D02*
X25908000Y-39941500D01*
X27233010Y-38618490D02*
X27231010Y-38618490D01*
%TO.N,Net-(R8-Pad2)*%
X38481000Y-40259000D02*
X38481000Y-40259000D01*
X38481000Y-42604500D02*
X38481000Y-39943500D01*
X38481000Y-39943500D02*
X38481000Y-39943500D01*
%TO.N,Net-(R10-Pad1)*%
X37155990Y-42002044D02*
X37155990Y-44204490D01*
X36500936Y-41346990D02*
X37155990Y-42002044D01*
X37155990Y-44204490D02*
X38481000Y-45529500D01*
X27042510Y-41346990D02*
X36500936Y-41346990D01*
X25908000Y-42481500D02*
X27042510Y-41346990D01*
%TO.N,Net-(R10-Pad2)*%
X25908000Y-48194500D02*
X25908000Y-45406500D01*
X25908000Y-45406500D02*
X27309000Y-44005500D01*
X27309000Y-44005500D02*
X28130500Y-44005500D01*
X28130500Y-44005500D02*
X28130500Y-44005500D01*
%TO.N,Net-(R11-Pad2)*%
X27233010Y-47592044D02*
X27233010Y-49794490D01*
X27890064Y-46934990D02*
X27233010Y-47592044D01*
X37221490Y-46934990D02*
X27890064Y-46934990D01*
X38481000Y-48194500D02*
X37221490Y-46934990D01*
X27231010Y-49794490D02*
X25908000Y-51117500D01*
X27233010Y-49794490D02*
X27231010Y-49794490D01*
%TO.N,Net-(R12-Pad2)*%
X38481000Y-54098000D02*
X38481000Y-51119500D01*
X38481000Y-51119500D02*
X38481000Y-51119500D01*
%TO.N,Net-(R14-Pad2)*%
X35814000Y-27114500D02*
X36258500Y-27559000D01*
X35814000Y-25842500D02*
X35814000Y-27114500D01*
%TO.N,Net-(R15-Pad2)*%
X35814000Y-34671000D02*
X35052000Y-33909000D01*
X35052000Y-33909000D02*
X35052000Y-33528000D01*
X35052000Y-33528000D02*
X35052000Y-33528000D01*
%TO.N,Net-(R18-Pad2)*%
X35814000Y-37401500D02*
X37147500Y-38735000D01*
X35814000Y-37018500D02*
X35814000Y-37401500D01*
%TO.N,Net-(R19-Pad2)*%
X35814000Y-45847000D02*
X35052000Y-45085000D01*
X35052000Y-45085000D02*
X35052000Y-44704000D01*
X35052000Y-44704000D02*
X35052000Y-44704000D01*
%TO.N,Net-(R22-Pad2)*%
X35814000Y-48704500D02*
X37052250Y-49942750D01*
X35814000Y-48194500D02*
X35814000Y-48704500D01*
%TO.N,Net-(R23-Pad2)*%
X38481000Y-57023000D02*
X38481000Y-57023000D01*
X37155990Y-55697990D02*
X38481000Y-57023000D01*
X27167510Y-52522990D02*
X25908000Y-53782500D01*
X36481956Y-52522990D02*
X27167510Y-52522990D01*
X37155990Y-55109510D02*
X37155990Y-53197024D01*
X37155990Y-53197024D02*
X36481956Y-52522990D01*
X37155990Y-53495544D02*
X37155990Y-55109510D01*
X37155990Y-55109510D02*
X37155990Y-55697990D01*
%TO.N,Net-(R24-Pad2)*%
X25908000Y-56707500D02*
X27370500Y-55245000D01*
X27370500Y-55245000D02*
X28130500Y-55245000D01*
X28130500Y-55245000D02*
X28130500Y-55245000D01*
X25908000Y-56707500D02*
X25908000Y-59370500D01*
%TO.N,Net-(R25-Pad2)*%
X27233010Y-58785024D02*
X27233010Y-60970490D01*
X27660044Y-58357990D02*
X27233010Y-58785024D01*
X29880544Y-58357990D02*
X27660044Y-58357990D01*
X30127544Y-58110990D02*
X29880544Y-58357990D01*
X34257456Y-58110990D02*
X30127544Y-58110990D01*
X34504456Y-58357990D02*
X34257456Y-58110990D01*
X37468490Y-58357990D02*
X34504456Y-58357990D01*
X38481000Y-59370500D02*
X37468490Y-58357990D01*
X27231010Y-60970490D02*
X25908000Y-62293500D01*
X27233010Y-60970490D02*
X27231010Y-60970490D01*
%TO.N,Net-(R26-Pad2)*%
X38481000Y-62549500D02*
X38481000Y-62549500D01*
X38481000Y-64960500D02*
X38481000Y-62295500D01*
X38481000Y-62295500D02*
X38481000Y-62295500D01*
%TO.N,Net-(R27-Pad2)*%
X36496936Y-63698990D02*
X37155990Y-64358044D01*
X37155990Y-64358044D02*
X37155990Y-66560490D01*
X27167510Y-63698990D02*
X36496936Y-63698990D01*
X25908000Y-64958500D02*
X27167510Y-63698990D01*
X37155990Y-66560490D02*
X38481000Y-67885500D01*
%TO.N,Net-(R28-Pad2)*%
X25908000Y-70546500D02*
X25908000Y-67883500D01*
X25908000Y-67883500D02*
X27370500Y-66421000D01*
X27370500Y-66421000D02*
X28067000Y-66421000D01*
X28067000Y-66421000D02*
X28194000Y-66421000D01*
%TO.N,Net-(R29-Pad2)*%
X27249990Y-69944044D02*
X27249990Y-72129510D01*
X27907044Y-69286990D02*
X27249990Y-69944044D01*
X37219490Y-69286990D02*
X27907044Y-69286990D01*
X38481000Y-70548500D02*
X37219490Y-69286990D01*
X27247990Y-72129510D02*
X25908000Y-73469500D01*
X27249990Y-72129510D02*
X27247990Y-72129510D01*
%TO.N,Net-(R30-Pad2)*%
X38481000Y-76454000D02*
X38481000Y-73473500D01*
X38481000Y-73473500D02*
X38481000Y-73473500D01*
%TO.N,Net-(R31-Pad2)*%
X37139010Y-78033010D02*
X38481000Y-79375000D01*
X37139010Y-75847544D02*
X37139010Y-76890010D01*
X37139010Y-76890010D02*
X37139010Y-78033010D01*
X27167510Y-74874990D02*
X25908000Y-76134500D01*
X36481958Y-74874990D02*
X27167510Y-74874990D01*
X37139010Y-75532042D02*
X36481958Y-74874990D01*
X37139010Y-76890010D02*
X37139010Y-75532042D01*
%TO.N,Net-(R32-Pad2)*%
X25908000Y-81722500D02*
X25908000Y-79059500D01*
X25908000Y-79059500D02*
X27370500Y-77597000D01*
X27370500Y-77597000D02*
X28130500Y-77597000D01*
X28130500Y-77597000D02*
X28130500Y-77597000D01*
%TO.N,Net-(R33-Pad2)*%
X35814000Y-57023000D02*
X35052000Y-56261000D01*
X35052000Y-56261000D02*
X35052000Y-55880000D01*
X35052000Y-55880000D02*
X35052000Y-55880000D01*
%TO.N,Net-(R34-Pad2)*%
X28702000Y-53975000D02*
X28575000Y-54102000D01*
%TO.N,Net-(R36-Pad2)*%
X35814000Y-59817000D02*
X37115750Y-61118750D01*
X35814000Y-59370500D02*
X35814000Y-59817000D01*
%TO.N,Net-(R37-Pad2)*%
X35814000Y-68199000D02*
X35052000Y-67437000D01*
X35052000Y-67437000D02*
X35052000Y-67056000D01*
X35052000Y-67056000D02*
X35052000Y-67056000D01*
%TO.N,Net-(R40-Pad2)*%
X35814000Y-70993000D02*
X37084000Y-72263000D01*
X35814000Y-70548500D02*
X35814000Y-70993000D01*
%TO.N,Net-(R41-Pad2)*%
X35814000Y-79375000D02*
X34925000Y-78486000D01*
X34925000Y-78486000D02*
X34925000Y-78232000D01*
X34925000Y-78232000D02*
X34925000Y-78232000D01*
%TO.N,Net-(R43-Pad2)*%
X29880544Y-80709990D02*
X27660044Y-80709990D01*
X27660044Y-80709990D02*
X27233010Y-81137024D01*
X30127544Y-80462990D02*
X29880544Y-80709990D01*
X36967490Y-80462990D02*
X30127544Y-80462990D01*
X27233010Y-81137024D02*
X27233010Y-83322490D01*
X38481000Y-81976500D02*
X36967490Y-80462990D01*
X27231010Y-83322490D02*
X25908000Y-84645500D01*
X27233010Y-83322490D02*
X27231010Y-83322490D01*
%TO.N,Net-(R44-Pad2)*%
X38481000Y-84901500D02*
X38481000Y-87626000D01*
%TO.N,Net-(R45-Pad2)*%
X37155990Y-86723024D02*
X37155990Y-88908490D01*
X37155990Y-88908490D02*
X38481000Y-90233500D01*
X36412476Y-85979510D02*
X37155990Y-86723024D01*
X27238990Y-85979510D02*
X36412476Y-85979510D01*
X25908000Y-87310500D02*
X27238990Y-85979510D01*
%TO.N,Net-(R46-Pad2)*%
X25908000Y-92898500D02*
X25908000Y-90235500D01*
X25908000Y-90235500D02*
X27370500Y-88773000D01*
X27370500Y-88773000D02*
X28130500Y-88773000D01*
X28130500Y-88773000D02*
X28130500Y-88773000D01*
%TO.N,Net-(R47-Pad2)*%
X27233010Y-92313024D02*
X27233010Y-94498490D01*
X27907044Y-91638990D02*
X27233010Y-92313024D01*
X37221490Y-91638990D02*
X27907044Y-91638990D01*
X38481000Y-92898500D02*
X37221490Y-91638990D01*
X27233010Y-94498490D02*
X25908000Y-95823500D01*
%TO.N,Net-(R48-Pad2)*%
X38481000Y-98488500D02*
X38481000Y-95823500D01*
X38481000Y-95823500D02*
X38481000Y-95823500D01*
%TO.N,Net-(R49-Pad2)*%
X37155990Y-100088490D02*
X38481000Y-101413500D01*
X37155990Y-97899024D02*
X37155990Y-100088490D01*
X36728956Y-97471990D02*
X37155990Y-97899024D01*
X34502456Y-97471990D02*
X36728956Y-97471990D01*
X34257456Y-97226990D02*
X34502456Y-97471990D01*
X27167510Y-97226990D02*
X34257456Y-97226990D01*
X25908000Y-98486500D02*
X27167510Y-97226990D01*
X38481000Y-101413500D02*
X38481000Y-101413500D01*
%TO.N,Net-(R50-Pad2)*%
X25908000Y-104074500D02*
X25908000Y-101411500D01*
X25908000Y-101411500D02*
X27370500Y-99949000D01*
X27370500Y-99949000D02*
X28130500Y-99949000D01*
X28130500Y-99949000D02*
X28130500Y-99949000D01*
%TO.N,Net-(R51-Pad2)*%
X27233010Y-103489024D02*
X27233010Y-105674490D01*
X37219490Y-102814990D02*
X27907044Y-102814990D01*
X27907044Y-102814990D02*
X27233010Y-103489024D01*
X38481000Y-104076500D02*
X37219490Y-102814990D01*
X27233010Y-105674490D02*
X25908000Y-106999500D01*
%TO.N,Net-(R52-Pad2)*%
X38481000Y-107319000D02*
X38481000Y-107319000D01*
X38481000Y-108583000D02*
X37401500Y-109662500D01*
X38481000Y-107001500D02*
X38481000Y-107001500D01*
X38481000Y-107001500D02*
X38481000Y-108583000D01*
%TO.N,Net-(R55-Pad2)*%
X35814000Y-82169000D02*
X37084000Y-83439000D01*
X35814000Y-82042000D02*
X35814000Y-82169000D01*
%TO.N,Net-(R56-Pad2)*%
X35814000Y-90424000D02*
X35052000Y-89662000D01*
X35814000Y-90424000D02*
X34925000Y-89535000D01*
X34925000Y-89535000D02*
X34925000Y-89535000D01*
%TO.N,Net-(R59-Pad2)*%
X35814000Y-93472000D02*
X36988750Y-94646750D01*
X35814000Y-92898500D02*
X35814000Y-93472000D01*
%TO.N,Net-(R60-Pad2)*%
X35814000Y-101727000D02*
X35052000Y-100965000D01*
X35052000Y-100965000D02*
X35052000Y-100584000D01*
X35052000Y-100584000D02*
X35052000Y-100584000D01*
%TO.N,Net-(R63-Pad2)*%
X35814000Y-104521000D02*
X37084000Y-105791000D01*
X35814000Y-104072500D02*
X35814000Y-104521000D01*
%TO.N,Net-(U1-Pad1)*%
X31369000Y-109664500D02*
X30924500Y-109220000D01*
X31369000Y-110490000D02*
X31369000Y-109664500D01*
X29848000Y-109220000D02*
X30924500Y-109220000D01*
%TD*%
D15*
%TO.N,GND*%
X24462528Y-99138852D02*
X24544595Y-99292388D01*
X24655037Y-99426963D01*
X24789612Y-99537405D01*
X24943148Y-99619472D01*
X25109743Y-99670008D01*
X25282997Y-99687072D01*
X26380849Y-99687072D01*
X25856994Y-100210928D01*
X25282997Y-100210928D01*
X25109743Y-100227992D01*
X24943148Y-100278528D01*
X24789612Y-100360595D01*
X24655037Y-100471037D01*
X24544595Y-100605612D01*
X24462528Y-100759148D01*
X24411992Y-100925743D01*
X24394928Y-101098997D01*
X24394928Y-101724003D01*
X24411992Y-101897257D01*
X24462528Y-102063852D01*
X24544595Y-102217388D01*
X24655037Y-102351963D01*
X24789612Y-102462405D01*
X24943148Y-102544472D01*
X25023001Y-102568695D01*
X25023000Y-102917305D01*
X24943148Y-102941528D01*
X24789612Y-103023595D01*
X24655037Y-103134037D01*
X24544595Y-103268612D01*
X24462528Y-103422148D01*
X24411992Y-103588743D01*
X24394928Y-103761997D01*
X24394928Y-104387003D01*
X24411992Y-104560257D01*
X24462528Y-104726852D01*
X24544595Y-104880388D01*
X24655037Y-105014963D01*
X24789612Y-105125405D01*
X24943148Y-105207472D01*
X25109743Y-105258008D01*
X25282997Y-105275072D01*
X26348011Y-105275072D01*
X26348011Y-105307910D01*
X25856994Y-105798928D01*
X25282997Y-105798928D01*
X25109743Y-105815992D01*
X24943148Y-105866528D01*
X24789612Y-105948595D01*
X24655037Y-106059037D01*
X24544595Y-106193612D01*
X24462528Y-106347148D01*
X24411992Y-106513743D01*
X24394928Y-106686997D01*
X24394928Y-107312003D01*
X24411992Y-107485257D01*
X24462528Y-107651852D01*
X24544595Y-107805388D01*
X24655037Y-107939963D01*
X24789612Y-108050405D01*
X24943148Y-108132472D01*
X25109743Y-108183008D01*
X25282997Y-108200072D01*
X26533003Y-108200072D01*
X26706257Y-108183008D01*
X26872852Y-108132472D01*
X27026388Y-108050405D01*
X27160963Y-107939963D01*
X27241500Y-107841828D01*
X27322037Y-107939963D01*
X27456612Y-108050405D01*
X27610148Y-108132472D01*
X27776743Y-108183008D01*
X27949997Y-108200072D01*
X28377361Y-108200072D01*
X28423226Y-108245937D01*
X28578446Y-108349651D01*
X28456671Y-108414742D01*
X28337249Y-108512749D01*
X28239242Y-108632171D01*
X28206226Y-108693940D01*
X28105888Y-108611595D01*
X27952352Y-108529528D01*
X27785757Y-108478992D01*
X27612503Y-108461928D01*
X26362497Y-108461928D01*
X26189243Y-108478992D01*
X26022648Y-108529528D01*
X25869112Y-108611595D01*
X25734537Y-108722037D01*
X25624095Y-108856612D01*
X25542028Y-109010148D01*
X25491492Y-109176743D01*
X25474428Y-109349997D01*
X25474428Y-109975003D01*
X25491492Y-110148257D01*
X25542028Y-110314852D01*
X25624095Y-110468388D01*
X25734537Y-110602963D01*
X25869112Y-110713405D01*
X26022648Y-110795472D01*
X26189243Y-110846008D01*
X26362497Y-110863072D01*
X27612503Y-110863072D01*
X27785757Y-110846008D01*
X27952352Y-110795472D01*
X28105888Y-110713405D01*
X28113077Y-110707505D01*
X28121571Y-110793745D01*
X28166416Y-110941582D01*
X28239242Y-111077829D01*
X28277954Y-111125000D01*
X28239242Y-111172171D01*
X28166416Y-111308418D01*
X28124911Y-111445243D01*
X28106680Y-111435498D01*
X27986982Y-111399188D01*
X27862500Y-111386928D01*
X27273250Y-111390000D01*
X27114500Y-111548750D01*
X27114500Y-112460500D01*
X27134500Y-112460500D01*
X27134500Y-112714500D01*
X27114500Y-112714500D01*
X27114500Y-113626250D01*
X27273250Y-113785000D01*
X27862500Y-113788072D01*
X27986982Y-113775812D01*
X28106680Y-113739502D01*
X28212991Y-113682676D01*
X28213963Y-113684494D01*
X28293315Y-113781185D01*
X28390006Y-113860537D01*
X28500320Y-113919502D01*
X28620018Y-113955812D01*
X28744500Y-113968072D01*
X28958838Y-113967117D01*
X28934972Y-114057367D01*
X29694500Y-114816895D01*
X30454028Y-114057367D01*
X30430103Y-113966894D01*
X30694500Y-113968072D01*
X30818982Y-113955812D01*
X30938680Y-113919502D01*
X31048994Y-113860537D01*
X31145685Y-113781185D01*
X31225037Y-113684494D01*
X31284002Y-113574180D01*
X31320312Y-113454482D01*
X31332572Y-113330000D01*
X31329500Y-113315750D01*
X31170750Y-113157000D01*
X29846500Y-113157000D01*
X29846500Y-113177000D01*
X29592500Y-113177000D01*
X29592500Y-113157000D01*
X29572500Y-113157000D01*
X29572500Y-112903000D01*
X29592500Y-112903000D01*
X29592500Y-112883000D01*
X29846500Y-112883000D01*
X29846500Y-112903000D01*
X31170750Y-112903000D01*
X31329500Y-112744250D01*
X31332572Y-112730000D01*
X31320312Y-112605518D01*
X31284002Y-112485820D01*
X31225037Y-112375506D01*
X31200770Y-112345936D01*
X31272584Y-112211582D01*
X31317429Y-112063745D01*
X31332572Y-111910000D01*
X31332572Y-111610000D01*
X31324200Y-111525000D01*
X31470939Y-111525000D01*
X31670898Y-111485226D01*
X31859256Y-111407205D01*
X32028774Y-111293937D01*
X32073010Y-111249701D01*
X32073011Y-112426534D01*
X32040805Y-112474734D01*
X31962784Y-112663092D01*
X31923010Y-112863051D01*
X31923010Y-113066929D01*
X31962784Y-113266888D01*
X32040805Y-113455246D01*
X32154073Y-113624764D01*
X32298236Y-113768927D01*
X32467754Y-113882195D01*
X32656112Y-113960216D01*
X32856071Y-113999990D01*
X33059949Y-113999990D01*
X33259908Y-113960216D01*
X33448266Y-113882195D01*
X33468806Y-113868470D01*
X33542918Y-113908084D01*
X33690755Y-113952929D01*
X33844500Y-113968072D01*
X33958586Y-113968072D01*
X33934972Y-114057367D01*
X34694500Y-114816895D01*
X35454028Y-114057367D01*
X35430414Y-113968072D01*
X35494500Y-113968072D01*
X35648245Y-113952929D01*
X35796082Y-113908084D01*
X35932329Y-113835258D01*
X36051751Y-113737251D01*
X36127960Y-113644390D01*
X36172006Y-113680537D01*
X36282320Y-113739502D01*
X36402018Y-113775812D01*
X36526500Y-113788072D01*
X37115750Y-113785000D01*
X37274500Y-113626250D01*
X37274500Y-112714500D01*
X37528500Y-112714500D01*
X37528500Y-113626250D01*
X37687250Y-113785000D01*
X38276500Y-113788072D01*
X38400982Y-113775812D01*
X38520680Y-113739502D01*
X38630994Y-113680537D01*
X38727685Y-113601185D01*
X38807037Y-113504494D01*
X38866002Y-113394180D01*
X38902312Y-113274482D01*
X38914572Y-113150000D01*
X38911500Y-112873250D01*
X38752750Y-112714500D01*
X37528500Y-112714500D01*
X37274500Y-112714500D01*
X37254500Y-112714500D01*
X37254500Y-112460500D01*
X37274500Y-112460500D01*
X37274500Y-111548750D01*
X37528500Y-111548750D01*
X37528500Y-112460500D01*
X38752750Y-112460500D01*
X38911500Y-112301750D01*
X38914572Y-112025000D01*
X38902312Y-111900518D01*
X38866002Y-111780820D01*
X38807037Y-111670506D01*
X38727685Y-111573815D01*
X38630994Y-111494463D01*
X38520680Y-111435498D01*
X38400982Y-111399188D01*
X38276500Y-111386928D01*
X37687250Y-111390000D01*
X37528500Y-111548750D01*
X37274500Y-111548750D01*
X37115750Y-111390000D01*
X36526500Y-111386928D01*
X36402018Y-111399188D01*
X36282320Y-111435498D01*
X36264089Y-111445243D01*
X36222584Y-111308418D01*
X36149758Y-111172171D01*
X36111046Y-111125000D01*
X36149758Y-111077829D01*
X36222584Y-110941582D01*
X36267429Y-110793745D01*
X36275923Y-110707505D01*
X36283112Y-110713405D01*
X36436648Y-110795472D01*
X36603243Y-110846008D01*
X36776497Y-110863072D01*
X38026503Y-110863072D01*
X38199757Y-110846008D01*
X38366352Y-110795472D01*
X38519888Y-110713405D01*
X38654463Y-110602963D01*
X38764905Y-110468388D01*
X38846972Y-110314852D01*
X38897508Y-110148257D01*
X38914572Y-109975003D01*
X38914572Y-109401007D01*
X39076049Y-109239530D01*
X39109817Y-109211817D01*
X39141474Y-109173244D01*
X39220411Y-109077059D01*
X39302589Y-108923314D01*
X39353195Y-108756490D01*
X39361394Y-108673240D01*
X39366000Y-108626477D01*
X39366000Y-108626469D01*
X39370281Y-108583000D01*
X39366000Y-108539531D01*
X39366000Y-108158695D01*
X39445852Y-108134472D01*
X39599388Y-108052405D01*
X39733963Y-107941963D01*
X39844405Y-107807388D01*
X39926472Y-107653852D01*
X39977008Y-107487257D01*
X39994072Y-107314003D01*
X39994072Y-107100000D01*
X40167928Y-107100000D01*
X40167928Y-108800000D01*
X40180188Y-108924482D01*
X40216498Y-109044180D01*
X40275463Y-109154494D01*
X40354815Y-109251185D01*
X40451506Y-109330537D01*
X40561820Y-109389502D01*
X40681518Y-109425812D01*
X40806000Y-109438072D01*
X42506000Y-109438072D01*
X42630482Y-109425812D01*
X42750180Y-109389502D01*
X42860494Y-109330537D01*
X42957185Y-109251185D01*
X43036537Y-109154494D01*
X43095502Y-109044180D01*
X43131812Y-108924482D01*
X43144072Y-108800000D01*
X43144072Y-107100000D01*
X43131812Y-106975518D01*
X43095502Y-106855820D01*
X43036537Y-106745506D01*
X42957185Y-106648815D01*
X42860494Y-106569463D01*
X42750180Y-106510498D01*
X42630482Y-106474188D01*
X42506000Y-106461928D01*
X40806000Y-106461928D01*
X40681518Y-106474188D01*
X40561820Y-106510498D01*
X40451506Y-106569463D01*
X40354815Y-106648815D01*
X40275463Y-106745506D01*
X40216498Y-106855820D01*
X40180188Y-106975518D01*
X40167928Y-107100000D01*
X39994072Y-107100000D01*
X39994072Y-106688997D01*
X39977008Y-106515743D01*
X39926472Y-106349148D01*
X39844405Y-106195612D01*
X39733963Y-106061037D01*
X39599388Y-105950595D01*
X39445852Y-105868528D01*
X39279257Y-105817992D01*
X39106003Y-105800928D01*
X38119000Y-105800928D01*
X38119000Y-105689061D01*
X38079226Y-105489102D01*
X38001205Y-105300744D01*
X37985388Y-105277072D01*
X39106003Y-105277072D01*
X39279257Y-105260008D01*
X39445852Y-105209472D01*
X39599388Y-105127405D01*
X39733963Y-105016963D01*
X39844405Y-104882388D01*
X39926472Y-104728852D01*
X39977008Y-104562257D01*
X39994072Y-104389003D01*
X39994072Y-103763997D01*
X39977008Y-103590743D01*
X39926472Y-103424148D01*
X39844405Y-103270612D01*
X39733963Y-103136037D01*
X39599388Y-103025595D01*
X39445852Y-102943528D01*
X39279257Y-102892992D01*
X39106003Y-102875928D01*
X38532007Y-102875928D01*
X38270150Y-102614072D01*
X39106003Y-102614072D01*
X39279257Y-102597008D01*
X39445852Y-102546472D01*
X39599388Y-102464405D01*
X39733963Y-102353963D01*
X39844405Y-102219388D01*
X39926472Y-102065852D01*
X39977008Y-101899257D01*
X39994072Y-101726003D01*
X39994072Y-101100997D01*
X39977008Y-100927743D01*
X39926472Y-100761148D01*
X39844405Y-100607612D01*
X39733963Y-100473037D01*
X39599388Y-100362595D01*
X39445852Y-100280528D01*
X39279257Y-100229992D01*
X39106003Y-100212928D01*
X38532007Y-100212928D01*
X38040990Y-99721912D01*
X38040990Y-99689072D01*
X39106003Y-99689072D01*
X39279257Y-99672008D01*
X39445852Y-99621472D01*
X39599388Y-99539405D01*
X39733963Y-99428963D01*
X39844405Y-99294388D01*
X39926472Y-99140852D01*
X39939936Y-99096467D01*
X40795215Y-99913578D01*
X41649679Y-100938866D01*
X42382583Y-102054293D01*
X42984502Y-103245507D01*
X43447708Y-104497217D01*
X43766236Y-105793310D01*
X43935996Y-107117130D01*
X43954804Y-108451656D01*
X43822418Y-109779732D01*
X43540540Y-111084290D01*
X43112794Y-112348553D01*
X42544677Y-113556267D01*
X41843498Y-114691900D01*
X41018270Y-115740860D01*
X40079592Y-116689663D01*
X39039548Y-117526101D01*
X37911504Y-118239424D01*
X36709966Y-118820462D01*
X36646185Y-118842807D01*
X36650807Y-118838225D01*
X36786890Y-118636446D01*
X36880993Y-118411996D01*
X36929500Y-118173500D01*
X36929500Y-117823500D01*
X35821500Y-117823500D01*
X35821500Y-117843500D01*
X35567500Y-117843500D01*
X35567500Y-117823500D01*
X34459500Y-117823500D01*
X34459500Y-118173500D01*
X34508007Y-118411996D01*
X34602110Y-118636446D01*
X34738193Y-118838225D01*
X34911026Y-119009578D01*
X35113967Y-119143921D01*
X35339218Y-119236091D01*
X35376891Y-119239962D01*
X35567498Y-119115232D01*
X35567498Y-119220716D01*
X35450370Y-119261751D01*
X34148908Y-119557612D01*
X32822322Y-119704243D01*
X31487679Y-119699757D01*
X30162105Y-119544212D01*
X28862664Y-119239608D01*
X28821502Y-119224876D01*
X28821502Y-119115232D01*
X29012109Y-119239962D01*
X29049782Y-119236091D01*
X29275033Y-119143921D01*
X29477974Y-119009578D01*
X29650807Y-118838225D01*
X29786890Y-118636446D01*
X29880993Y-118411996D01*
X29929500Y-118173500D01*
X29929500Y-117823500D01*
X28821500Y-117823500D01*
X28821500Y-117843500D01*
X28567500Y-117843500D01*
X28567500Y-117823500D01*
X27459500Y-117823500D01*
X27459500Y-118173500D01*
X27508007Y-118411996D01*
X27602110Y-118636446D01*
X27737241Y-118836813D01*
X27606067Y-118789865D01*
X26408451Y-118200758D01*
X25285226Y-117479865D01*
X24965903Y-117219500D01*
X27459500Y-117219500D01*
X27459500Y-117569500D01*
X28567500Y-117569500D01*
X28567500Y-116277769D01*
X28821500Y-116277769D01*
X28821500Y-117569500D01*
X29929500Y-117569500D01*
X29929500Y-117219500D01*
X29880993Y-116981004D01*
X29786890Y-116756554D01*
X29650807Y-116554775D01*
X29477974Y-116383422D01*
X29382664Y-116320329D01*
X29500349Y-116349219D01*
X29767982Y-116361104D01*
X30032791Y-116320548D01*
X30284600Y-116229109D01*
X30391535Y-116171950D01*
X30454028Y-115935633D01*
X33934972Y-115935633D01*
X33997465Y-116171950D01*
X34240178Y-116285350D01*
X34500349Y-116349219D01*
X34767982Y-116361104D01*
X34997942Y-116325885D01*
X34911026Y-116383422D01*
X34738193Y-116554775D01*
X34602110Y-116756554D01*
X34508007Y-116981004D01*
X34459500Y-117219500D01*
X34459500Y-117569500D01*
X35567500Y-117569500D01*
X35567500Y-116277769D01*
X35821500Y-116277769D01*
X35821500Y-117569500D01*
X36929500Y-117569500D01*
X36929500Y-117219500D01*
X36880993Y-116981004D01*
X36786890Y-116756554D01*
X36650807Y-116554775D01*
X36477974Y-116383422D01*
X36275033Y-116249079D01*
X36049782Y-116156909D01*
X36012109Y-116153038D01*
X35821500Y-116277769D01*
X35567500Y-116277769D01*
X35393638Y-116163997D01*
X35454028Y-115935633D01*
X34694500Y-115176105D01*
X33934972Y-115935633D01*
X30454028Y-115935633D01*
X29694500Y-115176105D01*
X28934972Y-115935633D01*
X28995362Y-116163997D01*
X28821500Y-116277769D01*
X28567500Y-116277769D01*
X28376891Y-116153038D01*
X28339218Y-116156909D01*
X28113967Y-116249079D01*
X27911026Y-116383422D01*
X27738193Y-116554775D01*
X27602110Y-116756554D01*
X27508007Y-116981004D01*
X27459500Y-117219500D01*
X24965903Y-117219500D01*
X24250833Y-116636458D01*
X23318561Y-115681372D01*
X22844192Y-115069982D01*
X28329896Y-115069982D01*
X28370452Y-115334791D01*
X28461891Y-115586600D01*
X28519050Y-115693535D01*
X28755367Y-115756028D01*
X29514895Y-114996500D01*
X29874105Y-114996500D01*
X30633633Y-115756028D01*
X30869950Y-115693535D01*
X30983350Y-115450822D01*
X31047219Y-115190651D01*
X31052577Y-115069982D01*
X33329896Y-115069982D01*
X33370452Y-115334791D01*
X33461891Y-115586600D01*
X33519050Y-115693535D01*
X33755367Y-115756028D01*
X34514895Y-114996500D01*
X34874105Y-114996500D01*
X35633633Y-115756028D01*
X35869950Y-115693535D01*
X35983350Y-115450822D01*
X36047219Y-115190651D01*
X36059104Y-114923018D01*
X36018548Y-114658209D01*
X35927109Y-114406400D01*
X35869950Y-114299465D01*
X35633633Y-114236972D01*
X34874105Y-114996500D01*
X34514895Y-114996500D01*
X33755367Y-114236972D01*
X33519050Y-114299465D01*
X33405650Y-114542178D01*
X33341781Y-114802349D01*
X33329896Y-115069982D01*
X31052577Y-115069982D01*
X31059104Y-114923018D01*
X31018548Y-114658209D01*
X30927109Y-114406400D01*
X30869950Y-114299465D01*
X30633633Y-114236972D01*
X29874105Y-114996500D01*
X29514895Y-114996500D01*
X28755367Y-114236972D01*
X28519050Y-114299465D01*
X28405650Y-114542178D01*
X28341781Y-114802349D01*
X28329896Y-115069982D01*
X22844192Y-115069982D01*
X22500398Y-114626884D01*
X21806868Y-113486561D01*
X21651303Y-113150000D01*
X25474428Y-113150000D01*
X25486688Y-113274482D01*
X25522998Y-113394180D01*
X25581963Y-113504494D01*
X25661315Y-113601185D01*
X25758006Y-113680537D01*
X25868320Y-113739502D01*
X25988018Y-113775812D01*
X26112500Y-113788072D01*
X26701750Y-113785000D01*
X26860500Y-113626250D01*
X26860500Y-112714500D01*
X25636250Y-112714500D01*
X25477500Y-112873250D01*
X25474428Y-113150000D01*
X21651303Y-113150000D01*
X21246886Y-112275060D01*
X21164151Y-112025000D01*
X25474428Y-112025000D01*
X25477500Y-112301750D01*
X25636250Y-112460500D01*
X26860500Y-112460500D01*
X26860500Y-111548750D01*
X26701750Y-111390000D01*
X26112500Y-111386928D01*
X25988018Y-111399188D01*
X25868320Y-111435498D01*
X25758006Y-111494463D01*
X25661315Y-111573815D01*
X25581963Y-111670506D01*
X25522998Y-111780820D01*
X25486688Y-111900518D01*
X25474428Y-112025000D01*
X21164151Y-112025000D01*
X20827649Y-111007953D01*
X20554545Y-109701527D01*
X20470796Y-108800000D01*
X21244928Y-108800000D01*
X21257188Y-108924482D01*
X21293498Y-109044180D01*
X21352463Y-109154494D01*
X21431815Y-109251185D01*
X21528506Y-109330537D01*
X21638820Y-109389502D01*
X21758518Y-109425812D01*
X21883000Y-109438072D01*
X22447250Y-109435000D01*
X22606000Y-109276250D01*
X22606000Y-108077000D01*
X22860000Y-108077000D01*
X22860000Y-109276250D01*
X23018750Y-109435000D01*
X23583000Y-109438072D01*
X23707482Y-109425812D01*
X23827180Y-109389502D01*
X23937494Y-109330537D01*
X24034185Y-109251185D01*
X24113537Y-109154494D01*
X24172502Y-109044180D01*
X24208812Y-108924482D01*
X24221072Y-108800000D01*
X24218000Y-108235750D01*
X24059250Y-108077000D01*
X22860000Y-108077000D01*
X22606000Y-108077000D01*
X21406750Y-108077000D01*
X21248000Y-108235750D01*
X21244928Y-108800000D01*
X20470796Y-108800000D01*
X20431090Y-108372594D01*
X20457582Y-107100000D01*
X21244928Y-107100000D01*
X21248000Y-107664250D01*
X21406750Y-107823000D01*
X22606000Y-107823000D01*
X22606000Y-106623750D01*
X22860000Y-106623750D01*
X22860000Y-107823000D01*
X24059250Y-107823000D01*
X24218000Y-107664250D01*
X24221072Y-107100000D01*
X24208812Y-106975518D01*
X24172502Y-106855820D01*
X24113537Y-106745506D01*
X24034185Y-106648815D01*
X23937494Y-106569463D01*
X23827180Y-106510498D01*
X23707482Y-106474188D01*
X23583000Y-106461928D01*
X23018750Y-106465000D01*
X22860000Y-106623750D01*
X22606000Y-106623750D01*
X22447250Y-106465000D01*
X21883000Y-106461928D01*
X21758518Y-106474188D01*
X21638820Y-106510498D01*
X21528506Y-106569463D01*
X21431815Y-106648815D01*
X21352463Y-106745506D01*
X21293498Y-106855820D01*
X21257188Y-106975518D01*
X21244928Y-107100000D01*
X20457582Y-107100000D01*
X20458869Y-107038216D01*
X20637523Y-105715572D01*
X20964759Y-104421640D01*
X21436363Y-103173088D01*
X22046286Y-101985930D01*
X22786665Y-100875466D01*
X23648722Y-99855090D01*
X24449330Y-99095342D01*
X24462528Y-99138852D01*
%TA.AperFunction,Conductor*%
D16*
G36*
X24462528Y-99138852D02*
G01*
X24544595Y-99292388D01*
X24655037Y-99426963D01*
X24789612Y-99537405D01*
X24943148Y-99619472D01*
X25109743Y-99670008D01*
X25282997Y-99687072D01*
X26380849Y-99687072D01*
X25856994Y-100210928D01*
X25282997Y-100210928D01*
X25109743Y-100227992D01*
X24943148Y-100278528D01*
X24789612Y-100360595D01*
X24655037Y-100471037D01*
X24544595Y-100605612D01*
X24462528Y-100759148D01*
X24411992Y-100925743D01*
X24394928Y-101098997D01*
X24394928Y-101724003D01*
X24411992Y-101897257D01*
X24462528Y-102063852D01*
X24544595Y-102217388D01*
X24655037Y-102351963D01*
X24789612Y-102462405D01*
X24943148Y-102544472D01*
X25023001Y-102568695D01*
X25023000Y-102917305D01*
X24943148Y-102941528D01*
X24789612Y-103023595D01*
X24655037Y-103134037D01*
X24544595Y-103268612D01*
X24462528Y-103422148D01*
X24411992Y-103588743D01*
X24394928Y-103761997D01*
X24394928Y-104387003D01*
X24411992Y-104560257D01*
X24462528Y-104726852D01*
X24544595Y-104880388D01*
X24655037Y-105014963D01*
X24789612Y-105125405D01*
X24943148Y-105207472D01*
X25109743Y-105258008D01*
X25282997Y-105275072D01*
X26348011Y-105275072D01*
X26348011Y-105307910D01*
X25856994Y-105798928D01*
X25282997Y-105798928D01*
X25109743Y-105815992D01*
X24943148Y-105866528D01*
X24789612Y-105948595D01*
X24655037Y-106059037D01*
X24544595Y-106193612D01*
X24462528Y-106347148D01*
X24411992Y-106513743D01*
X24394928Y-106686997D01*
X24394928Y-107312003D01*
X24411992Y-107485257D01*
X24462528Y-107651852D01*
X24544595Y-107805388D01*
X24655037Y-107939963D01*
X24789612Y-108050405D01*
X24943148Y-108132472D01*
X25109743Y-108183008D01*
X25282997Y-108200072D01*
X26533003Y-108200072D01*
X26706257Y-108183008D01*
X26872852Y-108132472D01*
X27026388Y-108050405D01*
X27160963Y-107939963D01*
X27241500Y-107841828D01*
X27322037Y-107939963D01*
X27456612Y-108050405D01*
X27610148Y-108132472D01*
X27776743Y-108183008D01*
X27949997Y-108200072D01*
X28377361Y-108200072D01*
X28423226Y-108245937D01*
X28578446Y-108349651D01*
X28456671Y-108414742D01*
X28337249Y-108512749D01*
X28239242Y-108632171D01*
X28206226Y-108693940D01*
X28105888Y-108611595D01*
X27952352Y-108529528D01*
X27785757Y-108478992D01*
X27612503Y-108461928D01*
X26362497Y-108461928D01*
X26189243Y-108478992D01*
X26022648Y-108529528D01*
X25869112Y-108611595D01*
X25734537Y-108722037D01*
X25624095Y-108856612D01*
X25542028Y-109010148D01*
X25491492Y-109176743D01*
X25474428Y-109349997D01*
X25474428Y-109975003D01*
X25491492Y-110148257D01*
X25542028Y-110314852D01*
X25624095Y-110468388D01*
X25734537Y-110602963D01*
X25869112Y-110713405D01*
X26022648Y-110795472D01*
X26189243Y-110846008D01*
X26362497Y-110863072D01*
X27612503Y-110863072D01*
X27785757Y-110846008D01*
X27952352Y-110795472D01*
X28105888Y-110713405D01*
X28113077Y-110707505D01*
X28121571Y-110793745D01*
X28166416Y-110941582D01*
X28239242Y-111077829D01*
X28277954Y-111125000D01*
X28239242Y-111172171D01*
X28166416Y-111308418D01*
X28124911Y-111445243D01*
X28106680Y-111435498D01*
X27986982Y-111399188D01*
X27862500Y-111386928D01*
X27273250Y-111390000D01*
X27114500Y-111548750D01*
X27114500Y-112460500D01*
X27134500Y-112460500D01*
X27134500Y-112714500D01*
X27114500Y-112714500D01*
X27114500Y-113626250D01*
X27273250Y-113785000D01*
X27862500Y-113788072D01*
X27986982Y-113775812D01*
X28106680Y-113739502D01*
X28212991Y-113682676D01*
X28213963Y-113684494D01*
X28293315Y-113781185D01*
X28390006Y-113860537D01*
X28500320Y-113919502D01*
X28620018Y-113955812D01*
X28744500Y-113968072D01*
X28958838Y-113967117D01*
X28934972Y-114057367D01*
X29694500Y-114816895D01*
X30454028Y-114057367D01*
X30430103Y-113966894D01*
X30694500Y-113968072D01*
X30818982Y-113955812D01*
X30938680Y-113919502D01*
X31048994Y-113860537D01*
X31145685Y-113781185D01*
X31225037Y-113684494D01*
X31284002Y-113574180D01*
X31320312Y-113454482D01*
X31332572Y-113330000D01*
X31329500Y-113315750D01*
X31170750Y-113157000D01*
X29846500Y-113157000D01*
X29846500Y-113177000D01*
X29592500Y-113177000D01*
X29592500Y-113157000D01*
X29572500Y-113157000D01*
X29572500Y-112903000D01*
X29592500Y-112903000D01*
X29592500Y-112883000D01*
X29846500Y-112883000D01*
X29846500Y-112903000D01*
X31170750Y-112903000D01*
X31329500Y-112744250D01*
X31332572Y-112730000D01*
X31320312Y-112605518D01*
X31284002Y-112485820D01*
X31225037Y-112375506D01*
X31200770Y-112345936D01*
X31272584Y-112211582D01*
X31317429Y-112063745D01*
X31332572Y-111910000D01*
X31332572Y-111610000D01*
X31324200Y-111525000D01*
X31470939Y-111525000D01*
X31670898Y-111485226D01*
X31859256Y-111407205D01*
X32028774Y-111293937D01*
X32073010Y-111249701D01*
X32073011Y-112426534D01*
X32040805Y-112474734D01*
X31962784Y-112663092D01*
X31923010Y-112863051D01*
X31923010Y-113066929D01*
X31962784Y-113266888D01*
X32040805Y-113455246D01*
X32154073Y-113624764D01*
X32298236Y-113768927D01*
X32467754Y-113882195D01*
X32656112Y-113960216D01*
X32856071Y-113999990D01*
X33059949Y-113999990D01*
X33259908Y-113960216D01*
X33448266Y-113882195D01*
X33468806Y-113868470D01*
X33542918Y-113908084D01*
X33690755Y-113952929D01*
X33844500Y-113968072D01*
X33958586Y-113968072D01*
X33934972Y-114057367D01*
X34694500Y-114816895D01*
X35454028Y-114057367D01*
X35430414Y-113968072D01*
X35494500Y-113968072D01*
X35648245Y-113952929D01*
X35796082Y-113908084D01*
X35932329Y-113835258D01*
X36051751Y-113737251D01*
X36127960Y-113644390D01*
X36172006Y-113680537D01*
X36282320Y-113739502D01*
X36402018Y-113775812D01*
X36526500Y-113788072D01*
X37115750Y-113785000D01*
X37274500Y-113626250D01*
X37274500Y-112714500D01*
X37528500Y-112714500D01*
X37528500Y-113626250D01*
X37687250Y-113785000D01*
X38276500Y-113788072D01*
X38400982Y-113775812D01*
X38520680Y-113739502D01*
X38630994Y-113680537D01*
X38727685Y-113601185D01*
X38807037Y-113504494D01*
X38866002Y-113394180D01*
X38902312Y-113274482D01*
X38914572Y-113150000D01*
X38911500Y-112873250D01*
X38752750Y-112714500D01*
X37528500Y-112714500D01*
X37274500Y-112714500D01*
X37254500Y-112714500D01*
X37254500Y-112460500D01*
X37274500Y-112460500D01*
X37274500Y-111548750D01*
X37528500Y-111548750D01*
X37528500Y-112460500D01*
X38752750Y-112460500D01*
X38911500Y-112301750D01*
X38914572Y-112025000D01*
X38902312Y-111900518D01*
X38866002Y-111780820D01*
X38807037Y-111670506D01*
X38727685Y-111573815D01*
X38630994Y-111494463D01*
X38520680Y-111435498D01*
X38400982Y-111399188D01*
X38276500Y-111386928D01*
X37687250Y-111390000D01*
X37528500Y-111548750D01*
X37274500Y-111548750D01*
X37115750Y-111390000D01*
X36526500Y-111386928D01*
X36402018Y-111399188D01*
X36282320Y-111435498D01*
X36264089Y-111445243D01*
X36222584Y-111308418D01*
X36149758Y-111172171D01*
X36111046Y-111125000D01*
X36149758Y-111077829D01*
X36222584Y-110941582D01*
X36267429Y-110793745D01*
X36275923Y-110707505D01*
X36283112Y-110713405D01*
X36436648Y-110795472D01*
X36603243Y-110846008D01*
X36776497Y-110863072D01*
X38026503Y-110863072D01*
X38199757Y-110846008D01*
X38366352Y-110795472D01*
X38519888Y-110713405D01*
X38654463Y-110602963D01*
X38764905Y-110468388D01*
X38846972Y-110314852D01*
X38897508Y-110148257D01*
X38914572Y-109975003D01*
X38914572Y-109401007D01*
X39076049Y-109239530D01*
X39109817Y-109211817D01*
X39141474Y-109173244D01*
X39220411Y-109077059D01*
X39302589Y-108923314D01*
X39353195Y-108756490D01*
X39361394Y-108673240D01*
X39366000Y-108626477D01*
X39366000Y-108626469D01*
X39370281Y-108583000D01*
X39366000Y-108539531D01*
X39366000Y-108158695D01*
X39445852Y-108134472D01*
X39599388Y-108052405D01*
X39733963Y-107941963D01*
X39844405Y-107807388D01*
X39926472Y-107653852D01*
X39977008Y-107487257D01*
X39994072Y-107314003D01*
X39994072Y-107100000D01*
X40167928Y-107100000D01*
X40167928Y-108800000D01*
X40180188Y-108924482D01*
X40216498Y-109044180D01*
X40275463Y-109154494D01*
X40354815Y-109251185D01*
X40451506Y-109330537D01*
X40561820Y-109389502D01*
X40681518Y-109425812D01*
X40806000Y-109438072D01*
X42506000Y-109438072D01*
X42630482Y-109425812D01*
X42750180Y-109389502D01*
X42860494Y-109330537D01*
X42957185Y-109251185D01*
X43036537Y-109154494D01*
X43095502Y-109044180D01*
X43131812Y-108924482D01*
X43144072Y-108800000D01*
X43144072Y-107100000D01*
X43131812Y-106975518D01*
X43095502Y-106855820D01*
X43036537Y-106745506D01*
X42957185Y-106648815D01*
X42860494Y-106569463D01*
X42750180Y-106510498D01*
X42630482Y-106474188D01*
X42506000Y-106461928D01*
X40806000Y-106461928D01*
X40681518Y-106474188D01*
X40561820Y-106510498D01*
X40451506Y-106569463D01*
X40354815Y-106648815D01*
X40275463Y-106745506D01*
X40216498Y-106855820D01*
X40180188Y-106975518D01*
X40167928Y-107100000D01*
X39994072Y-107100000D01*
X39994072Y-106688997D01*
X39977008Y-106515743D01*
X39926472Y-106349148D01*
X39844405Y-106195612D01*
X39733963Y-106061037D01*
X39599388Y-105950595D01*
X39445852Y-105868528D01*
X39279257Y-105817992D01*
X39106003Y-105800928D01*
X38119000Y-105800928D01*
X38119000Y-105689061D01*
X38079226Y-105489102D01*
X38001205Y-105300744D01*
X37985388Y-105277072D01*
X39106003Y-105277072D01*
X39279257Y-105260008D01*
X39445852Y-105209472D01*
X39599388Y-105127405D01*
X39733963Y-105016963D01*
X39844405Y-104882388D01*
X39926472Y-104728852D01*
X39977008Y-104562257D01*
X39994072Y-104389003D01*
X39994072Y-103763997D01*
X39977008Y-103590743D01*
X39926472Y-103424148D01*
X39844405Y-103270612D01*
X39733963Y-103136037D01*
X39599388Y-103025595D01*
X39445852Y-102943528D01*
X39279257Y-102892992D01*
X39106003Y-102875928D01*
X38532007Y-102875928D01*
X38270150Y-102614072D01*
X39106003Y-102614072D01*
X39279257Y-102597008D01*
X39445852Y-102546472D01*
X39599388Y-102464405D01*
X39733963Y-102353963D01*
X39844405Y-102219388D01*
X39926472Y-102065852D01*
X39977008Y-101899257D01*
X39994072Y-101726003D01*
X39994072Y-101100997D01*
X39977008Y-100927743D01*
X39926472Y-100761148D01*
X39844405Y-100607612D01*
X39733963Y-100473037D01*
X39599388Y-100362595D01*
X39445852Y-100280528D01*
X39279257Y-100229992D01*
X39106003Y-100212928D01*
X38532007Y-100212928D01*
X38040990Y-99721912D01*
X38040990Y-99689072D01*
X39106003Y-99689072D01*
X39279257Y-99672008D01*
X39445852Y-99621472D01*
X39599388Y-99539405D01*
X39733963Y-99428963D01*
X39844405Y-99294388D01*
X39926472Y-99140852D01*
X39939936Y-99096467D01*
X40795215Y-99913578D01*
X41649679Y-100938866D01*
X42382583Y-102054293D01*
X42984502Y-103245507D01*
X43447708Y-104497217D01*
X43766236Y-105793310D01*
X43935996Y-107117130D01*
X43954804Y-108451656D01*
X43822418Y-109779732D01*
X43540540Y-111084290D01*
X43112794Y-112348553D01*
X42544677Y-113556267D01*
X41843498Y-114691900D01*
X41018270Y-115740860D01*
X40079592Y-116689663D01*
X39039548Y-117526101D01*
X37911504Y-118239424D01*
X36709966Y-118820462D01*
X36646185Y-118842807D01*
X36650807Y-118838225D01*
X36786890Y-118636446D01*
X36880993Y-118411996D01*
X36929500Y-118173500D01*
X36929500Y-117823500D01*
X35821500Y-117823500D01*
X35821500Y-117843500D01*
X35567500Y-117843500D01*
X35567500Y-117823500D01*
X34459500Y-117823500D01*
X34459500Y-118173500D01*
X34508007Y-118411996D01*
X34602110Y-118636446D01*
X34738193Y-118838225D01*
X34911026Y-119009578D01*
X35113967Y-119143921D01*
X35339218Y-119236091D01*
X35376891Y-119239962D01*
X35567498Y-119115232D01*
X35567498Y-119220716D01*
X35450370Y-119261751D01*
X34148908Y-119557612D01*
X32822322Y-119704243D01*
X31487679Y-119699757D01*
X30162105Y-119544212D01*
X28862664Y-119239608D01*
X28821502Y-119224876D01*
X28821502Y-119115232D01*
X29012109Y-119239962D01*
X29049782Y-119236091D01*
X29275033Y-119143921D01*
X29477974Y-119009578D01*
X29650807Y-118838225D01*
X29786890Y-118636446D01*
X29880993Y-118411996D01*
X29929500Y-118173500D01*
X29929500Y-117823500D01*
X28821500Y-117823500D01*
X28821500Y-117843500D01*
X28567500Y-117843500D01*
X28567500Y-117823500D01*
X27459500Y-117823500D01*
X27459500Y-118173500D01*
X27508007Y-118411996D01*
X27602110Y-118636446D01*
X27737241Y-118836813D01*
X27606067Y-118789865D01*
X26408451Y-118200758D01*
X25285226Y-117479865D01*
X24965903Y-117219500D01*
X27459500Y-117219500D01*
X27459500Y-117569500D01*
X28567500Y-117569500D01*
X28567500Y-116277769D01*
X28821500Y-116277769D01*
X28821500Y-117569500D01*
X29929500Y-117569500D01*
X29929500Y-117219500D01*
X29880993Y-116981004D01*
X29786890Y-116756554D01*
X29650807Y-116554775D01*
X29477974Y-116383422D01*
X29382664Y-116320329D01*
X29500349Y-116349219D01*
X29767982Y-116361104D01*
X30032791Y-116320548D01*
X30284600Y-116229109D01*
X30391535Y-116171950D01*
X30454028Y-115935633D01*
X33934972Y-115935633D01*
X33997465Y-116171950D01*
X34240178Y-116285350D01*
X34500349Y-116349219D01*
X34767982Y-116361104D01*
X34997942Y-116325885D01*
X34911026Y-116383422D01*
X34738193Y-116554775D01*
X34602110Y-116756554D01*
X34508007Y-116981004D01*
X34459500Y-117219500D01*
X34459500Y-117569500D01*
X35567500Y-117569500D01*
X35567500Y-116277769D01*
X35821500Y-116277769D01*
X35821500Y-117569500D01*
X36929500Y-117569500D01*
X36929500Y-117219500D01*
X36880993Y-116981004D01*
X36786890Y-116756554D01*
X36650807Y-116554775D01*
X36477974Y-116383422D01*
X36275033Y-116249079D01*
X36049782Y-116156909D01*
X36012109Y-116153038D01*
X35821500Y-116277769D01*
X35567500Y-116277769D01*
X35393638Y-116163997D01*
X35454028Y-115935633D01*
X34694500Y-115176105D01*
X33934972Y-115935633D01*
X30454028Y-115935633D01*
X29694500Y-115176105D01*
X28934972Y-115935633D01*
X28995362Y-116163997D01*
X28821500Y-116277769D01*
X28567500Y-116277769D01*
X28376891Y-116153038D01*
X28339218Y-116156909D01*
X28113967Y-116249079D01*
X27911026Y-116383422D01*
X27738193Y-116554775D01*
X27602110Y-116756554D01*
X27508007Y-116981004D01*
X27459500Y-117219500D01*
X24965903Y-117219500D01*
X24250833Y-116636458D01*
X23318561Y-115681372D01*
X22844192Y-115069982D01*
X28329896Y-115069982D01*
X28370452Y-115334791D01*
X28461891Y-115586600D01*
X28519050Y-115693535D01*
X28755367Y-115756028D01*
X29514895Y-114996500D01*
X29874105Y-114996500D01*
X30633633Y-115756028D01*
X30869950Y-115693535D01*
X30983350Y-115450822D01*
X31047219Y-115190651D01*
X31052577Y-115069982D01*
X33329896Y-115069982D01*
X33370452Y-115334791D01*
X33461891Y-115586600D01*
X33519050Y-115693535D01*
X33755367Y-115756028D01*
X34514895Y-114996500D01*
X34874105Y-114996500D01*
X35633633Y-115756028D01*
X35869950Y-115693535D01*
X35983350Y-115450822D01*
X36047219Y-115190651D01*
X36059104Y-114923018D01*
X36018548Y-114658209D01*
X35927109Y-114406400D01*
X35869950Y-114299465D01*
X35633633Y-114236972D01*
X34874105Y-114996500D01*
X34514895Y-114996500D01*
X33755367Y-114236972D01*
X33519050Y-114299465D01*
X33405650Y-114542178D01*
X33341781Y-114802349D01*
X33329896Y-115069982D01*
X31052577Y-115069982D01*
X31059104Y-114923018D01*
X31018548Y-114658209D01*
X30927109Y-114406400D01*
X30869950Y-114299465D01*
X30633633Y-114236972D01*
X29874105Y-114996500D01*
X29514895Y-114996500D01*
X28755367Y-114236972D01*
X28519050Y-114299465D01*
X28405650Y-114542178D01*
X28341781Y-114802349D01*
X28329896Y-115069982D01*
X22844192Y-115069982D01*
X22500398Y-114626884D01*
X21806868Y-113486561D01*
X21651303Y-113150000D01*
X25474428Y-113150000D01*
X25486688Y-113274482D01*
X25522998Y-113394180D01*
X25581963Y-113504494D01*
X25661315Y-113601185D01*
X25758006Y-113680537D01*
X25868320Y-113739502D01*
X25988018Y-113775812D01*
X26112500Y-113788072D01*
X26701750Y-113785000D01*
X26860500Y-113626250D01*
X26860500Y-112714500D01*
X25636250Y-112714500D01*
X25477500Y-112873250D01*
X25474428Y-113150000D01*
X21651303Y-113150000D01*
X21246886Y-112275060D01*
X21164151Y-112025000D01*
X25474428Y-112025000D01*
X25477500Y-112301750D01*
X25636250Y-112460500D01*
X26860500Y-112460500D01*
X26860500Y-111548750D01*
X26701750Y-111390000D01*
X26112500Y-111386928D01*
X25988018Y-111399188D01*
X25868320Y-111435498D01*
X25758006Y-111494463D01*
X25661315Y-111573815D01*
X25581963Y-111670506D01*
X25522998Y-111780820D01*
X25486688Y-111900518D01*
X25474428Y-112025000D01*
X21164151Y-112025000D01*
X20827649Y-111007953D01*
X20554545Y-109701527D01*
X20470796Y-108800000D01*
X21244928Y-108800000D01*
X21257188Y-108924482D01*
X21293498Y-109044180D01*
X21352463Y-109154494D01*
X21431815Y-109251185D01*
X21528506Y-109330537D01*
X21638820Y-109389502D01*
X21758518Y-109425812D01*
X21883000Y-109438072D01*
X22447250Y-109435000D01*
X22606000Y-109276250D01*
X22606000Y-108077000D01*
X22860000Y-108077000D01*
X22860000Y-109276250D01*
X23018750Y-109435000D01*
X23583000Y-109438072D01*
X23707482Y-109425812D01*
X23827180Y-109389502D01*
X23937494Y-109330537D01*
X24034185Y-109251185D01*
X24113537Y-109154494D01*
X24172502Y-109044180D01*
X24208812Y-108924482D01*
X24221072Y-108800000D01*
X24218000Y-108235750D01*
X24059250Y-108077000D01*
X22860000Y-108077000D01*
X22606000Y-108077000D01*
X21406750Y-108077000D01*
X21248000Y-108235750D01*
X21244928Y-108800000D01*
X20470796Y-108800000D01*
X20431090Y-108372594D01*
X20457582Y-107100000D01*
X21244928Y-107100000D01*
X21248000Y-107664250D01*
X21406750Y-107823000D01*
X22606000Y-107823000D01*
X22606000Y-106623750D01*
X22860000Y-106623750D01*
X22860000Y-107823000D01*
X24059250Y-107823000D01*
X24218000Y-107664250D01*
X24221072Y-107100000D01*
X24208812Y-106975518D01*
X24172502Y-106855820D01*
X24113537Y-106745506D01*
X24034185Y-106648815D01*
X23937494Y-106569463D01*
X23827180Y-106510498D01*
X23707482Y-106474188D01*
X23583000Y-106461928D01*
X23018750Y-106465000D01*
X22860000Y-106623750D01*
X22606000Y-106623750D01*
X22447250Y-106465000D01*
X21883000Y-106461928D01*
X21758518Y-106474188D01*
X21638820Y-106510498D01*
X21528506Y-106569463D01*
X21431815Y-106648815D01*
X21352463Y-106745506D01*
X21293498Y-106855820D01*
X21257188Y-106975518D01*
X21244928Y-107100000D01*
X20457582Y-107100000D01*
X20458869Y-107038216D01*
X20637523Y-105715572D01*
X20964759Y-104421640D01*
X21436363Y-103173088D01*
X22046286Y-101985930D01*
X22786665Y-100875466D01*
X23648722Y-99855090D01*
X24449330Y-99095342D01*
X24462528Y-99138852D01*
G37*
%TD.AperFunction*%
D15*
X32457500Y-103854250D02*
X32616250Y-104013000D01*
X33528000Y-104013000D01*
X33528000Y-103993000D01*
X33782000Y-103993000D01*
X33782000Y-104013000D01*
X33802000Y-104013000D01*
X33802000Y-104267000D01*
X33782000Y-104267000D01*
X33782000Y-104287000D01*
X33528000Y-104287000D01*
X33528000Y-104267000D01*
X32616250Y-104267000D01*
X32457500Y-104425750D01*
X32454428Y-105015000D01*
X32466688Y-105139482D01*
X32502998Y-105259180D01*
X32561963Y-105369494D01*
X32641315Y-105466185D01*
X32738006Y-105545537D01*
X32823780Y-105591385D01*
X32714537Y-105681037D01*
X32604095Y-105815612D01*
X32522028Y-105969148D01*
X32471492Y-106135743D01*
X32454428Y-106308997D01*
X32454428Y-107559003D01*
X32471492Y-107732257D01*
X32522028Y-107898852D01*
X32604095Y-108052388D01*
X32714537Y-108186963D01*
X32849112Y-108297405D01*
X33002648Y-108379472D01*
X33169243Y-108430008D01*
X33306859Y-108443562D01*
X32362966Y-109387456D01*
X32329193Y-109415173D01*
X32243955Y-109519035D01*
X32241195Y-109491010D01*
X32240589Y-109489010D01*
X32214979Y-109404589D01*
X32190589Y-109324187D01*
X32108411Y-109170441D01*
X31997817Y-109035683D01*
X31964044Y-109007966D01*
X31581032Y-108624954D01*
X31553317Y-108591183D01*
X31418559Y-108480589D01*
X31345995Y-108441803D01*
X31416982Y-108434812D01*
X31536680Y-108398502D01*
X31646994Y-108339537D01*
X31743685Y-108260185D01*
X31823037Y-108163494D01*
X31882002Y-108053180D01*
X31918312Y-107933482D01*
X31930572Y-107809000D01*
X31927500Y-107219750D01*
X31768750Y-107061000D01*
X30857000Y-107061000D01*
X30857000Y-107081000D01*
X30603000Y-107081000D01*
X30603000Y-107061000D01*
X30583000Y-107061000D01*
X30583000Y-106807000D01*
X30603000Y-106807000D01*
X30603000Y-106787000D01*
X30857000Y-106787000D01*
X30857000Y-106807000D01*
X31768750Y-106807000D01*
X31927500Y-106648250D01*
X31930572Y-106059000D01*
X31918312Y-105934518D01*
X31882002Y-105814820D01*
X31823037Y-105704506D01*
X31743685Y-105607815D01*
X31646994Y-105528463D01*
X31561220Y-105482615D01*
X31670463Y-105392963D01*
X31780905Y-105258388D01*
X31862972Y-105104852D01*
X31913508Y-104938257D01*
X31930572Y-104765003D01*
X31930572Y-103699990D01*
X32456696Y-103699990D01*
X32457500Y-103854250D01*
%TA.AperFunction,Conductor*%
D16*
G36*
X32457500Y-103854250D02*
G01*
X32616250Y-104013000D01*
X33528000Y-104013000D01*
X33528000Y-103993000D01*
X33782000Y-103993000D01*
X33782000Y-104013000D01*
X33802000Y-104013000D01*
X33802000Y-104267000D01*
X33782000Y-104267000D01*
X33782000Y-104287000D01*
X33528000Y-104287000D01*
X33528000Y-104267000D01*
X32616250Y-104267000D01*
X32457500Y-104425750D01*
X32454428Y-105015000D01*
X32466688Y-105139482D01*
X32502998Y-105259180D01*
X32561963Y-105369494D01*
X32641315Y-105466185D01*
X32738006Y-105545537D01*
X32823780Y-105591385D01*
X32714537Y-105681037D01*
X32604095Y-105815612D01*
X32522028Y-105969148D01*
X32471492Y-106135743D01*
X32454428Y-106308997D01*
X32454428Y-107559003D01*
X32471492Y-107732257D01*
X32522028Y-107898852D01*
X32604095Y-108052388D01*
X32714537Y-108186963D01*
X32849112Y-108297405D01*
X33002648Y-108379472D01*
X33169243Y-108430008D01*
X33306859Y-108443562D01*
X32362966Y-109387456D01*
X32329193Y-109415173D01*
X32243955Y-109519035D01*
X32241195Y-109491010D01*
X32240589Y-109489010D01*
X32214979Y-109404589D01*
X32190589Y-109324187D01*
X32108411Y-109170441D01*
X31997817Y-109035683D01*
X31964044Y-109007966D01*
X31581032Y-108624954D01*
X31553317Y-108591183D01*
X31418559Y-108480589D01*
X31345995Y-108441803D01*
X31416982Y-108434812D01*
X31536680Y-108398502D01*
X31646994Y-108339537D01*
X31743685Y-108260185D01*
X31823037Y-108163494D01*
X31882002Y-108053180D01*
X31918312Y-107933482D01*
X31930572Y-107809000D01*
X31927500Y-107219750D01*
X31768750Y-107061000D01*
X30857000Y-107061000D01*
X30857000Y-107081000D01*
X30603000Y-107081000D01*
X30603000Y-107061000D01*
X30583000Y-107061000D01*
X30583000Y-106807000D01*
X30603000Y-106807000D01*
X30603000Y-106787000D01*
X30857000Y-106787000D01*
X30857000Y-106807000D01*
X31768750Y-106807000D01*
X31927500Y-106648250D01*
X31930572Y-106059000D01*
X31918312Y-105934518D01*
X31882002Y-105814820D01*
X31823037Y-105704506D01*
X31743685Y-105607815D01*
X31646994Y-105528463D01*
X31561220Y-105482615D01*
X31670463Y-105392963D01*
X31780905Y-105258388D01*
X31862972Y-105104852D01*
X31913508Y-104938257D01*
X31930572Y-104765003D01*
X31930572Y-103699990D01*
X32456696Y-103699990D01*
X32457500Y-103854250D01*
G37*
%TD.AperFunction*%
D15*
X32454428Y-99177003D02*
X32471492Y-99350257D01*
X32522028Y-99516852D01*
X32604095Y-99670388D01*
X32714537Y-99804963D01*
X32824568Y-99895263D01*
X32740006Y-99940463D01*
X32643315Y-100019815D01*
X32563963Y-100116506D01*
X32504998Y-100226820D01*
X32468688Y-100346518D01*
X32456428Y-100471000D01*
X32459500Y-101060250D01*
X32618250Y-101219000D01*
X33530000Y-101219000D01*
X33530000Y-101199000D01*
X33784000Y-101199000D01*
X33784000Y-101219000D01*
X33804000Y-101219000D01*
X33804000Y-101473000D01*
X33784000Y-101473000D01*
X33784000Y-101493000D01*
X33530000Y-101493000D01*
X33530000Y-101473000D01*
X32618250Y-101473000D01*
X32459500Y-101631750D01*
X32457945Y-101929990D01*
X31932572Y-101929990D01*
X31932572Y-100720997D01*
X31915508Y-100547743D01*
X31864972Y-100381148D01*
X31782905Y-100227612D01*
X31672463Y-100093037D01*
X31562432Y-100002737D01*
X31646994Y-99957537D01*
X31743685Y-99878185D01*
X31823037Y-99781494D01*
X31882002Y-99671180D01*
X31918312Y-99551482D01*
X31930572Y-99427000D01*
X31927500Y-98837750D01*
X31768750Y-98679000D01*
X30857000Y-98679000D01*
X30857000Y-98699000D01*
X30603000Y-98699000D01*
X30603000Y-98679000D01*
X30583000Y-98679000D01*
X30583000Y-98425000D01*
X30603000Y-98425000D01*
X30603000Y-98405000D01*
X30857000Y-98405000D01*
X30857000Y-98425000D01*
X31768750Y-98425000D01*
X31927500Y-98266250D01*
X31928304Y-98111990D01*
X32454428Y-98111990D01*
X32454428Y-99177003D01*
%TA.AperFunction,Conductor*%
D16*
G36*
X32454428Y-99177003D02*
G01*
X32471492Y-99350257D01*
X32522028Y-99516852D01*
X32604095Y-99670388D01*
X32714537Y-99804963D01*
X32824568Y-99895263D01*
X32740006Y-99940463D01*
X32643315Y-100019815D01*
X32563963Y-100116506D01*
X32504998Y-100226820D01*
X32468688Y-100346518D01*
X32456428Y-100471000D01*
X32459500Y-101060250D01*
X32618250Y-101219000D01*
X33530000Y-101219000D01*
X33530000Y-101199000D01*
X33784000Y-101199000D01*
X33784000Y-101219000D01*
X33804000Y-101219000D01*
X33804000Y-101473000D01*
X33784000Y-101473000D01*
X33784000Y-101493000D01*
X33530000Y-101493000D01*
X33530000Y-101473000D01*
X32618250Y-101473000D01*
X32459500Y-101631750D01*
X32457945Y-101929990D01*
X31932572Y-101929990D01*
X31932572Y-100720997D01*
X31915508Y-100547743D01*
X31864972Y-100381148D01*
X31782905Y-100227612D01*
X31672463Y-100093037D01*
X31562432Y-100002737D01*
X31646994Y-99957537D01*
X31743685Y-99878185D01*
X31823037Y-99781494D01*
X31882002Y-99671180D01*
X31918312Y-99551482D01*
X31930572Y-99427000D01*
X31927500Y-98837750D01*
X31768750Y-98679000D01*
X30857000Y-98679000D01*
X30857000Y-98699000D01*
X30603000Y-98699000D01*
X30603000Y-98679000D01*
X30583000Y-98679000D01*
X30583000Y-98425000D01*
X30603000Y-98425000D01*
X30603000Y-98405000D01*
X30857000Y-98405000D01*
X30857000Y-98425000D01*
X31768750Y-98425000D01*
X31927500Y-98266250D01*
X31928304Y-98111990D01*
X32454428Y-98111990D01*
X32454428Y-99177003D01*
G37*
%TD.AperFunction*%
D15*
X32457500Y-92678250D02*
X32616250Y-92837000D01*
X33528000Y-92837000D01*
X33528000Y-92817000D01*
X33782000Y-92817000D01*
X33782000Y-92837000D01*
X33802000Y-92837000D01*
X33802000Y-93091000D01*
X33782000Y-93091000D01*
X33782000Y-93111000D01*
X33528000Y-93111000D01*
X33528000Y-93091000D01*
X32616250Y-93091000D01*
X32457500Y-93249750D01*
X32454428Y-93839000D01*
X32466688Y-93963482D01*
X32502998Y-94083180D01*
X32561963Y-94193494D01*
X32641315Y-94290185D01*
X32738006Y-94369537D01*
X32823780Y-94415385D01*
X32714537Y-94505037D01*
X32604095Y-94639612D01*
X32522028Y-94793148D01*
X32471492Y-94959743D01*
X32454428Y-95132997D01*
X32454428Y-96341990D01*
X31929055Y-96341990D01*
X31927500Y-96043750D01*
X31768750Y-95885000D01*
X30857000Y-95885000D01*
X30857000Y-95905000D01*
X30603000Y-95905000D01*
X30603000Y-95885000D01*
X30583000Y-95885000D01*
X30583000Y-95631000D01*
X30603000Y-95631000D01*
X30603000Y-95611000D01*
X30857000Y-95611000D01*
X30857000Y-95631000D01*
X31768750Y-95631000D01*
X31927500Y-95472250D01*
X31930572Y-94883000D01*
X31918312Y-94758518D01*
X31882002Y-94638820D01*
X31823037Y-94528506D01*
X31743685Y-94431815D01*
X31646994Y-94352463D01*
X31561220Y-94306615D01*
X31670463Y-94216963D01*
X31780905Y-94082388D01*
X31862972Y-93928852D01*
X31913508Y-93762257D01*
X31930572Y-93589003D01*
X31930572Y-92523990D01*
X32456696Y-92523990D01*
X32457500Y-92678250D01*
%TA.AperFunction,Conductor*%
D16*
G36*
X32457500Y-92678250D02*
G01*
X32616250Y-92837000D01*
X33528000Y-92837000D01*
X33528000Y-92817000D01*
X33782000Y-92817000D01*
X33782000Y-92837000D01*
X33802000Y-92837000D01*
X33802000Y-93091000D01*
X33782000Y-93091000D01*
X33782000Y-93111000D01*
X33528000Y-93111000D01*
X33528000Y-93091000D01*
X32616250Y-93091000D01*
X32457500Y-93249750D01*
X32454428Y-93839000D01*
X32466688Y-93963482D01*
X32502998Y-94083180D01*
X32561963Y-94193494D01*
X32641315Y-94290185D01*
X32738006Y-94369537D01*
X32823780Y-94415385D01*
X32714537Y-94505037D01*
X32604095Y-94639612D01*
X32522028Y-94793148D01*
X32471492Y-94959743D01*
X32454428Y-95132997D01*
X32454428Y-96341990D01*
X31929055Y-96341990D01*
X31927500Y-96043750D01*
X31768750Y-95885000D01*
X30857000Y-95885000D01*
X30857000Y-95905000D01*
X30603000Y-95905000D01*
X30603000Y-95885000D01*
X30583000Y-95885000D01*
X30583000Y-95631000D01*
X30603000Y-95631000D01*
X30603000Y-95611000D01*
X30857000Y-95611000D01*
X30857000Y-95631000D01*
X31768750Y-95631000D01*
X31927500Y-95472250D01*
X31930572Y-94883000D01*
X31918312Y-94758518D01*
X31882002Y-94638820D01*
X31823037Y-94528506D01*
X31743685Y-94431815D01*
X31646994Y-94352463D01*
X31561220Y-94306615D01*
X31670463Y-94216963D01*
X31780905Y-94082388D01*
X31862972Y-93928852D01*
X31913508Y-93762257D01*
X31930572Y-93589003D01*
X31930572Y-92523990D01*
X32456696Y-92523990D01*
X32457500Y-92678250D01*
G37*
%TD.AperFunction*%
D15*
X32454428Y-88001003D02*
X32471492Y-88174257D01*
X32522028Y-88340852D01*
X32604095Y-88494388D01*
X32714537Y-88628963D01*
X32824568Y-88719263D01*
X32740006Y-88764463D01*
X32643315Y-88843815D01*
X32563963Y-88940506D01*
X32504998Y-89050820D01*
X32468688Y-89170518D01*
X32456428Y-89295000D01*
X32459500Y-89884250D01*
X32618250Y-90043000D01*
X33530000Y-90043000D01*
X33530000Y-90023000D01*
X33784000Y-90023000D01*
X33784000Y-90043000D01*
X33804000Y-90043000D01*
X33804000Y-90297000D01*
X33784000Y-90297000D01*
X33784000Y-90317000D01*
X33530000Y-90317000D01*
X33530000Y-90297000D01*
X32618250Y-90297000D01*
X32459500Y-90455750D01*
X32457945Y-90753990D01*
X31932572Y-90753990D01*
X31932572Y-89544997D01*
X31915508Y-89371743D01*
X31864972Y-89205148D01*
X31782905Y-89051612D01*
X31672463Y-88917037D01*
X31562432Y-88826737D01*
X31646994Y-88781537D01*
X31743685Y-88702185D01*
X31823037Y-88605494D01*
X31882002Y-88495180D01*
X31918312Y-88375482D01*
X31930572Y-88251000D01*
X31927500Y-87661750D01*
X31768750Y-87503000D01*
X30857000Y-87503000D01*
X30857000Y-87523000D01*
X30603000Y-87523000D01*
X30603000Y-87503000D01*
X30583000Y-87503000D01*
X30583000Y-87249000D01*
X30603000Y-87249000D01*
X30603000Y-87229000D01*
X30857000Y-87229000D01*
X30857000Y-87249000D01*
X31768750Y-87249000D01*
X31927500Y-87090250D01*
X31928677Y-86864510D01*
X32454428Y-86864510D01*
X32454428Y-88001003D01*
%TA.AperFunction,Conductor*%
D16*
G36*
X32454428Y-88001003D02*
G01*
X32471492Y-88174257D01*
X32522028Y-88340852D01*
X32604095Y-88494388D01*
X32714537Y-88628963D01*
X32824568Y-88719263D01*
X32740006Y-88764463D01*
X32643315Y-88843815D01*
X32563963Y-88940506D01*
X32504998Y-89050820D01*
X32468688Y-89170518D01*
X32456428Y-89295000D01*
X32459500Y-89884250D01*
X32618250Y-90043000D01*
X33530000Y-90043000D01*
X33530000Y-90023000D01*
X33784000Y-90023000D01*
X33784000Y-90043000D01*
X33804000Y-90043000D01*
X33804000Y-90297000D01*
X33784000Y-90297000D01*
X33784000Y-90317000D01*
X33530000Y-90317000D01*
X33530000Y-90297000D01*
X32618250Y-90297000D01*
X32459500Y-90455750D01*
X32457945Y-90753990D01*
X31932572Y-90753990D01*
X31932572Y-89544997D01*
X31915508Y-89371743D01*
X31864972Y-89205148D01*
X31782905Y-89051612D01*
X31672463Y-88917037D01*
X31562432Y-88826737D01*
X31646994Y-88781537D01*
X31743685Y-88702185D01*
X31823037Y-88605494D01*
X31882002Y-88495180D01*
X31918312Y-88375482D01*
X31930572Y-88251000D01*
X31927500Y-87661750D01*
X31768750Y-87503000D01*
X30857000Y-87503000D01*
X30857000Y-87523000D01*
X30603000Y-87523000D01*
X30603000Y-87503000D01*
X30583000Y-87503000D01*
X30583000Y-87249000D01*
X30603000Y-87249000D01*
X30603000Y-87229000D01*
X30857000Y-87229000D01*
X30857000Y-87249000D01*
X31768750Y-87249000D01*
X31927500Y-87090250D01*
X31928677Y-86864510D01*
X32454428Y-86864510D01*
X32454428Y-88001003D01*
G37*
%TD.AperFunction*%
D15*
X32457500Y-81502250D02*
X32616250Y-81661000D01*
X33528000Y-81661000D01*
X33528000Y-81641000D01*
X33782000Y-81641000D01*
X33782000Y-81661000D01*
X33802000Y-81661000D01*
X33802000Y-81915000D01*
X33782000Y-81915000D01*
X33782000Y-81935000D01*
X33528000Y-81935000D01*
X33528000Y-81915000D01*
X32616250Y-81915000D01*
X32457500Y-82073750D01*
X32454428Y-82663000D01*
X32466688Y-82787482D01*
X32502998Y-82907180D01*
X32561963Y-83017494D01*
X32641315Y-83114185D01*
X32738006Y-83193537D01*
X32823780Y-83239385D01*
X32714537Y-83329037D01*
X32604095Y-83463612D01*
X32522028Y-83617148D01*
X32471492Y-83783743D01*
X32454428Y-83956997D01*
X32454428Y-85094510D01*
X31928682Y-85094510D01*
X31927500Y-84867750D01*
X31768750Y-84709000D01*
X30857000Y-84709000D01*
X30857000Y-84729000D01*
X30603000Y-84729000D01*
X30603000Y-84709000D01*
X30583000Y-84709000D01*
X30583000Y-84455000D01*
X30603000Y-84455000D01*
X30603000Y-84435000D01*
X30857000Y-84435000D01*
X30857000Y-84455000D01*
X31768750Y-84455000D01*
X31927500Y-84296250D01*
X31930572Y-83707000D01*
X31918312Y-83582518D01*
X31882002Y-83462820D01*
X31823037Y-83352506D01*
X31743685Y-83255815D01*
X31646994Y-83176463D01*
X31561220Y-83130615D01*
X31670463Y-83040963D01*
X31780905Y-82906388D01*
X31862972Y-82752852D01*
X31913508Y-82586257D01*
X31930572Y-82413003D01*
X31930572Y-81347990D01*
X32456696Y-81347990D01*
X32457500Y-81502250D01*
%TA.AperFunction,Conductor*%
D16*
G36*
X32457500Y-81502250D02*
G01*
X32616250Y-81661000D01*
X33528000Y-81661000D01*
X33528000Y-81641000D01*
X33782000Y-81641000D01*
X33782000Y-81661000D01*
X33802000Y-81661000D01*
X33802000Y-81915000D01*
X33782000Y-81915000D01*
X33782000Y-81935000D01*
X33528000Y-81935000D01*
X33528000Y-81915000D01*
X32616250Y-81915000D01*
X32457500Y-82073750D01*
X32454428Y-82663000D01*
X32466688Y-82787482D01*
X32502998Y-82907180D01*
X32561963Y-83017494D01*
X32641315Y-83114185D01*
X32738006Y-83193537D01*
X32823780Y-83239385D01*
X32714537Y-83329037D01*
X32604095Y-83463612D01*
X32522028Y-83617148D01*
X32471492Y-83783743D01*
X32454428Y-83956997D01*
X32454428Y-85094510D01*
X31928682Y-85094510D01*
X31927500Y-84867750D01*
X31768750Y-84709000D01*
X30857000Y-84709000D01*
X30857000Y-84729000D01*
X30603000Y-84729000D01*
X30603000Y-84709000D01*
X30583000Y-84709000D01*
X30583000Y-84455000D01*
X30603000Y-84455000D01*
X30603000Y-84435000D01*
X30857000Y-84435000D01*
X30857000Y-84455000D01*
X31768750Y-84455000D01*
X31927500Y-84296250D01*
X31930572Y-83707000D01*
X31918312Y-83582518D01*
X31882002Y-83462820D01*
X31823037Y-83352506D01*
X31743685Y-83255815D01*
X31646994Y-83176463D01*
X31561220Y-83130615D01*
X31670463Y-83040963D01*
X31780905Y-82906388D01*
X31862972Y-82752852D01*
X31913508Y-82586257D01*
X31930572Y-82413003D01*
X31930572Y-81347990D01*
X32456696Y-81347990D01*
X32457500Y-81502250D01*
G37*
%TD.AperFunction*%
D15*
X32454428Y-76825003D02*
X32471492Y-76998257D01*
X32522028Y-77164852D01*
X32604095Y-77318388D01*
X32714537Y-77452963D01*
X32823780Y-77542615D01*
X32738006Y-77588463D01*
X32641315Y-77667815D01*
X32561963Y-77764506D01*
X32502998Y-77874820D01*
X32466688Y-77994518D01*
X32454428Y-78119000D01*
X32457500Y-78708250D01*
X32616250Y-78867000D01*
X33528000Y-78867000D01*
X33528000Y-78847000D01*
X33782000Y-78847000D01*
X33782000Y-78867000D01*
X33802000Y-78867000D01*
X33802000Y-79121000D01*
X33782000Y-79121000D01*
X33782000Y-79141000D01*
X33528000Y-79141000D01*
X33528000Y-79121000D01*
X32616250Y-79121000D01*
X32457500Y-79279750D01*
X32455945Y-79577990D01*
X31930572Y-79577990D01*
X31930572Y-78368997D01*
X31913508Y-78195743D01*
X31862972Y-78029148D01*
X31780905Y-77875612D01*
X31670463Y-77741037D01*
X31561220Y-77651385D01*
X31646994Y-77605537D01*
X31743685Y-77526185D01*
X31823037Y-77429494D01*
X31882002Y-77319180D01*
X31918312Y-77199482D01*
X31930572Y-77075000D01*
X31927500Y-76485750D01*
X31768750Y-76327000D01*
X30857000Y-76327000D01*
X30857000Y-76347000D01*
X30603000Y-76347000D01*
X30603000Y-76327000D01*
X30583000Y-76327000D01*
X30583000Y-76073000D01*
X30603000Y-76073000D01*
X30603000Y-76053000D01*
X30857000Y-76053000D01*
X30857000Y-76073000D01*
X31768750Y-76073000D01*
X31927500Y-75914250D01*
X31928304Y-75759990D01*
X32454428Y-75759990D01*
X32454428Y-76825003D01*
%TA.AperFunction,Conductor*%
D16*
G36*
X32454428Y-76825003D02*
G01*
X32471492Y-76998257D01*
X32522028Y-77164852D01*
X32604095Y-77318388D01*
X32714537Y-77452963D01*
X32823780Y-77542615D01*
X32738006Y-77588463D01*
X32641315Y-77667815D01*
X32561963Y-77764506D01*
X32502998Y-77874820D01*
X32466688Y-77994518D01*
X32454428Y-78119000D01*
X32457500Y-78708250D01*
X32616250Y-78867000D01*
X33528000Y-78867000D01*
X33528000Y-78847000D01*
X33782000Y-78847000D01*
X33782000Y-78867000D01*
X33802000Y-78867000D01*
X33802000Y-79121000D01*
X33782000Y-79121000D01*
X33782000Y-79141000D01*
X33528000Y-79141000D01*
X33528000Y-79121000D01*
X32616250Y-79121000D01*
X32457500Y-79279750D01*
X32455945Y-79577990D01*
X31930572Y-79577990D01*
X31930572Y-78368997D01*
X31913508Y-78195743D01*
X31862972Y-78029148D01*
X31780905Y-77875612D01*
X31670463Y-77741037D01*
X31561220Y-77651385D01*
X31646994Y-77605537D01*
X31743685Y-77526185D01*
X31823037Y-77429494D01*
X31882002Y-77319180D01*
X31918312Y-77199482D01*
X31930572Y-77075000D01*
X31927500Y-76485750D01*
X31768750Y-76327000D01*
X30857000Y-76327000D01*
X30857000Y-76347000D01*
X30603000Y-76347000D01*
X30603000Y-76327000D01*
X30583000Y-76327000D01*
X30583000Y-76073000D01*
X30603000Y-76073000D01*
X30603000Y-76053000D01*
X30857000Y-76053000D01*
X30857000Y-76073000D01*
X31768750Y-76073000D01*
X31927500Y-75914250D01*
X31928304Y-75759990D01*
X32454428Y-75759990D01*
X32454428Y-76825003D01*
G37*
%TD.AperFunction*%
D15*
X32457500Y-70326250D02*
X32616250Y-70485000D01*
X33528000Y-70485000D01*
X33528000Y-70465000D01*
X33782000Y-70465000D01*
X33782000Y-70485000D01*
X33802000Y-70485000D01*
X33802000Y-70739000D01*
X33782000Y-70739000D01*
X33782000Y-70759000D01*
X33528000Y-70759000D01*
X33528000Y-70739000D01*
X32616250Y-70739000D01*
X32457500Y-70897750D01*
X32454428Y-71487000D01*
X32466688Y-71611482D01*
X32502998Y-71731180D01*
X32561963Y-71841494D01*
X32641315Y-71938185D01*
X32738006Y-72017537D01*
X32823780Y-72063385D01*
X32714537Y-72153037D01*
X32604095Y-72287612D01*
X32522028Y-72441148D01*
X32471492Y-72607743D01*
X32454428Y-72780997D01*
X32454428Y-73989990D01*
X31929055Y-73989990D01*
X31927500Y-73691750D01*
X31768750Y-73533000D01*
X30857000Y-73533000D01*
X30857000Y-73553000D01*
X30603000Y-73553000D01*
X30603000Y-73533000D01*
X30583000Y-73533000D01*
X30583000Y-73279000D01*
X30603000Y-73279000D01*
X30603000Y-73259000D01*
X30857000Y-73259000D01*
X30857000Y-73279000D01*
X31768750Y-73279000D01*
X31927500Y-73120250D01*
X31930572Y-72531000D01*
X31918312Y-72406518D01*
X31882002Y-72286820D01*
X31823037Y-72176506D01*
X31743685Y-72079815D01*
X31646994Y-72000463D01*
X31561220Y-71954615D01*
X31670463Y-71864963D01*
X31780905Y-71730388D01*
X31862972Y-71576852D01*
X31913508Y-71410257D01*
X31930572Y-71237003D01*
X31930572Y-70171990D01*
X32456696Y-70171990D01*
X32457500Y-70326250D01*
%TA.AperFunction,Conductor*%
D16*
G36*
X32457500Y-70326250D02*
G01*
X32616250Y-70485000D01*
X33528000Y-70485000D01*
X33528000Y-70465000D01*
X33782000Y-70465000D01*
X33782000Y-70485000D01*
X33802000Y-70485000D01*
X33802000Y-70739000D01*
X33782000Y-70739000D01*
X33782000Y-70759000D01*
X33528000Y-70759000D01*
X33528000Y-70739000D01*
X32616250Y-70739000D01*
X32457500Y-70897750D01*
X32454428Y-71487000D01*
X32466688Y-71611482D01*
X32502998Y-71731180D01*
X32561963Y-71841494D01*
X32641315Y-71938185D01*
X32738006Y-72017537D01*
X32823780Y-72063385D01*
X32714537Y-72153037D01*
X32604095Y-72287612D01*
X32522028Y-72441148D01*
X32471492Y-72607743D01*
X32454428Y-72780997D01*
X32454428Y-73989990D01*
X31929055Y-73989990D01*
X31927500Y-73691750D01*
X31768750Y-73533000D01*
X30857000Y-73533000D01*
X30857000Y-73553000D01*
X30603000Y-73553000D01*
X30603000Y-73533000D01*
X30583000Y-73533000D01*
X30583000Y-73279000D01*
X30603000Y-73279000D01*
X30603000Y-73259000D01*
X30857000Y-73259000D01*
X30857000Y-73279000D01*
X31768750Y-73279000D01*
X31927500Y-73120250D01*
X31930572Y-72531000D01*
X31918312Y-72406518D01*
X31882002Y-72286820D01*
X31823037Y-72176506D01*
X31743685Y-72079815D01*
X31646994Y-72000463D01*
X31561220Y-71954615D01*
X31670463Y-71864963D01*
X31780905Y-71730388D01*
X31862972Y-71576852D01*
X31913508Y-71410257D01*
X31930572Y-71237003D01*
X31930572Y-70171990D01*
X32456696Y-70171990D01*
X32457500Y-70326250D01*
G37*
%TD.AperFunction*%
D15*
X32454428Y-65649003D02*
X32471492Y-65822257D01*
X32522028Y-65988852D01*
X32604095Y-66142388D01*
X32714537Y-66276963D01*
X32824568Y-66367263D01*
X32740006Y-66412463D01*
X32643315Y-66491815D01*
X32563963Y-66588506D01*
X32504998Y-66698820D01*
X32468688Y-66818518D01*
X32456428Y-66943000D01*
X32459500Y-67532250D01*
X32618250Y-67691000D01*
X33530000Y-67691000D01*
X33530000Y-67671000D01*
X33784000Y-67671000D01*
X33784000Y-67691000D01*
X33804000Y-67691000D01*
X33804000Y-67945000D01*
X33784000Y-67945000D01*
X33784000Y-67965000D01*
X33530000Y-67965000D01*
X33530000Y-67945000D01*
X32618250Y-67945000D01*
X32459500Y-68103750D01*
X32457945Y-68401990D01*
X31932572Y-68401990D01*
X31932572Y-67192997D01*
X31915508Y-67019743D01*
X31864972Y-66853148D01*
X31782905Y-66699612D01*
X31672463Y-66565037D01*
X31562432Y-66474737D01*
X31646994Y-66429537D01*
X31743685Y-66350185D01*
X31823037Y-66253494D01*
X31882002Y-66143180D01*
X31918312Y-66023482D01*
X31930572Y-65899000D01*
X31927500Y-65309750D01*
X31768750Y-65151000D01*
X30857000Y-65151000D01*
X30857000Y-65171000D01*
X30603000Y-65171000D01*
X30603000Y-65151000D01*
X30583000Y-65151000D01*
X30583000Y-64897000D01*
X30603000Y-64897000D01*
X30603000Y-64877000D01*
X30857000Y-64877000D01*
X30857000Y-64897000D01*
X31768750Y-64897000D01*
X31927500Y-64738250D01*
X31928304Y-64583990D01*
X32454428Y-64583990D01*
X32454428Y-65649003D01*
%TA.AperFunction,Conductor*%
D16*
G36*
X32454428Y-65649003D02*
G01*
X32471492Y-65822257D01*
X32522028Y-65988852D01*
X32604095Y-66142388D01*
X32714537Y-66276963D01*
X32824568Y-66367263D01*
X32740006Y-66412463D01*
X32643315Y-66491815D01*
X32563963Y-66588506D01*
X32504998Y-66698820D01*
X32468688Y-66818518D01*
X32456428Y-66943000D01*
X32459500Y-67532250D01*
X32618250Y-67691000D01*
X33530000Y-67691000D01*
X33530000Y-67671000D01*
X33784000Y-67671000D01*
X33784000Y-67691000D01*
X33804000Y-67691000D01*
X33804000Y-67945000D01*
X33784000Y-67945000D01*
X33784000Y-67965000D01*
X33530000Y-67965000D01*
X33530000Y-67945000D01*
X32618250Y-67945000D01*
X32459500Y-68103750D01*
X32457945Y-68401990D01*
X31932572Y-68401990D01*
X31932572Y-67192997D01*
X31915508Y-67019743D01*
X31864972Y-66853148D01*
X31782905Y-66699612D01*
X31672463Y-66565037D01*
X31562432Y-66474737D01*
X31646994Y-66429537D01*
X31743685Y-66350185D01*
X31823037Y-66253494D01*
X31882002Y-66143180D01*
X31918312Y-66023482D01*
X31930572Y-65899000D01*
X31927500Y-65309750D01*
X31768750Y-65151000D01*
X30857000Y-65151000D01*
X30857000Y-65171000D01*
X30603000Y-65171000D01*
X30603000Y-65151000D01*
X30583000Y-65151000D01*
X30583000Y-64897000D01*
X30603000Y-64897000D01*
X30603000Y-64877000D01*
X30857000Y-64877000D01*
X30857000Y-64897000D01*
X31768750Y-64897000D01*
X31927500Y-64738250D01*
X31928304Y-64583990D01*
X32454428Y-64583990D01*
X32454428Y-65649003D01*
G37*
%TD.AperFunction*%
D15*
X32457500Y-59150250D02*
X32616250Y-59309000D01*
X33528000Y-59309000D01*
X33528000Y-59289000D01*
X33782000Y-59289000D01*
X33782000Y-59309000D01*
X33802000Y-59309000D01*
X33802000Y-59563000D01*
X33782000Y-59563000D01*
X33782000Y-59583000D01*
X33528000Y-59583000D01*
X33528000Y-59563000D01*
X32616250Y-59563000D01*
X32457500Y-59721750D01*
X32454428Y-60311000D01*
X32466688Y-60435482D01*
X32502998Y-60555180D01*
X32561963Y-60665494D01*
X32641315Y-60762185D01*
X32738006Y-60841537D01*
X32823780Y-60887385D01*
X32714537Y-60977037D01*
X32604095Y-61111612D01*
X32522028Y-61265148D01*
X32471492Y-61431743D01*
X32454428Y-61604997D01*
X32454428Y-62813990D01*
X31929055Y-62813990D01*
X31927500Y-62515750D01*
X31768750Y-62357000D01*
X30857000Y-62357000D01*
X30857000Y-62377000D01*
X30603000Y-62377000D01*
X30603000Y-62357000D01*
X30583000Y-62357000D01*
X30583000Y-62103000D01*
X30603000Y-62103000D01*
X30603000Y-62083000D01*
X30857000Y-62083000D01*
X30857000Y-62103000D01*
X31768750Y-62103000D01*
X31927500Y-61944250D01*
X31930572Y-61355000D01*
X31918312Y-61230518D01*
X31882002Y-61110820D01*
X31823037Y-61000506D01*
X31743685Y-60903815D01*
X31646994Y-60824463D01*
X31561220Y-60778615D01*
X31670463Y-60688963D01*
X31780905Y-60554388D01*
X31862972Y-60400852D01*
X31913508Y-60234257D01*
X31930572Y-60061003D01*
X31930572Y-58995990D01*
X32456696Y-58995990D01*
X32457500Y-59150250D01*
%TA.AperFunction,Conductor*%
D16*
G36*
X32457500Y-59150250D02*
G01*
X32616250Y-59309000D01*
X33528000Y-59309000D01*
X33528000Y-59289000D01*
X33782000Y-59289000D01*
X33782000Y-59309000D01*
X33802000Y-59309000D01*
X33802000Y-59563000D01*
X33782000Y-59563000D01*
X33782000Y-59583000D01*
X33528000Y-59583000D01*
X33528000Y-59563000D01*
X32616250Y-59563000D01*
X32457500Y-59721750D01*
X32454428Y-60311000D01*
X32466688Y-60435482D01*
X32502998Y-60555180D01*
X32561963Y-60665494D01*
X32641315Y-60762185D01*
X32738006Y-60841537D01*
X32823780Y-60887385D01*
X32714537Y-60977037D01*
X32604095Y-61111612D01*
X32522028Y-61265148D01*
X32471492Y-61431743D01*
X32454428Y-61604997D01*
X32454428Y-62813990D01*
X31929055Y-62813990D01*
X31927500Y-62515750D01*
X31768750Y-62357000D01*
X30857000Y-62357000D01*
X30857000Y-62377000D01*
X30603000Y-62377000D01*
X30603000Y-62357000D01*
X30583000Y-62357000D01*
X30583000Y-62103000D01*
X30603000Y-62103000D01*
X30603000Y-62083000D01*
X30857000Y-62083000D01*
X30857000Y-62103000D01*
X31768750Y-62103000D01*
X31927500Y-61944250D01*
X31930572Y-61355000D01*
X31918312Y-61230518D01*
X31882002Y-61110820D01*
X31823037Y-61000506D01*
X31743685Y-60903815D01*
X31646994Y-60824463D01*
X31561220Y-60778615D01*
X31670463Y-60688963D01*
X31780905Y-60554388D01*
X31862972Y-60400852D01*
X31913508Y-60234257D01*
X31930572Y-60061003D01*
X31930572Y-58995990D01*
X32456696Y-58995990D01*
X32457500Y-59150250D01*
G37*
%TD.AperFunction*%
D15*
X32454428Y-54473003D02*
X32471492Y-54646257D01*
X32522028Y-54812852D01*
X32604095Y-54966388D01*
X32714537Y-55100963D01*
X32825357Y-55191910D01*
X32742006Y-55236463D01*
X32645315Y-55315815D01*
X32565963Y-55412506D01*
X32506998Y-55522820D01*
X32470688Y-55642518D01*
X32458428Y-55767000D01*
X32461500Y-56356250D01*
X32620250Y-56515000D01*
X33532000Y-56515000D01*
X33532000Y-56495000D01*
X33786000Y-56495000D01*
X33786000Y-56515000D01*
X33806000Y-56515000D01*
X33806000Y-56769000D01*
X33786000Y-56769000D01*
X33786000Y-56789000D01*
X33532000Y-56789000D01*
X33532000Y-56769000D01*
X32620250Y-56769000D01*
X32461500Y-56927750D01*
X32459945Y-57225990D01*
X31934572Y-57225990D01*
X31934572Y-56016997D01*
X31917508Y-55843743D01*
X31866972Y-55677148D01*
X31784905Y-55523612D01*
X31674463Y-55389037D01*
X31563643Y-55298090D01*
X31646994Y-55253537D01*
X31743685Y-55174185D01*
X31823037Y-55077494D01*
X31882002Y-54967180D01*
X31918312Y-54847482D01*
X31930572Y-54723000D01*
X31927500Y-54133750D01*
X31768750Y-53975000D01*
X30857000Y-53975000D01*
X30857000Y-53995000D01*
X30603000Y-53995000D01*
X30603000Y-53975000D01*
X30583000Y-53975000D01*
X30583000Y-53721000D01*
X30603000Y-53721000D01*
X30603000Y-53701000D01*
X30857000Y-53701000D01*
X30857000Y-53721000D01*
X31768750Y-53721000D01*
X31927500Y-53562250D01*
X31928304Y-53407990D01*
X32454428Y-53407990D01*
X32454428Y-54473003D01*
%TA.AperFunction,Conductor*%
D16*
G36*
X32454428Y-54473003D02*
G01*
X32471492Y-54646257D01*
X32522028Y-54812852D01*
X32604095Y-54966388D01*
X32714537Y-55100963D01*
X32825357Y-55191910D01*
X32742006Y-55236463D01*
X32645315Y-55315815D01*
X32565963Y-55412506D01*
X32506998Y-55522820D01*
X32470688Y-55642518D01*
X32458428Y-55767000D01*
X32461500Y-56356250D01*
X32620250Y-56515000D01*
X33532000Y-56515000D01*
X33532000Y-56495000D01*
X33786000Y-56495000D01*
X33786000Y-56515000D01*
X33806000Y-56515000D01*
X33806000Y-56769000D01*
X33786000Y-56769000D01*
X33786000Y-56789000D01*
X33532000Y-56789000D01*
X33532000Y-56769000D01*
X32620250Y-56769000D01*
X32461500Y-56927750D01*
X32459945Y-57225990D01*
X31934572Y-57225990D01*
X31934572Y-56016997D01*
X31917508Y-55843743D01*
X31866972Y-55677148D01*
X31784905Y-55523612D01*
X31674463Y-55389037D01*
X31563643Y-55298090D01*
X31646994Y-55253537D01*
X31743685Y-55174185D01*
X31823037Y-55077494D01*
X31882002Y-54967180D01*
X31918312Y-54847482D01*
X31930572Y-54723000D01*
X31927500Y-54133750D01*
X31768750Y-53975000D01*
X30857000Y-53975000D01*
X30857000Y-53995000D01*
X30603000Y-53995000D01*
X30603000Y-53975000D01*
X30583000Y-53975000D01*
X30583000Y-53721000D01*
X30603000Y-53721000D01*
X30603000Y-53701000D01*
X30857000Y-53701000D01*
X30857000Y-53721000D01*
X31768750Y-53721000D01*
X31927500Y-53562250D01*
X31928304Y-53407990D01*
X32454428Y-53407990D01*
X32454428Y-54473003D01*
G37*
%TD.AperFunction*%
D15*
X32457500Y-47974250D02*
X32616250Y-48133000D01*
X33528000Y-48133000D01*
X33528000Y-48113000D01*
X33782000Y-48113000D01*
X33782000Y-48133000D01*
X33802000Y-48133000D01*
X33802000Y-48387000D01*
X33782000Y-48387000D01*
X33782000Y-48407000D01*
X33528000Y-48407000D01*
X33528000Y-48387000D01*
X32616250Y-48387000D01*
X32457500Y-48545750D01*
X32454428Y-49135000D01*
X32466688Y-49259482D01*
X32502998Y-49379180D01*
X32561963Y-49489494D01*
X32641315Y-49586185D01*
X32738006Y-49665537D01*
X32823780Y-49711385D01*
X32714537Y-49801037D01*
X32604095Y-49935612D01*
X32522028Y-50089148D01*
X32471492Y-50255743D01*
X32454428Y-50428997D01*
X32454428Y-51637990D01*
X31929055Y-51637990D01*
X31927500Y-51339750D01*
X31768750Y-51181000D01*
X30857000Y-51181000D01*
X30857000Y-51201000D01*
X30603000Y-51201000D01*
X30603000Y-51181000D01*
X30583000Y-51181000D01*
X30583000Y-50927000D01*
X30603000Y-50927000D01*
X30603000Y-50907000D01*
X30857000Y-50907000D01*
X30857000Y-50927000D01*
X31768750Y-50927000D01*
X31927500Y-50768250D01*
X31930572Y-50179000D01*
X31918312Y-50054518D01*
X31882002Y-49934820D01*
X31823037Y-49824506D01*
X31743685Y-49727815D01*
X31646994Y-49648463D01*
X31561220Y-49602615D01*
X31670463Y-49512963D01*
X31780905Y-49378388D01*
X31862972Y-49224852D01*
X31913508Y-49058257D01*
X31930572Y-48885003D01*
X31930572Y-47819990D01*
X32456696Y-47819990D01*
X32457500Y-47974250D01*
%TA.AperFunction,Conductor*%
D16*
G36*
X32457500Y-47974250D02*
G01*
X32616250Y-48133000D01*
X33528000Y-48133000D01*
X33528000Y-48113000D01*
X33782000Y-48113000D01*
X33782000Y-48133000D01*
X33802000Y-48133000D01*
X33802000Y-48387000D01*
X33782000Y-48387000D01*
X33782000Y-48407000D01*
X33528000Y-48407000D01*
X33528000Y-48387000D01*
X32616250Y-48387000D01*
X32457500Y-48545750D01*
X32454428Y-49135000D01*
X32466688Y-49259482D01*
X32502998Y-49379180D01*
X32561963Y-49489494D01*
X32641315Y-49586185D01*
X32738006Y-49665537D01*
X32823780Y-49711385D01*
X32714537Y-49801037D01*
X32604095Y-49935612D01*
X32522028Y-50089148D01*
X32471492Y-50255743D01*
X32454428Y-50428997D01*
X32454428Y-51637990D01*
X31929055Y-51637990D01*
X31927500Y-51339750D01*
X31768750Y-51181000D01*
X30857000Y-51181000D01*
X30857000Y-51201000D01*
X30603000Y-51201000D01*
X30603000Y-51181000D01*
X30583000Y-51181000D01*
X30583000Y-50927000D01*
X30603000Y-50927000D01*
X30603000Y-50907000D01*
X30857000Y-50907000D01*
X30857000Y-50927000D01*
X31768750Y-50927000D01*
X31927500Y-50768250D01*
X31930572Y-50179000D01*
X31918312Y-50054518D01*
X31882002Y-49934820D01*
X31823037Y-49824506D01*
X31743685Y-49727815D01*
X31646994Y-49648463D01*
X31561220Y-49602615D01*
X31670463Y-49512963D01*
X31780905Y-49378388D01*
X31862972Y-49224852D01*
X31913508Y-49058257D01*
X31930572Y-48885003D01*
X31930572Y-47819990D01*
X32456696Y-47819990D01*
X32457500Y-47974250D01*
G37*
%TD.AperFunction*%
D15*
X32454428Y-43297003D02*
X32471492Y-43470257D01*
X32522028Y-43636852D01*
X32604095Y-43790388D01*
X32714537Y-43924963D01*
X32823780Y-44014615D01*
X32738006Y-44060463D01*
X32641315Y-44139815D01*
X32561963Y-44236506D01*
X32502998Y-44346820D01*
X32466688Y-44466518D01*
X32454428Y-44591000D01*
X32457500Y-45180250D01*
X32616250Y-45339000D01*
X33528000Y-45339000D01*
X33528000Y-45319000D01*
X33782000Y-45319000D01*
X33782000Y-45339000D01*
X33802000Y-45339000D01*
X33802000Y-45593000D01*
X33782000Y-45593000D01*
X33782000Y-45613000D01*
X33528000Y-45613000D01*
X33528000Y-45593000D01*
X32616250Y-45593000D01*
X32457500Y-45751750D01*
X32455945Y-46049990D01*
X31930572Y-46049990D01*
X31930572Y-44840997D01*
X31913508Y-44667743D01*
X31862972Y-44501148D01*
X31780905Y-44347612D01*
X31670463Y-44213037D01*
X31561220Y-44123385D01*
X31646994Y-44077537D01*
X31743685Y-43998185D01*
X31823037Y-43901494D01*
X31882002Y-43791180D01*
X31918312Y-43671482D01*
X31930572Y-43547000D01*
X31927500Y-42957750D01*
X31768750Y-42799000D01*
X30857000Y-42799000D01*
X30857000Y-42819000D01*
X30603000Y-42819000D01*
X30603000Y-42799000D01*
X30583000Y-42799000D01*
X30583000Y-42545000D01*
X30603000Y-42545000D01*
X30603000Y-42525000D01*
X30857000Y-42525000D01*
X30857000Y-42545000D01*
X31768750Y-42545000D01*
X31927500Y-42386250D01*
X31928304Y-42231990D01*
X32454428Y-42231990D01*
X32454428Y-43297003D01*
%TA.AperFunction,Conductor*%
D16*
G36*
X32454428Y-43297003D02*
G01*
X32471492Y-43470257D01*
X32522028Y-43636852D01*
X32604095Y-43790388D01*
X32714537Y-43924963D01*
X32823780Y-44014615D01*
X32738006Y-44060463D01*
X32641315Y-44139815D01*
X32561963Y-44236506D01*
X32502998Y-44346820D01*
X32466688Y-44466518D01*
X32454428Y-44591000D01*
X32457500Y-45180250D01*
X32616250Y-45339000D01*
X33528000Y-45339000D01*
X33528000Y-45319000D01*
X33782000Y-45319000D01*
X33782000Y-45339000D01*
X33802000Y-45339000D01*
X33802000Y-45593000D01*
X33782000Y-45593000D01*
X33782000Y-45613000D01*
X33528000Y-45613000D01*
X33528000Y-45593000D01*
X32616250Y-45593000D01*
X32457500Y-45751750D01*
X32455945Y-46049990D01*
X31930572Y-46049990D01*
X31930572Y-44840997D01*
X31913508Y-44667743D01*
X31862972Y-44501148D01*
X31780905Y-44347612D01*
X31670463Y-44213037D01*
X31561220Y-44123385D01*
X31646994Y-44077537D01*
X31743685Y-43998185D01*
X31823037Y-43901494D01*
X31882002Y-43791180D01*
X31918312Y-43671482D01*
X31930572Y-43547000D01*
X31927500Y-42957750D01*
X31768750Y-42799000D01*
X30857000Y-42799000D01*
X30857000Y-42819000D01*
X30603000Y-42819000D01*
X30603000Y-42799000D01*
X30583000Y-42799000D01*
X30583000Y-42545000D01*
X30603000Y-42545000D01*
X30603000Y-42525000D01*
X30857000Y-42525000D01*
X30857000Y-42545000D01*
X31768750Y-42545000D01*
X31927500Y-42386250D01*
X31928304Y-42231990D01*
X32454428Y-42231990D01*
X32454428Y-43297003D01*
G37*
%TD.AperFunction*%
D15*
X32457500Y-36798250D02*
X32616250Y-36957000D01*
X33528000Y-36957000D01*
X33528000Y-36937000D01*
X33782000Y-36937000D01*
X33782000Y-36957000D01*
X33802000Y-36957000D01*
X33802000Y-37211000D01*
X33782000Y-37211000D01*
X33782000Y-37231000D01*
X33528000Y-37231000D01*
X33528000Y-37211000D01*
X32616250Y-37211000D01*
X32457500Y-37369750D01*
X32454428Y-37959000D01*
X32466688Y-38083482D01*
X32502998Y-38203180D01*
X32561963Y-38313494D01*
X32641315Y-38410185D01*
X32738006Y-38489537D01*
X32823780Y-38535385D01*
X32714537Y-38625037D01*
X32604095Y-38759612D01*
X32522028Y-38913148D01*
X32471492Y-39079743D01*
X32454428Y-39252997D01*
X32454428Y-40461990D01*
X31929055Y-40461990D01*
X31927500Y-40163750D01*
X31768750Y-40005000D01*
X30857000Y-40005000D01*
X30857000Y-40025000D01*
X30603000Y-40025000D01*
X30603000Y-40005000D01*
X30583000Y-40005000D01*
X30583000Y-39751000D01*
X30603000Y-39751000D01*
X30603000Y-39731000D01*
X30857000Y-39731000D01*
X30857000Y-39751000D01*
X31768750Y-39751000D01*
X31927500Y-39592250D01*
X31930572Y-39003000D01*
X31918312Y-38878518D01*
X31882002Y-38758820D01*
X31823037Y-38648506D01*
X31743685Y-38551815D01*
X31646994Y-38472463D01*
X31561220Y-38426615D01*
X31670463Y-38336963D01*
X31780905Y-38202388D01*
X31862972Y-38048852D01*
X31913508Y-37882257D01*
X31930572Y-37709003D01*
X31930572Y-36643990D01*
X32456696Y-36643990D01*
X32457500Y-36798250D01*
%TA.AperFunction,Conductor*%
D16*
G36*
X32457500Y-36798250D02*
G01*
X32616250Y-36957000D01*
X33528000Y-36957000D01*
X33528000Y-36937000D01*
X33782000Y-36937000D01*
X33782000Y-36957000D01*
X33802000Y-36957000D01*
X33802000Y-37211000D01*
X33782000Y-37211000D01*
X33782000Y-37231000D01*
X33528000Y-37231000D01*
X33528000Y-37211000D01*
X32616250Y-37211000D01*
X32457500Y-37369750D01*
X32454428Y-37959000D01*
X32466688Y-38083482D01*
X32502998Y-38203180D01*
X32561963Y-38313494D01*
X32641315Y-38410185D01*
X32738006Y-38489537D01*
X32823780Y-38535385D01*
X32714537Y-38625037D01*
X32604095Y-38759612D01*
X32522028Y-38913148D01*
X32471492Y-39079743D01*
X32454428Y-39252997D01*
X32454428Y-40461990D01*
X31929055Y-40461990D01*
X31927500Y-40163750D01*
X31768750Y-40005000D01*
X30857000Y-40005000D01*
X30857000Y-40025000D01*
X30603000Y-40025000D01*
X30603000Y-40005000D01*
X30583000Y-40005000D01*
X30583000Y-39751000D01*
X30603000Y-39751000D01*
X30603000Y-39731000D01*
X30857000Y-39731000D01*
X30857000Y-39751000D01*
X31768750Y-39751000D01*
X31927500Y-39592250D01*
X31930572Y-39003000D01*
X31918312Y-38878518D01*
X31882002Y-38758820D01*
X31823037Y-38648506D01*
X31743685Y-38551815D01*
X31646994Y-38472463D01*
X31561220Y-38426615D01*
X31670463Y-38336963D01*
X31780905Y-38202388D01*
X31862972Y-38048852D01*
X31913508Y-37882257D01*
X31930572Y-37709003D01*
X31930572Y-36643990D01*
X32456696Y-36643990D01*
X32457500Y-36798250D01*
G37*
%TD.AperFunction*%
D15*
X32456428Y-32121003D02*
X32473492Y-32294257D01*
X32524028Y-32460852D01*
X32606095Y-32614388D01*
X32716537Y-32748963D01*
X32825780Y-32838615D01*
X32740006Y-32884463D01*
X32643315Y-32963815D01*
X32563963Y-33060506D01*
X32504998Y-33170820D01*
X32468688Y-33290518D01*
X32456428Y-33415000D01*
X32459500Y-34004250D01*
X32618250Y-34163000D01*
X33530000Y-34163000D01*
X33530000Y-34143000D01*
X33784000Y-34143000D01*
X33784000Y-34163000D01*
X33804000Y-34163000D01*
X33804000Y-34417000D01*
X33784000Y-34417000D01*
X33784000Y-34437000D01*
X33530000Y-34437000D01*
X33530000Y-34417000D01*
X32618250Y-34417000D01*
X32459500Y-34575750D01*
X32457945Y-34873990D01*
X31932572Y-34873990D01*
X31932572Y-33664997D01*
X31915508Y-33491743D01*
X31864972Y-33325148D01*
X31782905Y-33171612D01*
X31672463Y-33037037D01*
X31563220Y-32947385D01*
X31648994Y-32901537D01*
X31745685Y-32822185D01*
X31825037Y-32725494D01*
X31884002Y-32615180D01*
X31920312Y-32495482D01*
X31932572Y-32371000D01*
X31929500Y-31781750D01*
X31770750Y-31623000D01*
X30859000Y-31623000D01*
X30859000Y-31643000D01*
X30605000Y-31643000D01*
X30605000Y-31623000D01*
X30585000Y-31623000D01*
X30585000Y-31369000D01*
X30605000Y-31369000D01*
X30605000Y-31349000D01*
X30859000Y-31349000D01*
X30859000Y-31369000D01*
X31770750Y-31369000D01*
X31929500Y-31210250D01*
X31930883Y-30945001D01*
X32456428Y-30945001D01*
X32456428Y-32121003D01*
%TA.AperFunction,Conductor*%
D16*
G36*
X32456428Y-32121003D02*
G01*
X32473492Y-32294257D01*
X32524028Y-32460852D01*
X32606095Y-32614388D01*
X32716537Y-32748963D01*
X32825780Y-32838615D01*
X32740006Y-32884463D01*
X32643315Y-32963815D01*
X32563963Y-33060506D01*
X32504998Y-33170820D01*
X32468688Y-33290518D01*
X32456428Y-33415000D01*
X32459500Y-34004250D01*
X32618250Y-34163000D01*
X33530000Y-34163000D01*
X33530000Y-34143000D01*
X33784000Y-34143000D01*
X33784000Y-34163000D01*
X33804000Y-34163000D01*
X33804000Y-34417000D01*
X33784000Y-34417000D01*
X33784000Y-34437000D01*
X33530000Y-34437000D01*
X33530000Y-34417000D01*
X32618250Y-34417000D01*
X32459500Y-34575750D01*
X32457945Y-34873990D01*
X31932572Y-34873990D01*
X31932572Y-33664997D01*
X31915508Y-33491743D01*
X31864972Y-33325148D01*
X31782905Y-33171612D01*
X31672463Y-33037037D01*
X31563220Y-32947385D01*
X31648994Y-32901537D01*
X31745685Y-32822185D01*
X31825037Y-32725494D01*
X31884002Y-32615180D01*
X31920312Y-32495482D01*
X31932572Y-32371000D01*
X31929500Y-31781750D01*
X31770750Y-31623000D01*
X30859000Y-31623000D01*
X30859000Y-31643000D01*
X30605000Y-31643000D01*
X30605000Y-31623000D01*
X30585000Y-31623000D01*
X30585000Y-31369000D01*
X30605000Y-31369000D01*
X30605000Y-31349000D01*
X30859000Y-31349000D01*
X30859000Y-31369000D01*
X31770750Y-31369000D01*
X31929500Y-31210250D01*
X31930883Y-30945001D01*
X32456428Y-30945001D01*
X32456428Y-32121003D01*
G37*
%TD.AperFunction*%
D15*
X32457500Y-25622250D02*
X32616250Y-25781000D01*
X33528000Y-25781000D01*
X33528000Y-25761000D01*
X33782000Y-25761000D01*
X33782000Y-25781000D01*
X33802000Y-25781000D01*
X33802000Y-26035000D01*
X33782000Y-26035000D01*
X33782000Y-26055000D01*
X33528000Y-26055000D01*
X33528000Y-26035000D01*
X32616250Y-26035000D01*
X32457500Y-26193750D01*
X32454428Y-26783000D01*
X32466688Y-26907482D01*
X32502998Y-27027180D01*
X32561963Y-27137494D01*
X32641315Y-27234185D01*
X32738006Y-27313537D01*
X32824991Y-27360032D01*
X32716537Y-27449037D01*
X32606095Y-27583612D01*
X32524028Y-27737148D01*
X32473492Y-27903743D01*
X32456428Y-28076997D01*
X32456428Y-29175001D01*
X31930476Y-29175001D01*
X31929500Y-28987750D01*
X31770750Y-28829000D01*
X30859000Y-28829000D01*
X30859000Y-28849000D01*
X30605000Y-28849000D01*
X30605000Y-28829000D01*
X30585000Y-28829000D01*
X30585000Y-28575000D01*
X30605000Y-28575000D01*
X30605000Y-28555000D01*
X30859000Y-28555000D01*
X30859000Y-28575000D01*
X31770750Y-28575000D01*
X31929500Y-28416250D01*
X31932572Y-27827000D01*
X31920312Y-27702518D01*
X31884002Y-27582820D01*
X31825037Y-27472506D01*
X31745685Y-27375815D01*
X31648994Y-27296463D01*
X31562009Y-27249968D01*
X31670463Y-27160963D01*
X31780905Y-27026388D01*
X31862972Y-26872852D01*
X31913508Y-26706257D01*
X31930572Y-26533003D01*
X31930572Y-25467990D01*
X32456696Y-25467990D01*
X32457500Y-25622250D01*
%TA.AperFunction,Conductor*%
D16*
G36*
X32457500Y-25622250D02*
G01*
X32616250Y-25781000D01*
X33528000Y-25781000D01*
X33528000Y-25761000D01*
X33782000Y-25761000D01*
X33782000Y-25781000D01*
X33802000Y-25781000D01*
X33802000Y-26035000D01*
X33782000Y-26035000D01*
X33782000Y-26055000D01*
X33528000Y-26055000D01*
X33528000Y-26035000D01*
X32616250Y-26035000D01*
X32457500Y-26193750D01*
X32454428Y-26783000D01*
X32466688Y-26907482D01*
X32502998Y-27027180D01*
X32561963Y-27137494D01*
X32641315Y-27234185D01*
X32738006Y-27313537D01*
X32824991Y-27360032D01*
X32716537Y-27449037D01*
X32606095Y-27583612D01*
X32524028Y-27737148D01*
X32473492Y-27903743D01*
X32456428Y-28076997D01*
X32456428Y-29175001D01*
X31930476Y-29175001D01*
X31929500Y-28987750D01*
X31770750Y-28829000D01*
X30859000Y-28829000D01*
X30859000Y-28849000D01*
X30605000Y-28849000D01*
X30605000Y-28829000D01*
X30585000Y-28829000D01*
X30585000Y-28575000D01*
X30605000Y-28575000D01*
X30605000Y-28555000D01*
X30859000Y-28555000D01*
X30859000Y-28575000D01*
X31770750Y-28575000D01*
X31929500Y-28416250D01*
X31932572Y-27827000D01*
X31920312Y-27702518D01*
X31884002Y-27582820D01*
X31825037Y-27472506D01*
X31745685Y-27375815D01*
X31648994Y-27296463D01*
X31562009Y-27249968D01*
X31670463Y-27160963D01*
X31780905Y-27026388D01*
X31862972Y-26872852D01*
X31913508Y-26706257D01*
X31930572Y-26533003D01*
X31930572Y-25467990D01*
X32456696Y-25467990D01*
X32457500Y-25622250D01*
G37*
%TD.AperFunction*%
%TD*%
M02*
