M48
; DRILL file {KiCad 5.1.9} date Fri Apr 30 20:41:35 2021
; FORMAT={-:-/ absolute / inch / decimal}
; #@! TF.CreationDate,2021-04-30T20:41:35+02:00
; #@! TF.GenerationSoftware,Kicad,Pcbnew,5.1.9
FMAT,2
INCH
T1C0.0157
T2C0.0236
T3C0.0335
T4C0.0394
%
G90
G05
T1
X1.02Y-1.1325
X1.02Y-1.355
X1.02Y-1.5725
X1.02Y-2.0125
X1.02Y-2.4525
X1.02Y-2.8925
X1.02Y-3.3325
X1.02Y-3.7725
X1.02Y-4.2125
X1.0625Y-4.3175
X1.0925Y-1.2375
X1.0925Y-1.6725
X1.0925Y-2.1175
X1.0925Y-2.5575
X1.0925Y-2.9975
X1.0925Y-3.4375
X1.0925Y-3.8775
X1.105Y-1.295
X1.105Y-2.615
X1.1075Y-1.7325
X1.1075Y-2.175
X1.1075Y-3.055
X1.1075Y-3.495
X1.1075Y-3.935
X1.125Y-2.465
X1.14Y-1.15
X1.145Y-2.03
X1.145Y-3.35
X1.145Y-4.23
X1.15Y-1.59
X1.15Y-2.91
X1.15Y-3.79
X1.2137Y-1.2312
X1.2275Y-1.13
X1.2275Y-4.21
X1.23Y-1.565
X1.23Y-1.675
X1.23Y-2.005
X1.23Y-2.115
X1.23Y-2.445
X1.23Y-2.55
X1.23Y-2.885
X1.23Y-2.99
X1.23Y-3.765
X1.23Y-3.87
X1.235Y-3.325
X1.235Y-3.43
X1.235Y-4.35
X1.2976Y-4.4474
X1.375Y-3.08
X1.375Y-3.525
X1.38Y-1.32
X1.38Y-1.76
X1.38Y-2.2
X1.38Y-2.64
X1.38Y-3.96
X1.4275Y-1.085
X1.4563Y-3.7262
X1.4587Y-1.9663
X1.46Y-2.845
X1.46Y-3.285
X1.46Y-4.165
X1.4612Y-2.4062
X1.4625Y-1.525
X1.515Y-0.9675
X1.515Y-1.1326
X1.515Y-1.3525
X1.515Y-1.5726
X1.515Y-1.7925
X1.515Y-2.0126
X1.515Y-2.245
X1.515Y-2.4526
X1.515Y-2.6725
X1.515Y-2.8927
X1.515Y-3.125
X1.515Y-3.34
X1.515Y-3.5525
X1.515Y-3.7726
X1.515Y-3.9927
X1.515Y-4.2127
T3
X1.1691Y-4.5274
X1.3659Y-4.5274
T4
X0.895Y-4.25
X1.64Y-4.25
T2
G00X1.1297Y-4.6475
M15
G01X1.1297Y-4.6199
M16
G05
G00X1.4053Y-4.6199
M15
G01X1.4053Y-4.6475
M16
G05
T0
M30
